G04*
G04 #@! TF.GenerationSoftware,Altium Limited,Altium Designer,18.1.9 (240)*
G04*
G04 Layer_Color=8421504*
%FSLAX24Y24*%
%MOIN*%
G70*
G01*
G75*
%ADD19R,0.0276X0.0276*%
%ADD20R,0.0354X0.0512*%
%ADD21R,0.0240X0.0260*%
%ADD22R,0.0201X0.0221*%
%ADD23R,0.0594X0.0177*%
%ADD24R,0.0260X0.0240*%
%ADD25R,0.0221X0.0201*%
%ADD26O,0.0256X0.0079*%
%ADD27O,0.0079X0.0207*%
%ADD28R,0.0846X0.0197*%
%ADD29R,0.0669X0.0197*%
%ADD30R,0.1205X0.0354*%
%ADD31R,0.0354X0.0453*%
%ADD32R,0.0512X0.0354*%
%ADD33R,0.0197X0.0059*%
%ADD34R,0.0059X0.0197*%
%ADD35R,0.0945X0.0945*%
%ADD36R,0.0374X0.1465*%
%ADD37R,0.0466X0.0045*%
%ADD38R,0.0559X0.0661*%
G36*
X32674Y3693D02*
X32300D01*
Y4067D01*
X32674D01*
Y3693D01*
D02*
G37*
G36*
X32264D02*
X31890Y3693D01*
X31890Y4067D01*
X32264Y4067D01*
Y3693D01*
D02*
G37*
G36*
X32674Y3203D02*
X32300D01*
Y3577D01*
X32674D01*
Y3203D01*
D02*
G37*
G36*
X32264D02*
X31890D01*
Y3577D01*
X32264D01*
Y3203D01*
D02*
G37*
G36*
X32674Y2703D02*
X32300D01*
Y3077D01*
X32674D01*
Y2703D01*
D02*
G37*
G36*
X32264Y2703D02*
X31890D01*
Y3077D01*
X32264D01*
Y2703D01*
D02*
G37*
G36*
X33514Y3693D02*
X33140D01*
X33140Y4067D01*
X33514D01*
X33514Y3693D01*
D02*
G37*
G36*
X33094Y3693D02*
X32720Y3693D01*
X32720Y4067D01*
X33094D01*
X33094Y3693D01*
D02*
G37*
G36*
X33514Y3203D02*
X33140D01*
Y3577D01*
X33514D01*
Y3203D01*
D02*
G37*
G36*
X33094D02*
X32720D01*
Y3577D01*
X33094D01*
Y3203D01*
D02*
G37*
G36*
X33514Y2703D02*
X33140D01*
Y3077D01*
X33514D01*
Y2703D01*
D02*
G37*
G36*
X33094D02*
X32720D01*
Y3077D01*
X33094D01*
Y2703D01*
D02*
G37*
G36*
X32654Y5547D02*
X32654Y5173D01*
X32280Y5173D01*
Y5547D01*
X32654Y5547D01*
D02*
G37*
G36*
X32244Y5547D02*
X32244Y5173D01*
X31870Y5173D01*
Y5547D01*
X32244Y5547D01*
D02*
G37*
G36*
X32674Y4663D02*
X32300D01*
Y5037D01*
X32674D01*
Y4663D01*
D02*
G37*
G36*
X32264Y5037D02*
Y4663D01*
X31890Y4663D01*
Y5037D01*
X32264Y5037D01*
D02*
G37*
G36*
X32674Y4173D02*
X32300D01*
Y4547D01*
X32674D01*
Y4173D01*
D02*
G37*
G36*
X32264D02*
X31890D01*
Y4547D01*
X32264D01*
Y4173D01*
D02*
G37*
G36*
X33074Y5547D02*
Y5173D01*
X32700Y5173D01*
Y5547D01*
X33074Y5547D01*
D02*
G37*
G36*
X33494Y5173D02*
X33120Y5173D01*
Y5547D01*
X33494D01*
Y5173D01*
D02*
G37*
G36*
X33514Y4663D02*
X33140Y4663D01*
Y5037D01*
X33514Y5037D01*
Y4663D01*
D02*
G37*
G36*
X33094D02*
X32720Y4663D01*
Y5037D01*
X33094Y5037D01*
Y4663D01*
D02*
G37*
G36*
X33514Y4173D02*
X33140D01*
Y4547D01*
X33514D01*
Y4173D01*
D02*
G37*
G36*
X33094D02*
X32720D01*
Y4547D01*
X33094D01*
Y4173D01*
D02*
G37*
G36*
X34354Y4067D02*
Y3693D01*
X33980Y3693D01*
X33980Y4067D01*
X34354Y4067D01*
D02*
G37*
G36*
X33934Y3693D02*
X33560Y3693D01*
Y4067D01*
X33934D01*
Y3693D01*
D02*
G37*
G36*
X34354Y3203D02*
X33980D01*
Y3577D01*
X34354D01*
Y3203D01*
D02*
G37*
G36*
X33934D02*
X33560D01*
Y3577D01*
X33934D01*
Y3203D01*
D02*
G37*
G36*
X34354Y2703D02*
X33980D01*
Y3077D01*
X34354D01*
Y2703D01*
D02*
G37*
G36*
X33934D02*
X33560Y2703D01*
Y3077D01*
X33934D01*
Y2703D01*
D02*
G37*
G36*
X34777Y3696D02*
X34403D01*
Y4070D01*
X34777D01*
Y3696D01*
D02*
G37*
G36*
X35184Y3693D02*
X34810D01*
Y4067D01*
X35184D01*
Y3693D01*
D02*
G37*
G36*
X34777Y3206D02*
X34403Y3206D01*
Y3580D01*
X34777Y3580D01*
Y3206D01*
D02*
G37*
G36*
X35184Y3203D02*
X34810D01*
Y3577D01*
X35184D01*
Y3203D01*
D02*
G37*
G36*
X34777Y2706D02*
X34403Y2706D01*
X34403Y3080D01*
X34777Y3080D01*
Y2706D01*
D02*
G37*
G36*
X35184Y3077D02*
Y2703D01*
X34810Y2703D01*
Y3077D01*
X35184Y3077D01*
D02*
G37*
G36*
X34334Y5173D02*
X33960Y5173D01*
Y5547D01*
X34334Y5547D01*
Y5173D01*
D02*
G37*
G36*
X33914D02*
X33540Y5173D01*
X33540Y5547D01*
X33914D01*
Y5173D01*
D02*
G37*
G36*
X33934Y4663D02*
X33560D01*
Y5037D01*
X33934D01*
Y4663D01*
D02*
G37*
G36*
X34354Y5037D02*
Y4663D01*
X33980Y4663D01*
Y5037D01*
X34354Y5037D01*
D02*
G37*
G36*
Y4173D02*
X33980D01*
Y4547D01*
X34354D01*
Y4173D01*
D02*
G37*
G36*
X33934D02*
X33560D01*
Y4547D01*
X33934Y4547D01*
Y4173D01*
D02*
G37*
G36*
X34757Y5176D02*
X34383D01*
Y5550D01*
X34757D01*
Y5176D01*
D02*
G37*
G36*
X35164Y5173D02*
X34790Y5173D01*
X34790Y5547D01*
X35164D01*
Y5173D01*
D02*
G37*
G36*
X34777Y4666D02*
X34403D01*
Y5040D01*
X34777D01*
Y4666D01*
D02*
G37*
G36*
X35184Y4663D02*
X34810D01*
Y5037D01*
X35184D01*
Y4663D01*
D02*
G37*
G36*
X34777Y4176D02*
X34403Y4176D01*
X34403Y4550D01*
X34777Y4550D01*
Y4176D01*
D02*
G37*
G36*
X35184Y4547D02*
Y4173D01*
X34810D01*
Y4547D01*
X35184Y4547D01*
D02*
G37*
D19*
X28815Y14180D02*
D03*
X29405D02*
D03*
X11550Y25000D02*
D03*
X12141D02*
D03*
X11550Y17100D02*
D03*
X12141D02*
D03*
D20*
X27100Y14110D02*
D03*
X27848D02*
D03*
X27474Y14976D02*
D03*
D21*
X12950Y25000D02*
D03*
X34850Y910D02*
D03*
X30067Y9666D02*
D03*
X22630Y2090D02*
D03*
X20800Y20807D02*
D03*
X33560Y13280D02*
D03*
X28360Y12910D02*
D03*
X25950Y13970D02*
D03*
X28940Y14970D02*
D03*
X12950Y17100D02*
D03*
X22630Y3370D02*
D03*
D22*
X13350Y25000D02*
D03*
X34450Y910D02*
D03*
X29667Y9666D02*
D03*
X22230Y2090D02*
D03*
X22760Y4755D02*
D03*
X23160D02*
D03*
X22830Y5210D02*
D03*
X23230D02*
D03*
X22730Y29960D02*
D03*
X22330D02*
D03*
X20400Y20807D02*
D03*
X34850Y330D02*
D03*
X34450D02*
D03*
X33160Y13280D02*
D03*
X27960Y12910D02*
D03*
X25550Y13970D02*
D03*
X28540Y14970D02*
D03*
X13350Y17100D02*
D03*
X17360Y12140D02*
D03*
X16960D02*
D03*
X22230Y3370D02*
D03*
D23*
X24579Y12900D02*
D03*
Y11900D02*
D03*
X27161Y12900D02*
D03*
Y11900D02*
D03*
D24*
X25980Y3730D02*
D03*
X20230Y3280D02*
D03*
X28600Y29655D02*
D03*
Y28750D02*
D03*
X31730Y11910D02*
D03*
X31230Y11903D02*
D03*
X21120Y3280D02*
D03*
X20680D02*
D03*
D25*
X25980Y4130D02*
D03*
X20980Y5850D02*
D03*
Y6250D02*
D03*
X20560Y6230D02*
D03*
Y6630D02*
D03*
X14988Y21750D02*
D03*
Y21350D02*
D03*
X20230Y2880D02*
D03*
X28600Y29255D02*
D03*
Y28350D02*
D03*
X31730Y11510D02*
D03*
X31230Y11503D02*
D03*
X21120Y2880D02*
D03*
X18910Y12960D02*
D03*
Y13360D02*
D03*
X22550Y29460D02*
D03*
Y29060D02*
D03*
X20680Y2880D02*
D03*
D26*
X18090Y12144D02*
D03*
Y11947D02*
D03*
Y11750D02*
D03*
Y11553D02*
D03*
Y11356D02*
D03*
X19290D02*
D03*
Y11553D02*
D03*
Y11750D02*
D03*
Y11947D02*
D03*
Y12144D02*
D03*
D27*
X18493Y11189D02*
D03*
X18690D02*
D03*
X18887D02*
D03*
Y12311D02*
D03*
X18690D02*
D03*
X18493D02*
D03*
D28*
X23809Y30455D02*
D03*
Y29955D02*
D03*
Y29455D02*
D03*
Y28955D02*
D03*
Y28455D02*
D03*
Y27955D02*
D03*
Y27455D02*
D03*
Y26955D02*
D03*
X27411Y30455D02*
D03*
Y29955D02*
D03*
Y29455D02*
D03*
Y28955D02*
D03*
Y28455D02*
D03*
Y27955D02*
D03*
Y27455D02*
D03*
Y26955D02*
D03*
D29*
X19596Y19307D02*
D03*
Y19807D02*
D03*
Y20307D02*
D03*
Y20807D02*
D03*
Y21307D02*
D03*
Y21807D02*
D03*
Y22307D02*
D03*
Y22807D02*
D03*
Y23307D02*
D03*
Y23807D02*
D03*
Y24307D02*
D03*
Y24807D02*
D03*
Y25307D02*
D03*
Y25807D02*
D03*
X15836Y19307D02*
D03*
Y19807D02*
D03*
Y20307D02*
D03*
Y20807D02*
D03*
Y21307D02*
D03*
Y21807D02*
D03*
Y22307D02*
D03*
Y22807D02*
D03*
Y23307D02*
D03*
Y23807D02*
D03*
Y24307D02*
D03*
Y24807D02*
D03*
Y25307D02*
D03*
Y25807D02*
D03*
D30*
X9875Y23550D02*
D03*
X7025D02*
D03*
X9875Y28550D02*
D03*
Y26550D02*
D03*
Y25550D02*
D03*
Y24550D02*
D03*
X7025D02*
D03*
Y25550D02*
D03*
Y26550D02*
D03*
Y28550D02*
D03*
Y20650D02*
D03*
Y18650D02*
D03*
Y17650D02*
D03*
Y16650D02*
D03*
X9875D02*
D03*
Y17650D02*
D03*
Y18650D02*
D03*
Y20650D02*
D03*
X7025Y15650D02*
D03*
X9875D02*
D03*
D31*
X22795Y1500D02*
D03*
X22125D02*
D03*
X22125Y2770D02*
D03*
X22795D02*
D03*
D32*
X12233Y15276D02*
D03*
Y16024D02*
D03*
X11367Y15650D02*
D03*
X31224Y10230D02*
D03*
Y9482D02*
D03*
X32091Y9856D02*
D03*
X4567Y16024D02*
D03*
Y15276D02*
D03*
X5433Y15650D02*
D03*
Y23550D02*
D03*
X4567Y23176D02*
D03*
Y23924D02*
D03*
D33*
X20340Y5149D02*
D03*
Y4952D02*
D03*
Y4755D02*
D03*
Y4558D02*
D03*
Y4361D02*
D03*
Y4164D02*
D03*
X21817D02*
D03*
Y4361D02*
D03*
Y4558D02*
D03*
Y4755D02*
D03*
Y4952D02*
D03*
Y5149D02*
D03*
D34*
X20587Y3918D02*
D03*
X20783D02*
D03*
X20980D02*
D03*
X21177D02*
D03*
X21374D02*
D03*
X21571D02*
D03*
Y5395D02*
D03*
X21374D02*
D03*
X21177D02*
D03*
X20980D02*
D03*
X20783D02*
D03*
X20587D02*
D03*
D35*
X21079Y4656D02*
D03*
D36*
X34520Y8165D02*
D03*
X32520D02*
D03*
D37*
X33520Y4110D02*
D03*
D38*
X26965Y2140D02*
D03*
X30615D02*
D03*
Y4140D02*
D03*
X26965D02*
D03*
X30615Y3140D02*
D03*
X26965D02*
D03*
M02*
