G04*
G04 #@! TF.GenerationSoftware,Altium Limited,Altium Designer,18.1.9 (240)*
G04*
G04 Layer_Color=8388736*
%FSLAX24Y24*%
%MOIN*%
G70*
G01*
G75*
%ADD39R,0.0354X0.0354*%
%ADD40R,0.0433X0.0591*%
%ADD41R,0.0280X0.0300*%
%ADD42R,0.0672X0.0256*%
%ADD43R,0.0300X0.0280*%
%ADD44O,0.0335X0.0157*%
%ADD45O,0.0157X0.0285*%
%ADD46R,0.0925X0.0276*%
%ADD47R,0.0748X0.0276*%
%ADD48R,0.1284X0.0434*%
%ADD49R,0.0433X0.0531*%
%ADD50R,0.0591X0.0433*%
%ADD51R,0.0276X0.0138*%
%ADD52R,0.0138X0.0276*%
%ADD53R,0.1024X0.1024*%
%ADD54R,0.0513X0.1604*%
%ADD55R,0.3466X0.3045*%
%ADD56R,0.0638X0.0740*%
%ADD57C,0.0560*%
%ADD58C,0.0570*%
%ADD59C,0.0640*%
%ADD60C,0.1930*%
%ADD61C,0.0985*%
%ADD62R,0.0650X0.0650*%
%ADD63C,0.0650*%
%ADD64C,0.0630*%
%ADD65R,0.0630X0.0630*%
%ADD66R,0.0630X0.0630*%
%ADD67C,0.0709*%
%ADD68C,0.0239*%
%ADD69C,0.0249*%
D39*
X28815Y14180D02*
D03*
X29405D02*
D03*
X11550Y25000D02*
D03*
X12141D02*
D03*
X11550Y17100D02*
D03*
X12141D02*
D03*
D40*
X27100Y14110D02*
D03*
X27848D02*
D03*
X27474Y14976D02*
D03*
D41*
X12950Y25000D02*
D03*
X13350D02*
D03*
X34850Y910D02*
D03*
X34450D02*
D03*
X30067Y9666D02*
D03*
X29667D02*
D03*
X22630Y2090D02*
D03*
X22230D02*
D03*
X22760Y4755D02*
D03*
X23160D02*
D03*
X22830Y5210D02*
D03*
X23230D02*
D03*
X22730Y29960D02*
D03*
X22330D02*
D03*
X20800Y20807D02*
D03*
X20400D02*
D03*
X34850Y330D02*
D03*
X34450D02*
D03*
X33560Y13280D02*
D03*
X33160D02*
D03*
X28360Y12910D02*
D03*
X27960D02*
D03*
X25950Y13970D02*
D03*
X25550D02*
D03*
X28940Y14970D02*
D03*
X28540D02*
D03*
X12950Y17100D02*
D03*
X13350D02*
D03*
X17360Y12140D02*
D03*
X16960D02*
D03*
X22230Y3370D02*
D03*
X22630D02*
D03*
D42*
X24579Y12900D02*
D03*
Y11900D02*
D03*
X27161Y12900D02*
D03*
Y11900D02*
D03*
D43*
X25980Y3730D02*
D03*
Y4130D02*
D03*
X20980Y5850D02*
D03*
Y6250D02*
D03*
X20560Y6230D02*
D03*
Y6630D02*
D03*
X14988Y21750D02*
D03*
Y21350D02*
D03*
X20230Y3280D02*
D03*
Y2880D02*
D03*
X28600Y29655D02*
D03*
Y29255D02*
D03*
Y28750D02*
D03*
Y28350D02*
D03*
X31730Y11510D02*
D03*
Y11910D02*
D03*
X31230Y11503D02*
D03*
Y11903D02*
D03*
X21120Y2880D02*
D03*
Y3280D02*
D03*
X18910Y12960D02*
D03*
Y13360D02*
D03*
X22550Y29460D02*
D03*
Y29060D02*
D03*
X20680Y2880D02*
D03*
Y3280D02*
D03*
D44*
X18090Y12144D02*
D03*
Y11947D02*
D03*
Y11750D02*
D03*
Y11553D02*
D03*
Y11356D02*
D03*
X19290D02*
D03*
Y11553D02*
D03*
Y11750D02*
D03*
Y11947D02*
D03*
Y12144D02*
D03*
D45*
X18493Y11189D02*
D03*
X18690D02*
D03*
X18887D02*
D03*
Y12311D02*
D03*
X18690D02*
D03*
X18493D02*
D03*
D46*
X23809Y30455D02*
D03*
Y29955D02*
D03*
Y29455D02*
D03*
Y28955D02*
D03*
Y28455D02*
D03*
Y27955D02*
D03*
Y27455D02*
D03*
Y26955D02*
D03*
X27411Y30455D02*
D03*
Y29955D02*
D03*
Y29455D02*
D03*
Y28955D02*
D03*
Y28455D02*
D03*
Y27955D02*
D03*
Y27455D02*
D03*
Y26955D02*
D03*
D47*
X19596Y19307D02*
D03*
Y19807D02*
D03*
Y20307D02*
D03*
Y20807D02*
D03*
Y21307D02*
D03*
Y21807D02*
D03*
Y22307D02*
D03*
Y22807D02*
D03*
Y23307D02*
D03*
Y23807D02*
D03*
Y24307D02*
D03*
Y24807D02*
D03*
Y25307D02*
D03*
Y25807D02*
D03*
X15836Y19307D02*
D03*
Y19807D02*
D03*
Y20307D02*
D03*
Y20807D02*
D03*
Y21307D02*
D03*
Y21807D02*
D03*
Y22307D02*
D03*
Y22807D02*
D03*
Y23307D02*
D03*
Y23807D02*
D03*
Y24307D02*
D03*
Y24807D02*
D03*
Y25307D02*
D03*
Y25807D02*
D03*
D48*
X9875Y23550D02*
D03*
X7025D02*
D03*
X9875Y28550D02*
D03*
Y26550D02*
D03*
Y25550D02*
D03*
Y24550D02*
D03*
X7025D02*
D03*
Y25550D02*
D03*
Y26550D02*
D03*
Y28550D02*
D03*
Y20650D02*
D03*
Y18650D02*
D03*
Y17650D02*
D03*
Y16650D02*
D03*
X9875D02*
D03*
Y17650D02*
D03*
Y18650D02*
D03*
Y20650D02*
D03*
X7025Y15650D02*
D03*
X9875D02*
D03*
D49*
X22795Y1500D02*
D03*
X22125D02*
D03*
X22125Y2770D02*
D03*
X22795D02*
D03*
D50*
X12233Y15276D02*
D03*
Y16024D02*
D03*
X11367Y15650D02*
D03*
X31224Y10230D02*
D03*
Y9482D02*
D03*
X32091Y9856D02*
D03*
X4567Y16024D02*
D03*
Y15276D02*
D03*
X5433Y15650D02*
D03*
Y23550D02*
D03*
X4567Y23176D02*
D03*
Y23924D02*
D03*
D51*
X20340Y5149D02*
D03*
Y4952D02*
D03*
Y4755D02*
D03*
Y4558D02*
D03*
Y4361D02*
D03*
Y4164D02*
D03*
X21817D02*
D03*
Y4361D02*
D03*
Y4558D02*
D03*
Y4755D02*
D03*
Y4952D02*
D03*
Y5149D02*
D03*
D52*
X20587Y3918D02*
D03*
X20783D02*
D03*
X20980D02*
D03*
X21177D02*
D03*
X21374D02*
D03*
X21571D02*
D03*
Y5395D02*
D03*
X21374D02*
D03*
X21177D02*
D03*
X20980D02*
D03*
X20783D02*
D03*
X20587D02*
D03*
D53*
X21079Y4656D02*
D03*
D54*
X34520Y8165D02*
D03*
X32520D02*
D03*
D55*
X33520Y4110D02*
D03*
D56*
X26965Y2140D02*
D03*
X30615D02*
D03*
Y4140D02*
D03*
X26965D02*
D03*
X30615Y3140D02*
D03*
X26965D02*
D03*
D57*
X10988Y38990D02*
D03*
Y37990D02*
D03*
X11988Y38990D02*
D03*
Y37990D02*
D03*
X12988Y38990D02*
D03*
Y37990D02*
D03*
X13988Y38990D02*
D03*
Y37990D02*
D03*
X14988Y38990D02*
D03*
Y37990D02*
D03*
X12402Y-2362D02*
D03*
X13402D02*
D03*
X14402D02*
D03*
X15402D02*
D03*
X16402D02*
D03*
X17402D02*
D03*
X18402D02*
D03*
X19402D02*
D03*
X20402D02*
D03*
X21402D02*
D03*
X19958Y38990D02*
D03*
Y37990D02*
D03*
X20958Y38990D02*
D03*
Y37990D02*
D03*
X21958Y38990D02*
D03*
Y37990D02*
D03*
X22958Y38990D02*
D03*
Y37990D02*
D03*
X23958Y38990D02*
D03*
Y37990D02*
D03*
X6470Y8040D02*
D03*
X7470D02*
D03*
X8470D02*
D03*
X9470D02*
D03*
X10470D02*
D03*
X11470D02*
D03*
X6472Y6280D02*
D03*
X7472D02*
D03*
X8472D02*
D03*
X9472D02*
D03*
X10472D02*
D03*
X11472D02*
D03*
D58*
X15988Y38990D02*
D03*
Y37990D02*
D03*
X16988Y38990D02*
D03*
Y37990D02*
D03*
X17988Y38990D02*
D03*
Y37990D02*
D03*
X24958Y38990D02*
D03*
Y37990D02*
D03*
X25958Y38990D02*
D03*
Y37990D02*
D03*
X26958Y38990D02*
D03*
Y37990D02*
D03*
D59*
X35585Y13270D02*
D03*
X34585D02*
D03*
X35585Y12270D02*
D03*
X34585D02*
D03*
X35585Y11270D02*
D03*
X34585D02*
D03*
D60*
X33331Y33048D02*
D03*
Y26374D02*
D03*
D61*
Y22230D02*
D03*
X33331Y37116D02*
D03*
D62*
X28500Y-790D02*
D03*
X33390Y910D02*
D03*
X37390Y-790D02*
D03*
D63*
X27500D02*
D03*
X32390Y910D02*
D03*
X31390Y-790D02*
D03*
X32390D02*
D03*
X33390D02*
D03*
X34390D02*
D03*
X35390D02*
D03*
X36390D02*
D03*
D64*
X38150Y11220D02*
D03*
X37150D02*
D03*
X38150Y12220D02*
D03*
X37150D02*
D03*
X38150Y13220D02*
D03*
X13410Y-4240D02*
D03*
X15410D02*
D03*
X16410D02*
D03*
X17410D02*
D03*
X18410D02*
D03*
X19410D02*
D03*
X20410D02*
D03*
X21410D02*
D03*
X14410D02*
D03*
D65*
X37150Y13220D02*
D03*
D66*
X12410Y-4240D02*
D03*
D67*
X36590Y6340D02*
D03*
Y7340D02*
D03*
Y8340D02*
D03*
Y5340D02*
D03*
D68*
X20862Y4873D02*
D03*
X21295D02*
D03*
X20862Y4440D02*
D03*
X21295D02*
D03*
D69*
X31210Y3140D02*
D03*
X29667Y9296D02*
D03*
X26370Y3040D02*
D03*
M02*
