M48
;Layer_Color=9474304
;FILE_FORMAT=2:4
INCH,LZ
;TYPE=PLATED
T1F00S00C0.0100
T2F00S00C0.0350
T3F00S00C0.0354
T4F00S00C0.0400
T5F00S00C0.0405
T6F00S00C0.0429
T7F00S00C0.0453
T8F00S00C0.0630
T9F00S00C0.1260
%
T01
X03121Y00314
X02637Y00304
X02308Y00209
X02191Y00337
X021295Y00444
Y004873
X020862
Y00444
X01905Y00447
X01938Y00399
X01968Y00319
X01975Y005395
X01879Y00534
X01844Y00548
X02358Y00521
X023445Y004755
X02062Y00174
X01866Y-00007
X01465
X01402Y00571
Y00831
X01275Y016024
X0137Y0171
X01439Y01844
X01427Y02131
X00894Y02065
X00811
X00405Y015276
X0163Y01233
X01665Y01214
X017633Y011553
X01822Y01064
X01869Y01081
X02014Y01083
X01986Y01173
X019856Y012144
X01989Y01292
X020735
X018493Y012843
X01891Y01367
X01894Y01847
X020243Y019307
Y019807
Y020307
X0212Y020807
X02335
X02406Y0119
X02764
X027848Y013672
X02825Y00833
X029667Y009296
X030527Y009636
X02056Y00726
X02098Y00655
X01898Y00673
X03291Y01065
X03288Y01328
X031236Y012376
X03635Y01421
X028116Y026955
X0286Y028005
X023104Y028955
X02176Y028455
X02225Y02781
X02103Y02744
X02021Y024807
Y024307
Y023807
Y022807
X02299Y02372
X022Y02996
X01507Y02284
X0137Y025
T02
X015402Y-002362
X016402
X017402
X018402
X019402
X020402
X021402
X014402
X013402
X012402
X011472Y00628
X010472
X009472
X008472
X007472
X006472
X00647Y00804
X00747
X00847
X00947
X01047
X01147
X010988Y03799
Y03899
X011988
Y03799
X012988
Y03899
X013988
Y03799
X014988
Y03899
X015988
Y03799
X016988
Y03899
X017988
Y03799
X019958
Y03899
X020958
Y03799
X021958
Y03899
X022958
Y03799
X023958
Y03899
X024958
Y03799
X025958
Y03899
X026958
Y03799
T03
X01541Y-00424
X01641
X01741
X01841
X01941
X02041
X02141
X01441
X01341
X01241
X03715Y01122
X03815
Y01222
X03715
Y01322
X03815
T04
X034585Y01127
Y01227
Y01327
X035585
Y01227
Y01127
T05
X03239Y00091
X03339
T06
X03139Y-00079
X03239
X03339
X03439
X03539
X03639
X03739
X0285
X0275
T07
X03659Y00534
Y00634
Y00734
Y00834
T08
X033331Y02223
X033331Y037116
T09
X033331Y026374
Y033048
M30
