G04*
G04 #@! TF.GenerationSoftware,Altium Limited,Altium Designer,18.1.9 (240)*
G04*
G04 Layer_Color=128*
%FSLAX24Y24*%
%MOIN*%
G70*
G01*
G75*
%ADD103C,0.0020*%
D103*
X10813Y38990D02*
X11163D01*
X10988Y38815D02*
Y39165D01*
X10813Y37990D02*
X11163D01*
X10988Y37815D02*
Y38165D01*
X11813Y38990D02*
X12163D01*
X11988Y38815D02*
Y39165D01*
X11813Y37990D02*
X12163D01*
X11988Y37815D02*
Y38165D01*
X12813Y38990D02*
X13163D01*
X12988Y38815D02*
Y39165D01*
X12813Y37990D02*
X13163D01*
X12988Y37815D02*
Y38165D01*
X13813Y38990D02*
X14163D01*
X13988Y38815D02*
Y39165D01*
X13813Y37990D02*
X14163D01*
X13988Y37815D02*
Y38165D01*
X14813Y38990D02*
X15163D01*
X14988Y38815D02*
Y39165D01*
X14813Y37990D02*
X15163D01*
X14988Y37815D02*
Y38165D01*
X15813Y38990D02*
X16163D01*
X15988Y38815D02*
Y39165D01*
X15813Y37990D02*
X16163D01*
X15988Y37815D02*
Y38165D01*
X16813Y38990D02*
X17163D01*
X16988Y38815D02*
Y39165D01*
X16813Y37990D02*
X17163D01*
X16988Y37815D02*
Y38165D01*
X17813Y38990D02*
X18163D01*
X17988Y38815D02*
Y39165D01*
X17813Y37990D02*
X18163D01*
X17988Y37815D02*
Y38165D01*
X12227Y-2362D02*
X12577D01*
X12402Y-2537D02*
Y-2187D01*
X13227Y-2362D02*
X13577D01*
X13402Y-2537D02*
Y-2187D01*
X14227Y-2362D02*
X14577D01*
X14402Y-2537D02*
Y-2187D01*
X15227Y-2362D02*
X15577D01*
X15402Y-2537D02*
Y-2187D01*
X16227Y-2362D02*
X16577D01*
X16402Y-2537D02*
Y-2187D01*
X17227Y-2362D02*
X17577D01*
X17402Y-2537D02*
Y-2187D01*
X18227Y-2362D02*
X18577D01*
X18402Y-2537D02*
Y-2187D01*
X19227Y-2362D02*
X19577D01*
X19402Y-2537D02*
Y-2187D01*
X20227Y-2362D02*
X20577D01*
X20402Y-2537D02*
Y-2187D01*
X21227Y-2362D02*
X21577D01*
X21402Y-2537D02*
Y-2187D01*
X35385Y13270D02*
X35785D01*
X35585Y13070D02*
Y13470D01*
X34385Y13270D02*
X34785D01*
X34585Y13070D02*
Y13470D01*
X35385Y12270D02*
X35785D01*
X35585Y12070D02*
Y12470D01*
X34385Y12270D02*
X34785D01*
X34585Y12070D02*
Y12470D01*
X35385Y11270D02*
X35785D01*
X35585Y11070D02*
Y11470D01*
X34385Y11270D02*
X34785D01*
X34585Y11070D02*
Y11470D01*
X19783Y38990D02*
X20133D01*
X19958Y38815D02*
Y39165D01*
X19783Y37990D02*
X20133D01*
X19958Y37815D02*
Y38165D01*
X20783Y38990D02*
X21133D01*
X20958Y38815D02*
Y39165D01*
X20783Y37990D02*
X21133D01*
X20958Y37815D02*
Y38165D01*
X21783Y38990D02*
X22133D01*
X21958Y38815D02*
Y39165D01*
X21783Y37990D02*
X22133D01*
X21958Y37815D02*
Y38165D01*
X22783Y38990D02*
X23133D01*
X22958Y38815D02*
Y39165D01*
X22783Y37990D02*
X23133D01*
X22958Y37815D02*
Y38165D01*
X23783Y38990D02*
X24133D01*
X23958Y38815D02*
Y39165D01*
X23783Y37990D02*
X24133D01*
X23958Y37815D02*
Y38165D01*
X24783Y38990D02*
X25133D01*
X24958Y38815D02*
Y39165D01*
X24783Y37990D02*
X25133D01*
X24958Y37815D02*
Y38165D01*
X25783Y38990D02*
X26133D01*
X25958Y38815D02*
Y39165D01*
X25783Y37990D02*
X26133D01*
X25958Y37815D02*
Y38165D01*
X26783Y38990D02*
X27133D01*
X26958Y38815D02*
Y39165D01*
X26783Y37990D02*
X27133D01*
X26958Y37815D02*
Y38165D01*
X6295Y8040D02*
X6645D01*
X6470Y7865D02*
Y8215D01*
X7295Y8040D02*
X7645D01*
X7470Y7865D02*
Y8215D01*
X8295Y8040D02*
X8645D01*
X8470Y7865D02*
Y8215D01*
X9295Y8040D02*
X9645D01*
X9470Y7865D02*
Y8215D01*
X10295Y8040D02*
X10645D01*
X10470Y7865D02*
Y8215D01*
X11295Y8040D02*
X11645D01*
X11470Y7865D02*
Y8215D01*
X32701Y33048D02*
X33961D01*
X33331Y32418D02*
Y33678D01*
X32701Y26374D02*
X33961D01*
X33331Y25745D02*
Y27004D01*
X33016Y22230D02*
X33646D01*
X33331Y21915D02*
Y22545D01*
X33016Y37116D02*
X33646D01*
X33331Y36801D02*
Y37431D01*
X6297Y6280D02*
X6647D01*
X6472Y6105D02*
Y6455D01*
X7297Y6280D02*
X7647D01*
X7472Y6105D02*
Y6455D01*
X8297Y6280D02*
X8647D01*
X8472Y6105D02*
Y6455D01*
X9297Y6280D02*
X9647D01*
X9472Y6105D02*
Y6455D01*
X10297Y6280D02*
X10647D01*
X10472Y6105D02*
Y6455D01*
X11297Y6280D02*
X11647D01*
X11472Y6105D02*
Y6455D01*
X28286Y-790D02*
X28714D01*
X28500Y-1005D02*
Y-575D01*
X27285Y-790D02*
X27715D01*
X27500Y-1005D02*
Y-575D01*
X32188Y910D02*
X32592D01*
X32390Y707D02*
Y1112D01*
X33187Y910D02*
X33593D01*
X33390Y707D02*
Y1112D01*
X37973Y11220D02*
X38327D01*
X38150Y11043D02*
Y11397D01*
X36973Y11220D02*
X37327D01*
X37150Y11043D02*
Y11397D01*
X37973Y12220D02*
X38327D01*
X38150Y12043D02*
Y12397D01*
X36973Y12220D02*
X37327D01*
X37150Y12043D02*
Y12397D01*
X37973Y13220D02*
X38327D01*
X38150Y13043D02*
Y13397D01*
X36973Y13220D02*
X37327D01*
X37150Y13043D02*
Y13397D01*
X12233Y-4240D02*
X12587D01*
X12410Y-4417D02*
Y-4063D01*
X13233Y-4240D02*
X13587D01*
X13410Y-4417D02*
Y-4063D01*
X15233Y-4240D02*
X15587D01*
X15410Y-4417D02*
Y-4063D01*
X16233Y-4240D02*
X16587D01*
X16410Y-4417D02*
Y-4063D01*
X17233Y-4240D02*
X17587D01*
X17410Y-4417D02*
Y-4063D01*
X18233Y-4240D02*
X18587D01*
X18410Y-4417D02*
Y-4063D01*
X19233Y-4240D02*
X19587D01*
X19410Y-4417D02*
Y-4063D01*
X20233Y-4240D02*
X20587D01*
X20410Y-4417D02*
Y-4063D01*
X21233Y-4240D02*
X21587D01*
X21410Y-4417D02*
Y-4063D01*
X14233Y-4240D02*
X14587D01*
X14410Y-4417D02*
Y-4063D01*
X31175Y-790D02*
X31604D01*
X31390Y-1005D02*
Y-575D01*
X32176Y-790D02*
X32604D01*
X32390Y-1005D02*
Y-575D01*
X33175Y-790D02*
X33605D01*
X33390Y-1005D02*
Y-575D01*
X34176Y-790D02*
X34604D01*
X34390Y-1005D02*
Y-575D01*
X35175Y-790D02*
X35605D01*
X35390Y-1005D02*
Y-575D01*
X37176Y-790D02*
X37604D01*
X37390Y-1005D02*
Y-575D01*
X36175Y-790D02*
X36604D01*
X36390Y-1005D02*
Y-575D01*
X36364Y6340D02*
X36816D01*
X36590Y6114D02*
Y6566D01*
X36364Y7340D02*
X36816D01*
X36590Y7114D02*
Y7566D01*
X36364Y8340D02*
X36816D01*
X36590Y8114D02*
Y8566D01*
X36364Y5340D02*
X36816D01*
X36590Y5114D02*
Y5566D01*
X20812Y4873D02*
X20912D01*
X20862Y4823D02*
Y4923D01*
X21245Y4873D02*
X21345D01*
X21295Y4823D02*
Y4923D01*
X20812Y4440D02*
X20912D01*
X20862Y4390D02*
Y4490D01*
X21245Y4440D02*
X21345D01*
X21295Y4390D02*
Y4490D01*
X31186Y12376D02*
X31286D01*
X31236Y12326D02*
Y12426D01*
X32860Y10650D02*
X32960D01*
X32910Y10600D02*
Y10700D01*
X31160Y3140D02*
X31260D01*
X31210Y3090D02*
Y3190D01*
X29617Y9296D02*
X29717D01*
X29667Y9246D02*
Y9346D01*
X26320Y3040D02*
X26420D01*
X26370Y2990D02*
Y3090D01*
X36300Y14210D02*
X36400D01*
X36350Y14160D02*
Y14260D01*
X30477Y9636D02*
X30577D01*
X30527Y9586D02*
Y9686D01*
X23030Y2090D02*
X23130D01*
X23080Y2040D02*
Y2140D01*
X21860Y3370D02*
X21960D01*
X21910Y3320D02*
Y3420D01*
X20570Y1740D02*
X20670D01*
X20620Y1690D02*
Y1790D01*
X23300Y20807D02*
X23400D01*
X23350Y20757D02*
Y20857D01*
X28200Y8330D02*
X28300D01*
X28250Y8280D02*
Y8380D01*
X13970Y8310D02*
X14070D01*
X14020Y8260D02*
Y8360D01*
X14600Y-70D02*
X14700D01*
X14650Y-120D02*
Y-20D01*
X18610Y-70D02*
X18710D01*
X18660Y-120D02*
Y-20D01*
X20685Y12920D02*
X20785D01*
X20735Y12870D02*
Y12970D01*
X19840Y12920D02*
X19940D01*
X19890Y12870D02*
Y12970D01*
X19630Y3190D02*
X19730D01*
X19680Y3140D02*
Y3240D01*
X16250Y12330D02*
X16350D01*
X16300Y12280D02*
Y12380D01*
X20090Y10830D02*
X20190D01*
X20140Y10780D02*
Y10880D01*
X18390Y5480D02*
X18490D01*
X18440Y5430D02*
Y5530D01*
X14220Y21310D02*
X14320D01*
X14270Y21260D02*
Y21360D01*
X18930Y6730D02*
X19030D01*
X18980Y6680D02*
Y6780D01*
X18740Y5340D02*
X18840D01*
X18790Y5290D02*
Y5390D01*
X13970Y5710D02*
X14070D01*
X14020Y5660D02*
Y5760D01*
X15020Y22840D02*
X15120D01*
X15070Y22790D02*
Y22890D01*
X18890Y18470D02*
X18990D01*
X18940Y18420D02*
Y18520D01*
X14340Y18440D02*
X14440D01*
X14390Y18390D02*
Y18490D01*
X20980Y27440D02*
X21080D01*
X21030Y27390D02*
Y27490D01*
X22200Y27810D02*
X22300D01*
X22250Y27760D02*
Y27860D01*
X21710Y28455D02*
X21810D01*
X21760Y28405D02*
Y28505D01*
X22940Y23720D02*
X23040D01*
X22990Y23670D02*
Y23770D01*
X8890Y20650D02*
X8990D01*
X8940Y20600D02*
Y20700D01*
X8060Y20650D02*
X8160D01*
X8110Y20600D02*
Y20700D01*
X20160Y24807D02*
X20260D01*
X20210Y24757D02*
Y24857D01*
X20160Y24307D02*
X20260D01*
X20210Y24257D02*
Y24357D01*
X20160Y23807D02*
X20260D01*
X20210Y23757D02*
Y23857D01*
X20160Y22807D02*
X20260D01*
X20210Y22757D02*
Y22857D01*
X21950Y29960D02*
X22050D01*
X22000Y29910D02*
Y30010D01*
X24010Y11900D02*
X24110D01*
X24060Y11850D02*
Y11950D01*
X27590Y11900D02*
X27690D01*
X27640Y11850D02*
Y11950D01*
X27798Y13672D02*
X27898D01*
X27848Y13622D02*
Y13722D01*
X32830Y13280D02*
X32930D01*
X32880Y13230D02*
Y13330D01*
X18860Y13670D02*
X18960D01*
X18910Y13620D02*
Y13720D01*
X16600Y12140D02*
X16700D01*
X16650Y12090D02*
Y12190D01*
X17583Y11553D02*
X17683D01*
X17633Y11503D02*
Y11603D01*
X18170Y10640D02*
X18270D01*
X18220Y10590D02*
Y10690D01*
X18640Y10810D02*
X18740D01*
X18690Y10760D02*
Y10860D01*
X19810Y11730D02*
X19910D01*
X19860Y11680D02*
Y11780D01*
X19806Y12144D02*
X19906D01*
X19856Y12094D02*
Y12194D01*
X18443Y12843D02*
X18543D01*
X18493Y12793D02*
Y12893D01*
X23530Y5210D02*
X23630D01*
X23580Y5160D02*
Y5260D01*
X20510Y7260D02*
X20610D01*
X20560Y7210D02*
Y7310D01*
X19000Y4470D02*
X19100D01*
X19050Y4420D02*
Y4520D01*
X19330Y3990D02*
X19430D01*
X19380Y3940D02*
Y4040D01*
X19700Y5395D02*
X19800D01*
X19750Y5345D02*
Y5445D01*
X20930Y6550D02*
X21030D01*
X20980Y6500D02*
Y6600D01*
X23395Y4755D02*
X23495D01*
X23445Y4705D02*
Y4805D01*
X13650Y17100D02*
X13750D01*
X13700Y17050D02*
Y17150D01*
X13650Y25000D02*
X13750D01*
X13700Y24950D02*
Y25050D01*
X21150Y20807D02*
X21250D01*
X21200Y20757D02*
Y20857D01*
X20193Y20307D02*
X20293D01*
X20243Y20257D02*
Y20357D01*
X20193Y19807D02*
X20293D01*
X20243Y19757D02*
Y19857D01*
X20193Y19307D02*
X20293D01*
X20243Y19257D02*
Y19357D01*
X12700Y16024D02*
X12800D01*
X12750Y15974D02*
Y16074D01*
X4000Y15276D02*
X4100D01*
X4050Y15226D02*
Y15326D01*
X28550Y28005D02*
X28650D01*
X28600Y27955D02*
Y28055D01*
X23054Y28955D02*
X23154D01*
X23104Y28905D02*
Y29005D01*
X28066Y26955D02*
X28166D01*
X28116Y26905D02*
Y27005D01*
M02*
