G04*
G04 #@! TF.GenerationSoftware,Altium Limited,Altium Designer,18.1.9 (240)*
G04*
G04 Layer_Physical_Order=2*
G04 Layer_Color=16711680*
%FSLAX24Y24*%
%MOIN*%
G70*
G01*
G75*
%ADD10C,0.0100*%
%ADD62R,0.0650X0.0650*%
%ADD63C,0.0650*%
%ADD86C,0.0060*%
%ADD87C,0.0200*%
%ADD89C,0.0520*%
%ADD90C,0.0530*%
%ADD91C,0.0600*%
%ADD92C,0.1890*%
%ADD93C,0.0945*%
%ADD94C,0.0591*%
%ADD95R,0.0591X0.0591*%
%ADD96R,0.0591X0.0591*%
%ADD97C,0.0669*%
%ADD98C,0.0200*%
%ADD99C,0.0210*%
G36*
X38920Y38200D02*
X38920Y10843D01*
X38920Y7330D01*
X38740Y7150D01*
X37027Y7150D01*
X36999Y7192D01*
X37013Y7227D01*
X37028Y7340D01*
X37013Y7453D01*
X36970Y7559D01*
X36900Y7650D01*
X36809Y7720D01*
X36703Y7763D01*
X36590Y7778D01*
X36477Y7763D01*
X36371Y7720D01*
X36280Y7650D01*
X36210Y7559D01*
X36171Y7465D01*
X36120Y7445D01*
X35950Y7616D01*
X35950Y8900D01*
X35420Y9430D01*
X32140D01*
X29300Y6590D01*
X29300Y5890D01*
X29300Y-4050D01*
X27000Y-6350D01*
X12170Y-6350D01*
X11340Y-5520D01*
Y-660D01*
X11020Y-340D01*
X2080Y-350D01*
X1390Y340D01*
Y35561D01*
X2142Y36313D01*
X27433D01*
X29810Y38690D01*
X38430D01*
X38920Y38200D01*
D02*
G37*
G36*
X35550Y8740D02*
Y7529D01*
X36219Y6860D01*
X38110D01*
X38610Y6360D01*
X38610Y-3100D01*
X37910Y-3800D01*
X30780Y-3800D01*
X29830Y-2850D01*
X29830Y3470D01*
Y6580D01*
X32310Y9060D01*
X35230D01*
X35550Y8740D01*
D02*
G37*
%LPC*%
G36*
X33331Y37694D02*
X33181Y37674D01*
X33042Y37616D01*
X32922Y37524D01*
X32831Y37405D01*
X32773Y37266D01*
X32753Y37116D01*
X32773Y36967D01*
X32831Y36827D01*
X32922Y36708D01*
X33042Y36616D01*
X33181Y36558D01*
X33331Y36539D01*
X33480Y36558D01*
X33619Y36616D01*
X33739Y36708D01*
X33831Y36827D01*
X33888Y36967D01*
X33908Y37116D01*
X33888Y37266D01*
X33831Y37405D01*
X33739Y37524D01*
X33619Y37616D01*
X33480Y37674D01*
X33331Y37694D01*
D02*
G37*
G36*
X33331Y34096D02*
X33167Y34083D01*
X33007Y34044D01*
X32855Y33981D01*
X32715Y33896D01*
X32590Y33789D01*
X32483Y33664D01*
X32397Y33523D01*
X32334Y33372D01*
X32295Y33212D01*
X32283Y33048D01*
X32295Y32884D01*
X32334Y32724D01*
X32397Y32572D01*
X32483Y32432D01*
X32590Y32306D01*
X32715Y32200D01*
X32855Y32114D01*
X33007Y32051D01*
X33167Y32012D01*
X33331Y32000D01*
X33495Y32012D01*
X33655Y32051D01*
X33807Y32114D01*
X33947Y32200D01*
X34072Y32306D01*
X34179Y32432D01*
X34265Y32572D01*
X34328Y32724D01*
X34366Y32884D01*
X34379Y33048D01*
X34366Y33212D01*
X34328Y33372D01*
X34265Y33523D01*
X34179Y33664D01*
X34072Y33789D01*
X33947Y33896D01*
X33807Y33981D01*
X33655Y34044D01*
X33495Y34083D01*
X33331Y34096D01*
D02*
G37*
G36*
X22050Y30159D02*
Y30010D01*
X22199D01*
X22193Y30040D01*
X22148Y30108D01*
X22080Y30153D01*
X22050Y30159D01*
D02*
G37*
G36*
X21950D02*
X21920Y30153D01*
X21852Y30108D01*
X21807Y30040D01*
X21801Y30010D01*
X21950D01*
Y30159D01*
D02*
G37*
G36*
X22199Y29910D02*
X22050D01*
Y29761D01*
X22080Y29767D01*
X22148Y29812D01*
X22193Y29880D01*
X22199Y29910D01*
D02*
G37*
G36*
X21950D02*
X21801D01*
X21807Y29880D01*
X21852Y29812D01*
X21920Y29767D01*
X21950Y29761D01*
Y29910D01*
D02*
G37*
G36*
X23154Y29154D02*
Y29005D01*
X23303D01*
X23297Y29035D01*
X23252Y29103D01*
X23184Y29148D01*
X23154Y29154D01*
D02*
G37*
G36*
X23054D02*
X23024Y29148D01*
X22957Y29103D01*
X22911Y29035D01*
X22905Y29005D01*
X23054D01*
Y29154D01*
D02*
G37*
G36*
X23303Y28905D02*
X23154D01*
Y28756D01*
X23184Y28762D01*
X23252Y28807D01*
X23297Y28875D01*
X23303Y28905D01*
D02*
G37*
G36*
X23054D02*
X22905D01*
X22911Y28875D01*
X22957Y28807D01*
X23024Y28762D01*
X23054Y28756D01*
Y28905D01*
D02*
G37*
G36*
X21760Y28664D02*
X21680Y28648D01*
X21612Y28603D01*
X21567Y28535D01*
X21551Y28455D01*
X21555Y28437D01*
X20506Y27388D01*
X20478Y27345D01*
X20467Y27295D01*
Y25252D01*
X20228Y25012D01*
X20210Y25016D01*
X20130Y25000D01*
X20062Y24955D01*
X20017Y24887D01*
X20001Y24807D01*
X20017Y24727D01*
X20062Y24659D01*
X20130Y24614D01*
X20210Y24598D01*
X20290Y24614D01*
X20358Y24659D01*
X20403Y24727D01*
X20419Y24807D01*
X20415Y24825D01*
X20694Y25103D01*
X20722Y25146D01*
X20733Y25197D01*
Y27240D01*
X20815Y27323D01*
X20865Y27318D01*
X20882Y27292D01*
X20950Y27247D01*
X21030Y27231D01*
X21110Y27247D01*
X21178Y27292D01*
X21188Y27307D01*
X21880D01*
X21931Y27318D01*
X21974Y27346D01*
X22232Y27605D01*
X22250Y27601D01*
X22330Y27617D01*
X22398Y27662D01*
X22443Y27730D01*
X22459Y27810D01*
X22443Y27890D01*
X22398Y27958D01*
X22330Y28003D01*
X22250Y28019D01*
X22170Y28003D01*
X22102Y27958D01*
X22057Y27890D01*
X22041Y27810D01*
X22045Y27792D01*
X21825Y27573D01*
X21188D01*
X21178Y27588D01*
X21152Y27605D01*
X21147Y27655D01*
X21742Y28249D01*
X21760Y28246D01*
X21840Y28262D01*
X21908Y28307D01*
X21953Y28375D01*
X21969Y28455D01*
X21953Y28535D01*
X21908Y28603D01*
X21840Y28648D01*
X21760Y28664D01*
D02*
G37*
G36*
X28650Y28204D02*
Y28055D01*
X28799D01*
X28793Y28085D01*
X28748Y28153D01*
X28680Y28198D01*
X28650Y28204D01*
D02*
G37*
G36*
X28550D02*
X28520Y28198D01*
X28452Y28153D01*
X28407Y28085D01*
X28401Y28055D01*
X28550D01*
Y28204D01*
D02*
G37*
G36*
X28799Y27955D02*
X28650D01*
Y27806D01*
X28680Y27812D01*
X28748Y27857D01*
X28793Y27925D01*
X28799Y27955D01*
D02*
G37*
G36*
X28550D02*
X28401D01*
X28407Y27925D01*
X28452Y27857D01*
X28520Y27812D01*
X28550Y27806D01*
Y27955D01*
D02*
G37*
G36*
X28166Y27154D02*
Y27005D01*
X28315D01*
X28309Y27035D01*
X28264Y27103D01*
X28196Y27148D01*
X28166Y27154D01*
D02*
G37*
G36*
X28066D02*
X28036Y27148D01*
X27968Y27103D01*
X27923Y27035D01*
X27917Y27005D01*
X28066D01*
Y27154D01*
D02*
G37*
G36*
X28315Y26905D02*
X28166D01*
Y26756D01*
X28196Y26762D01*
X28264Y26807D01*
X28309Y26875D01*
X28315Y26905D01*
D02*
G37*
G36*
X28066D02*
X27917D01*
X27923Y26875D01*
X27968Y26807D01*
X28036Y26762D01*
X28066Y26756D01*
Y26905D01*
D02*
G37*
G36*
X33331Y27423D02*
X33167Y27410D01*
X33007Y27371D01*
X32855Y27308D01*
X32715Y27222D01*
X32590Y27116D01*
X32483Y26990D01*
X32397Y26850D01*
X32334Y26698D01*
X32295Y26538D01*
X32283Y26374D01*
X32295Y26210D01*
X32334Y26051D01*
X32397Y25899D01*
X32483Y25758D01*
X32590Y25633D01*
X32715Y25526D01*
X32855Y25441D01*
X33007Y25378D01*
X33167Y25339D01*
X33331Y25326D01*
X33495Y25339D01*
X33655Y25378D01*
X33807Y25441D01*
X33947Y25526D01*
X34072Y25633D01*
X34179Y25758D01*
X34265Y25899D01*
X34328Y26051D01*
X34366Y26210D01*
X34379Y26374D01*
X34366Y26538D01*
X34328Y26698D01*
X34265Y26850D01*
X34179Y26990D01*
X34072Y27116D01*
X33947Y27222D01*
X33807Y27308D01*
X33655Y27371D01*
X33495Y27410D01*
X33331Y27423D01*
D02*
G37*
G36*
X13750Y25199D02*
Y25050D01*
X13899D01*
X13893Y25080D01*
X13848Y25148D01*
X13780Y25193D01*
X13750Y25199D01*
D02*
G37*
G36*
X13650D02*
X13620Y25193D01*
X13552Y25148D01*
X13507Y25080D01*
X13501Y25050D01*
X13650D01*
Y25199D01*
D02*
G37*
G36*
X13899Y24950D02*
X13750D01*
Y24801D01*
X13780Y24807D01*
X13848Y24852D01*
X13893Y24920D01*
X13899Y24950D01*
D02*
G37*
G36*
X13650D02*
X13501D01*
X13507Y24920D01*
X13552Y24852D01*
X13620Y24807D01*
X13650Y24801D01*
Y24950D01*
D02*
G37*
G36*
X20210Y24516D02*
X20130Y24500D01*
X20062Y24455D01*
X20017Y24387D01*
X20001Y24307D01*
X20017Y24227D01*
X20062Y24159D01*
X20130Y24114D01*
X20210Y24098D01*
X20290Y24114D01*
X20358Y24159D01*
X20403Y24227D01*
X20419Y24307D01*
X20403Y24387D01*
X20358Y24455D01*
X20290Y24500D01*
X20210Y24516D01*
D02*
G37*
G36*
Y24016D02*
X20130Y24000D01*
X20062Y23955D01*
X20017Y23887D01*
X20001Y23807D01*
X20017Y23727D01*
X20062Y23659D01*
X20130Y23614D01*
X20210Y23598D01*
X20238Y23603D01*
X20246Y23598D01*
X20297Y23587D01*
X22832D01*
X22842Y23572D01*
X22910Y23527D01*
X22990Y23511D01*
X23070Y23527D01*
X23138Y23572D01*
X23183Y23640D01*
X23199Y23720D01*
X23183Y23800D01*
X23138Y23868D01*
X23070Y23913D01*
X22990Y23929D01*
X22910Y23913D01*
X22842Y23868D01*
X22832Y23853D01*
X20410D01*
X20403Y23887D01*
X20358Y23955D01*
X20290Y24000D01*
X20210Y24016D01*
D02*
G37*
G36*
X15070Y23049D02*
X14990Y23033D01*
X14922Y22988D01*
X14877Y22920D01*
X14861Y22840D01*
X14877Y22760D01*
X14922Y22692D01*
X14990Y22647D01*
X15070Y22631D01*
X15150Y22647D01*
X15218Y22692D01*
X15228Y22707D01*
X20030D01*
X20062Y22659D01*
X20130Y22614D01*
X20210Y22598D01*
X20290Y22614D01*
X20358Y22659D01*
X20403Y22727D01*
X20419Y22807D01*
X20403Y22887D01*
X20358Y22954D01*
X20290Y23000D01*
X20210Y23016D01*
X20130Y23000D01*
X20089Y22973D01*
X15228D01*
X15218Y22988D01*
X15150Y23033D01*
X15070Y23049D01*
D02*
G37*
G36*
X33381Y22801D02*
Y22280D01*
X33902D01*
X33888Y22380D01*
X33831Y22519D01*
X33739Y22639D01*
X33619Y22730D01*
X33480Y22788D01*
X33381Y22801D01*
D02*
G37*
G36*
X33281Y22801D02*
X33181Y22788D01*
X33042Y22730D01*
X32922Y22639D01*
X32831Y22519D01*
X32773Y22380D01*
X32760Y22280D01*
X33281D01*
Y22801D01*
D02*
G37*
G36*
X33902Y22180D02*
X33381D01*
Y21660D01*
X33480Y21673D01*
X33619Y21730D01*
X33739Y21822D01*
X33831Y21942D01*
X33888Y22081D01*
X33902Y22180D01*
D02*
G37*
G36*
X33281D02*
X32760D01*
X32773Y22081D01*
X32831Y21942D01*
X32922Y21822D01*
X33042Y21730D01*
X33181Y21673D01*
X33281Y21660D01*
Y22180D01*
D02*
G37*
G36*
X14320Y21509D02*
Y21360D01*
X14469D01*
X14463Y21390D01*
X14418Y21458D01*
X14350Y21503D01*
X14320Y21509D01*
D02*
G37*
G36*
X14220D02*
X14190Y21503D01*
X14122Y21458D01*
X14077Y21390D01*
X14071Y21360D01*
X14220D01*
Y21509D01*
D02*
G37*
G36*
X14469Y21260D02*
X14320D01*
Y21111D01*
X14350Y21117D01*
X14418Y21162D01*
X14463Y21230D01*
X14469Y21260D01*
D02*
G37*
G36*
X14220D02*
X14071D01*
X14077Y21230D01*
X14122Y21162D01*
X14190Y21117D01*
X14220Y21111D01*
Y21260D01*
D02*
G37*
G36*
X23350Y21016D02*
X23270Y21000D01*
X23210Y20960D01*
X21340D01*
X21280Y21000D01*
X21200Y21016D01*
X21120Y21000D01*
X21052Y20954D01*
X21007Y20887D01*
X20991Y20807D01*
X21007Y20727D01*
X21052Y20659D01*
X21120Y20614D01*
X21200Y20598D01*
X21280Y20614D01*
X21340Y20654D01*
X23210D01*
X23270Y20614D01*
X23350Y20598D01*
X23430Y20614D01*
X23498Y20659D01*
X23543Y20727D01*
X23559Y20807D01*
X23543Y20887D01*
X23498Y20954D01*
X23430Y21000D01*
X23350Y21016D01*
D02*
G37*
G36*
X8940Y20859D02*
X8914Y20854D01*
X8136D01*
X8110Y20859D01*
X8030Y20843D01*
X7962Y20798D01*
X7917Y20730D01*
X7901Y20650D01*
X7917Y20570D01*
X7962Y20502D01*
X8030Y20457D01*
X8110Y20441D01*
X8136Y20446D01*
X8914D01*
X8940Y20441D01*
X9020Y20457D01*
X9088Y20502D01*
X9133Y20570D01*
X9149Y20650D01*
X9133Y20730D01*
X9088Y20798D01*
X9020Y20843D01*
X8940Y20859D01*
D02*
G37*
G36*
X20293Y20506D02*
Y20357D01*
X20442D01*
X20436Y20387D01*
X20391Y20454D01*
X20323Y20500D01*
X20293Y20506D01*
D02*
G37*
G36*
X20193D02*
X20163Y20500D01*
X20096Y20454D01*
X20050Y20387D01*
X20044Y20357D01*
X20193D01*
Y20506D01*
D02*
G37*
G36*
X20442Y20257D02*
X20293D01*
Y20108D01*
X20323Y20114D01*
X20391Y20159D01*
X20436Y20227D01*
X20442Y20257D01*
D02*
G37*
G36*
X20193D02*
X20044D01*
X20050Y20227D01*
X20096Y20159D01*
X20163Y20114D01*
X20193Y20108D01*
Y20257D01*
D02*
G37*
G36*
X20293Y20006D02*
Y19857D01*
X20442D01*
X20436Y19887D01*
X20391Y19955D01*
X20323Y20000D01*
X20293Y20006D01*
D02*
G37*
G36*
X20193D02*
X20163Y20000D01*
X20096Y19955D01*
X20050Y19887D01*
X20044Y19857D01*
X20193D01*
Y20006D01*
D02*
G37*
G36*
X20442Y19757D02*
X20293D01*
Y19608D01*
X20323Y19614D01*
X20391Y19659D01*
X20436Y19727D01*
X20442Y19757D01*
D02*
G37*
G36*
X20193D02*
X20044D01*
X20050Y19727D01*
X20096Y19659D01*
X20163Y19614D01*
X20193Y19608D01*
Y19757D01*
D02*
G37*
G36*
X20293Y19506D02*
Y19357D01*
X20442D01*
X20436Y19387D01*
X20391Y19454D01*
X20323Y19500D01*
X20293Y19506D01*
D02*
G37*
G36*
X20193D02*
X20163Y19500D01*
X20096Y19454D01*
X20050Y19387D01*
X20044Y19357D01*
X20193D01*
Y19506D01*
D02*
G37*
G36*
X20442Y19257D02*
X20293D01*
Y19108D01*
X20323Y19114D01*
X20391Y19159D01*
X20436Y19227D01*
X20442Y19257D01*
D02*
G37*
G36*
X20193D02*
X20044D01*
X20050Y19227D01*
X20096Y19159D01*
X20163Y19114D01*
X20193Y19108D01*
Y19257D01*
D02*
G37*
G36*
X18940Y18679D02*
X18860Y18663D01*
X18792Y18618D01*
X18762Y18573D01*
X14548D01*
X14538Y18588D01*
X14470Y18633D01*
X14390Y18649D01*
X14310Y18633D01*
X14242Y18588D01*
X14197Y18520D01*
X14181Y18440D01*
X14197Y18360D01*
X14242Y18292D01*
X14310Y18247D01*
X14390Y18231D01*
X14470Y18247D01*
X14538Y18292D01*
X14548Y18307D01*
X18814D01*
X18860Y18277D01*
X18940Y18261D01*
X19020Y18277D01*
X19088Y18322D01*
X19133Y18390D01*
X19149Y18470D01*
X19133Y18550D01*
X19088Y18618D01*
X19020Y18663D01*
X18940Y18679D01*
D02*
G37*
G36*
X13750Y17299D02*
Y17150D01*
X13899D01*
X13893Y17180D01*
X13848Y17248D01*
X13780Y17293D01*
X13750Y17299D01*
D02*
G37*
G36*
X13650D02*
X13620Y17293D01*
X13552Y17248D01*
X13507Y17180D01*
X13501Y17150D01*
X13650D01*
Y17299D01*
D02*
G37*
G36*
X13899Y17050D02*
X13750D01*
Y16901D01*
X13780Y16907D01*
X13848Y16952D01*
X13893Y17020D01*
X13899Y17050D01*
D02*
G37*
G36*
X13650D02*
X13501D01*
X13507Y17020D01*
X13552Y16952D01*
X13620Y16907D01*
X13650Y16901D01*
Y17050D01*
D02*
G37*
G36*
X12800Y16223D02*
Y16074D01*
X12949D01*
X12943Y16104D01*
X12898Y16172D01*
X12830Y16217D01*
X12800Y16223D01*
D02*
G37*
G36*
X12700D02*
X12670Y16217D01*
X12602Y16172D01*
X12557Y16104D01*
X12551Y16074D01*
X12700D01*
Y16223D01*
D02*
G37*
G36*
X12949Y15974D02*
X12800D01*
Y15825D01*
X12830Y15831D01*
X12898Y15876D01*
X12943Y15944D01*
X12949Y15974D01*
D02*
G37*
G36*
X12700D02*
X12551D01*
X12557Y15944D01*
X12602Y15876D01*
X12670Y15831D01*
X12700Y15825D01*
Y15974D01*
D02*
G37*
G36*
X4100Y15475D02*
Y15326D01*
X4249D01*
X4243Y15356D01*
X4198Y15424D01*
X4130Y15469D01*
X4100Y15475D01*
D02*
G37*
G36*
X4000D02*
X3970Y15469D01*
X3902Y15424D01*
X3857Y15356D01*
X3851Y15326D01*
X4000D01*
Y15475D01*
D02*
G37*
G36*
X4249Y15226D02*
X4100D01*
Y15077D01*
X4130Y15083D01*
X4198Y15128D01*
X4243Y15196D01*
X4249Y15226D01*
D02*
G37*
G36*
X4000D02*
X3851D01*
X3857Y15196D01*
X3902Y15128D01*
X3970Y15083D01*
X4000Y15077D01*
Y15226D01*
D02*
G37*
G36*
X27898Y13871D02*
Y13722D01*
X28047D01*
X28041Y13752D01*
X27996Y13820D01*
X27928Y13865D01*
X27898Y13871D01*
D02*
G37*
G36*
X27798D02*
X27768Y13865D01*
X27700Y13820D01*
X27655Y13752D01*
X27649Y13722D01*
X27798D01*
Y13871D01*
D02*
G37*
G36*
X18960Y13869D02*
Y13720D01*
X19109D01*
X19103Y13750D01*
X19058Y13818D01*
X18990Y13863D01*
X18960Y13869D01*
D02*
G37*
G36*
X18860D02*
X18830Y13863D01*
X18762Y13818D01*
X18717Y13750D01*
X18711Y13720D01*
X18860D01*
Y13869D01*
D02*
G37*
G36*
X28047Y13622D02*
X27898D01*
Y13473D01*
X27928Y13479D01*
X27996Y13524D01*
X28041Y13592D01*
X28047Y13622D01*
D02*
G37*
G36*
X27798D02*
X27649D01*
X27655Y13592D01*
X27700Y13524D01*
X27768Y13479D01*
X27798Y13473D01*
Y13622D01*
D02*
G37*
G36*
X19109Y13620D02*
X18960D01*
Y13471D01*
X18990Y13477D01*
X19058Y13522D01*
X19103Y13590D01*
X19109Y13620D01*
D02*
G37*
G36*
X18860D02*
X18711D01*
X18717Y13590D01*
X18762Y13522D01*
X18830Y13477D01*
X18860Y13471D01*
Y13620D01*
D02*
G37*
G36*
X32930Y13479D02*
Y13330D01*
X33079D01*
X33073Y13360D01*
X33028Y13428D01*
X32960Y13473D01*
X32930Y13479D01*
D02*
G37*
G36*
X32830D02*
X32800Y13473D01*
X32732Y13428D01*
X32687Y13360D01*
X32681Y13330D01*
X32830D01*
Y13479D01*
D02*
G37*
G36*
X33079Y13230D02*
X32930D01*
Y13081D01*
X32960Y13087D01*
X33028Y13132D01*
X33073Y13200D01*
X33079Y13230D01*
D02*
G37*
G36*
X32830D02*
X32681D01*
X32687Y13200D01*
X32732Y13132D01*
X32800Y13087D01*
X32830Y13081D01*
Y13230D01*
D02*
G37*
G36*
X20735Y13129D02*
X20655Y13113D01*
X20595Y13073D01*
X20030D01*
X19970Y13113D01*
X19890Y13129D01*
X19810Y13113D01*
X19742Y13068D01*
X19697Y13000D01*
X19681Y12920D01*
X19697Y12840D01*
X19742Y12772D01*
X19810Y12727D01*
X19890Y12711D01*
X19970Y12727D01*
X20030Y12767D01*
X20595D01*
X20655Y12727D01*
X20735Y12711D01*
X20815Y12727D01*
X20883Y12772D01*
X20928Y12840D01*
X20944Y12920D01*
X20928Y13000D01*
X20883Y13068D01*
X20815Y13113D01*
X20735Y13129D01*
D02*
G37*
G36*
X18543Y13042D02*
Y12893D01*
X18692D01*
X18686Y12923D01*
X18641Y12991D01*
X18573Y13036D01*
X18543Y13042D01*
D02*
G37*
G36*
X18443D02*
X18413Y13036D01*
X18345Y12991D01*
X18300Y12923D01*
X18294Y12893D01*
X18443D01*
Y13042D01*
D02*
G37*
G36*
X35585Y13673D02*
X35481Y13660D01*
X35384Y13619D01*
X35300Y13555D01*
X35236Y13472D01*
X35196Y13374D01*
X35182Y13270D01*
X35196Y13166D01*
X35236Y13068D01*
X35300Y12985D01*
X35384Y12921D01*
X35481Y12880D01*
X35585Y12867D01*
X35690Y12880D01*
X35787Y12921D01*
X35871Y12985D01*
X35935Y13068D01*
X35975Y13166D01*
X35989Y13270D01*
X35975Y13374D01*
X35935Y13472D01*
X35871Y13555D01*
X35787Y13619D01*
X35690Y13660D01*
X35585Y13673D01*
D02*
G37*
G36*
X34585D02*
X34481Y13660D01*
X34384Y13619D01*
X34300Y13555D01*
X34236Y13472D01*
X34196Y13374D01*
X34182Y13270D01*
X34196Y13166D01*
X34236Y13068D01*
X34300Y12985D01*
X34384Y12921D01*
X34481Y12880D01*
X34585Y12867D01*
X34690Y12880D01*
X34787Y12921D01*
X34871Y12985D01*
X34935Y13068D01*
X34975Y13166D01*
X34989Y13270D01*
X34975Y13374D01*
X34935Y13472D01*
X34871Y13555D01*
X34787Y13619D01*
X34690Y13660D01*
X34585Y13673D01*
D02*
G37*
G36*
X37545Y13615D02*
X36755D01*
Y12825D01*
X37545D01*
Y13615D01*
D02*
G37*
G36*
X38150Y13619D02*
X38047Y13605D01*
X37951Y13565D01*
X37868Y13502D01*
X37805Y13419D01*
X37765Y13323D01*
X37751Y13220D01*
X37765Y13117D01*
X37805Y13021D01*
X37868Y12938D01*
X37951Y12875D01*
X38047Y12835D01*
X38150Y12821D01*
X38253Y12835D01*
X38349Y12875D01*
X38432Y12938D01*
X38495Y13021D01*
X38535Y13117D01*
X38549Y13220D01*
X38535Y13323D01*
X38495Y13419D01*
X38432Y13502D01*
X38349Y13565D01*
X38253Y13605D01*
X38150Y13619D01*
D02*
G37*
G36*
X18692Y12793D02*
X18543D01*
Y12644D01*
X18573Y12650D01*
X18641Y12695D01*
X18686Y12763D01*
X18692Y12793D01*
D02*
G37*
G36*
X18443D02*
X18294D01*
X18300Y12763D01*
X18345Y12695D01*
X18413Y12650D01*
X18443Y12644D01*
Y12793D01*
D02*
G37*
G36*
X19906Y12343D02*
Y12194D01*
X20055D01*
X20049Y12224D01*
X20004Y12292D01*
X19936Y12337D01*
X19906Y12343D01*
D02*
G37*
G36*
X19806D02*
X19776Y12337D01*
X19708Y12292D01*
X19663Y12224D01*
X19657Y12194D01*
X19806D01*
Y12343D01*
D02*
G37*
G36*
X16700Y12339D02*
Y12190D01*
X16849D01*
X16843Y12220D01*
X16798Y12288D01*
X16730Y12333D01*
X16700Y12339D01*
D02*
G37*
G36*
X27690Y12099D02*
Y11950D01*
X27839D01*
X27833Y11980D01*
X27788Y12048D01*
X27720Y12093D01*
X27690Y12099D01*
D02*
G37*
G36*
X27590D02*
X27560Y12093D01*
X27492Y12048D01*
X27447Y11980D01*
X27441Y11950D01*
X27590D01*
Y12099D01*
D02*
G37*
G36*
X24110D02*
Y11950D01*
X24259D01*
X24253Y11980D01*
X24208Y12048D01*
X24140Y12093D01*
X24110Y12099D01*
D02*
G37*
G36*
X24010D02*
X23980Y12093D01*
X23912Y12048D01*
X23867Y11980D01*
X23861Y11950D01*
X24010D01*
Y12099D01*
D02*
G37*
G36*
X16849Y12090D02*
X16700D01*
Y11941D01*
X16730Y11947D01*
X16798Y11992D01*
X16843Y12060D01*
X16849Y12090D01*
D02*
G37*
G36*
X16300Y12539D02*
X16220Y12523D01*
X16152Y12478D01*
X16107Y12410D01*
X16091Y12330D01*
X16107Y12250D01*
X16152Y12182D01*
X16167Y12172D01*
Y10930D01*
X16178Y10879D01*
X16206Y10836D01*
X16496Y10546D01*
X16539Y10518D01*
X16590Y10507D01*
X18062D01*
X18072Y10492D01*
X18140Y10447D01*
X18220Y10431D01*
X18300Y10447D01*
X18368Y10492D01*
X18413Y10560D01*
X18429Y10640D01*
X18413Y10720D01*
X18368Y10788D01*
X18300Y10833D01*
X18220Y10849D01*
X18140Y10833D01*
X18072Y10788D01*
X18062Y10773D01*
X16645D01*
X16433Y10985D01*
Y12006D01*
X16483Y12022D01*
X16502Y11992D01*
X16570Y11947D01*
X16600Y11941D01*
Y12140D01*
Y12339D01*
X16570Y12333D01*
X16557Y12325D01*
X16550Y12325D01*
X16505Y12350D01*
X16493Y12410D01*
X16448Y12478D01*
X16380Y12523D01*
X16300Y12539D01*
D02*
G37*
G36*
X36350Y14419D02*
X36270Y14403D01*
X36202Y14358D01*
X36157Y14290D01*
X36141Y14210D01*
X36157Y14130D01*
X36202Y14062D01*
X36217Y14052D01*
Y12005D01*
X36097Y11885D01*
X35823D01*
X35806Y11935D01*
X35871Y11985D01*
X35935Y12068D01*
X35975Y12166D01*
X35989Y12270D01*
X35975Y12374D01*
X35935Y12472D01*
X35871Y12555D01*
X35787Y12619D01*
X35690Y12660D01*
X35585Y12673D01*
X35481Y12660D01*
X35384Y12619D01*
X35300Y12555D01*
X35236Y12472D01*
X35196Y12374D01*
X35182Y12270D01*
X35196Y12166D01*
X35236Y12068D01*
X35300Y11985D01*
X35365Y11935D01*
X35348Y11885D01*
X34823D01*
X34806Y11935D01*
X34871Y11985D01*
X34935Y12068D01*
X34975Y12166D01*
X34989Y12270D01*
X34975Y12374D01*
X34935Y12472D01*
X34871Y12555D01*
X34787Y12619D01*
X34690Y12660D01*
X34585Y12673D01*
X34481Y12660D01*
X34384Y12619D01*
X34300Y12555D01*
X34236Y12472D01*
X34196Y12374D01*
X34182Y12270D01*
X34196Y12166D01*
X34236Y12068D01*
X34300Y11985D01*
X34365Y11935D01*
X34348Y11885D01*
X32803D01*
X32218Y12469D01*
X32175Y12498D01*
X32124Y12508D01*
X31394D01*
X31384Y12523D01*
X31316Y12569D01*
X31236Y12585D01*
X31156Y12569D01*
X31088Y12523D01*
X31043Y12456D01*
X31027Y12376D01*
X31043Y12296D01*
X31088Y12228D01*
X31156Y12183D01*
X31236Y12167D01*
X31316Y12183D01*
X31384Y12228D01*
X31394Y12243D01*
X32069D01*
X32654Y11658D01*
X32697Y11630D01*
X32748Y11620D01*
X34302D01*
X34319Y11570D01*
X34300Y11555D01*
X34236Y11472D01*
X34196Y11374D01*
X34182Y11270D01*
X34196Y11166D01*
X34236Y11068D01*
X34300Y10985D01*
X34384Y10921D01*
X34481Y10880D01*
X34585Y10867D01*
X34690Y10880D01*
X34787Y10921D01*
X34871Y10985D01*
X34935Y11068D01*
X34975Y11166D01*
X34989Y11270D01*
X34975Y11374D01*
X34935Y11472D01*
X34871Y11555D01*
X34852Y11570D01*
X34869Y11620D01*
X35302D01*
X35319Y11570D01*
X35300Y11555D01*
X35236Y11472D01*
X35196Y11374D01*
X35189Y11320D01*
X35585D01*
X35982D01*
X35975Y11374D01*
X35935Y11472D01*
X35871Y11555D01*
X35852Y11570D01*
X35869Y11620D01*
X36152D01*
X36203Y11630D01*
X36246Y11658D01*
X36444Y11856D01*
X36472Y11899D01*
X36483Y11950D01*
Y14052D01*
X36498Y14062D01*
X36543Y14130D01*
X36559Y14210D01*
X36543Y14290D01*
X36498Y14358D01*
X36430Y14403D01*
X36350Y14419D01*
D02*
G37*
G36*
X38150Y12619D02*
X38047Y12605D01*
X37951Y12565D01*
X37868Y12502D01*
X37805Y12419D01*
X37765Y12323D01*
X37751Y12220D01*
X37765Y12117D01*
X37805Y12021D01*
X37868Y11938D01*
X37951Y11875D01*
X38047Y11835D01*
X38150Y11821D01*
X38253Y11835D01*
X38349Y11875D01*
X38432Y11938D01*
X38495Y12021D01*
X38535Y12117D01*
X38549Y12220D01*
X38535Y12323D01*
X38495Y12419D01*
X38432Y12502D01*
X38349Y12565D01*
X38253Y12605D01*
X38150Y12619D01*
D02*
G37*
G36*
X37150D02*
X37047Y12605D01*
X36951Y12565D01*
X36868Y12502D01*
X36805Y12419D01*
X36765Y12323D01*
X36751Y12220D01*
X36765Y12117D01*
X36805Y12021D01*
X36868Y11938D01*
X36951Y11875D01*
X37047Y11835D01*
X37150Y11821D01*
X37253Y11835D01*
X37349Y11875D01*
X37432Y11938D01*
X37495Y12021D01*
X37535Y12117D01*
X37549Y12220D01*
X37535Y12323D01*
X37495Y12419D01*
X37432Y12502D01*
X37349Y12565D01*
X37253Y12605D01*
X37150Y12619D01*
D02*
G37*
G36*
X20055Y12094D02*
X19657D01*
X19663Y12064D01*
X19708Y11996D01*
X19755Y11965D01*
X19757Y11907D01*
X19712Y11878D01*
X19667Y11810D01*
X19661Y11780D01*
X20059D01*
X20053Y11810D01*
X20008Y11878D01*
X19962Y11909D01*
X19960Y11966D01*
X20004Y11996D01*
X20049Y12064D01*
X20055Y12094D01*
D02*
G37*
G36*
X27839Y11850D02*
X27690D01*
Y11701D01*
X27720Y11707D01*
X27788Y11752D01*
X27833Y11820D01*
X27839Y11850D01*
D02*
G37*
G36*
X27590D02*
X27441D01*
X27447Y11820D01*
X27492Y11752D01*
X27560Y11707D01*
X27590Y11701D01*
Y11850D01*
D02*
G37*
G36*
X24259D02*
X24110D01*
Y11701D01*
X24140Y11707D01*
X24208Y11752D01*
X24253Y11820D01*
X24259Y11850D01*
D02*
G37*
G36*
X24010D02*
X23861D01*
X23867Y11820D01*
X23912Y11752D01*
X23980Y11707D01*
X24010Y11701D01*
Y11850D01*
D02*
G37*
G36*
X20059Y11680D02*
X19910D01*
Y11531D01*
X19940Y11537D01*
X20008Y11582D01*
X20053Y11650D01*
X20059Y11680D01*
D02*
G37*
G36*
X19810D02*
X19661D01*
X19667Y11650D01*
X19712Y11582D01*
X19780Y11537D01*
X19810Y11531D01*
Y11680D01*
D02*
G37*
G36*
X17633Y11762D02*
X17553Y11746D01*
X17485Y11701D01*
X17440Y11633D01*
X17424Y11553D01*
X17440Y11473D01*
X17485Y11405D01*
X17553Y11360D01*
X17633Y11344D01*
X17713Y11360D01*
X17781Y11405D01*
X17826Y11473D01*
X17842Y11553D01*
X17826Y11633D01*
X17781Y11701D01*
X17713Y11746D01*
X17633Y11762D01*
D02*
G37*
G36*
X38200Y11612D02*
Y11270D01*
X38542D01*
X38535Y11323D01*
X38495Y11419D01*
X38432Y11502D01*
X38349Y11565D01*
X38253Y11605D01*
X38200Y11612D01*
D02*
G37*
G36*
X38100D02*
X38047Y11605D01*
X37951Y11565D01*
X37868Y11502D01*
X37805Y11419D01*
X37765Y11323D01*
X37758Y11270D01*
X38100D01*
Y11612D01*
D02*
G37*
G36*
X20140Y11039D02*
X20060Y11023D01*
X19992Y10978D01*
X19969Y10943D01*
X18848D01*
X18838Y10958D01*
X18770Y11003D01*
X18690Y11019D01*
X18610Y11003D01*
X18542Y10958D01*
X18497Y10890D01*
X18481Y10810D01*
X18497Y10730D01*
X18542Y10662D01*
X18610Y10617D01*
X18690Y10601D01*
X18770Y10617D01*
X18838Y10662D01*
X18848Y10677D01*
X19999D01*
X20060Y10637D01*
X20140Y10621D01*
X20220Y10637D01*
X20288Y10682D01*
X20333Y10750D01*
X20349Y10830D01*
X20333Y10910D01*
X20288Y10978D01*
X20220Y11023D01*
X20140Y11039D01*
D02*
G37*
G36*
X35982Y11220D02*
X35635D01*
Y10873D01*
X35690Y10880D01*
X35787Y10921D01*
X35871Y10985D01*
X35935Y11068D01*
X35975Y11166D01*
X35982Y11220D01*
D02*
G37*
G36*
X35535D02*
X35189D01*
X35196Y11166D01*
X35236Y11068D01*
X35300Y10985D01*
X35384Y10921D01*
X35481Y10880D01*
X35535Y10873D01*
Y11220D01*
D02*
G37*
G36*
X38542Y11170D02*
X38200D01*
Y10828D01*
X38253Y10835D01*
X38349Y10875D01*
X38432Y10938D01*
X38495Y11021D01*
X38535Y11117D01*
X38542Y11170D01*
D02*
G37*
G36*
X38100D02*
X37758D01*
X37765Y11117D01*
X37805Y11021D01*
X37868Y10938D01*
X37951Y10875D01*
X38047Y10835D01*
X38100Y10828D01*
Y11170D01*
D02*
G37*
G36*
X37150Y11619D02*
X37047Y11605D01*
X36951Y11565D01*
X36868Y11502D01*
X36805Y11419D01*
X36765Y11323D01*
X36751Y11220D01*
X36765Y11117D01*
X36805Y11021D01*
X36868Y10938D01*
X36951Y10875D01*
X37047Y10835D01*
X37150Y10821D01*
X37253Y10835D01*
X37349Y10875D01*
X37432Y10938D01*
X37495Y11021D01*
X37535Y11117D01*
X37549Y11220D01*
X37535Y11323D01*
X37495Y11419D01*
X37432Y11502D01*
X37349Y11565D01*
X37253Y11605D01*
X37150Y11619D01*
D02*
G37*
G36*
X32910Y10859D02*
X32830Y10843D01*
X32762Y10798D01*
X32752Y10783D01*
X31541D01*
X31541Y10783D01*
X31491Y10772D01*
X31448Y10744D01*
X30545Y9842D01*
X30527Y9845D01*
X30447Y9829D01*
X30380Y9784D01*
X30334Y9716D01*
X30318Y9636D01*
X30334Y9556D01*
X30380Y9488D01*
X30447Y9443D01*
X30527Y9427D01*
X30607Y9443D01*
X30675Y9488D01*
X30721Y9556D01*
X30736Y9636D01*
X30733Y9654D01*
X31596Y10517D01*
X32752D01*
X32762Y10502D01*
X32830Y10457D01*
X32910Y10441D01*
X32990Y10457D01*
X33058Y10502D01*
X33103Y10570D01*
X33119Y10650D01*
X33103Y10730D01*
X33058Y10798D01*
X32990Y10843D01*
X32910Y10859D01*
D02*
G37*
G36*
X29717Y9495D02*
Y9346D01*
X29867D01*
X29861Y9376D01*
X29815Y9444D01*
X29747Y9489D01*
X29717Y9495D01*
D02*
G37*
G36*
X29617D02*
X29587Y9489D01*
X29520Y9444D01*
X29474Y9376D01*
X29468Y9346D01*
X29617D01*
Y9495D01*
D02*
G37*
G36*
X29867Y9246D02*
X29717D01*
Y9097D01*
X29747Y9103D01*
X29815Y9148D01*
X29861Y9216D01*
X29867Y9246D01*
D02*
G37*
G36*
X29617D02*
X29468D01*
X29474Y9216D01*
X29520Y9148D01*
X29587Y9103D01*
X29617Y9097D01*
Y9246D01*
D02*
G37*
G36*
X28250Y8539D02*
X28170Y8523D01*
X28102Y8478D01*
X28079Y8443D01*
X14178D01*
X14168Y8458D01*
X14100Y8503D01*
X14020Y8519D01*
X13940Y8503D01*
X13872Y8458D01*
X13827Y8390D01*
X13811Y8310D01*
X13827Y8230D01*
X13872Y8162D01*
X13940Y8117D01*
X14020Y8101D01*
X14100Y8117D01*
X14168Y8162D01*
X14178Y8177D01*
X28109D01*
X28170Y8137D01*
X28250Y8121D01*
X28330Y8137D01*
X28398Y8182D01*
X28443Y8250D01*
X28459Y8330D01*
X28443Y8410D01*
X28398Y8478D01*
X28330Y8523D01*
X28250Y8539D01*
D02*
G37*
G36*
X36640Y8772D02*
Y8390D01*
X37022D01*
X37013Y8453D01*
X36970Y8559D01*
X36900Y8650D01*
X36809Y8720D01*
X36703Y8763D01*
X36640Y8772D01*
D02*
G37*
G36*
X36540D02*
X36477Y8763D01*
X36371Y8720D01*
X36280Y8650D01*
X36210Y8559D01*
X36167Y8453D01*
X36158Y8390D01*
X36540D01*
Y8772D01*
D02*
G37*
G36*
X8520Y8397D02*
Y8090D01*
X8827D01*
X8821Y8134D01*
X8784Y8222D01*
X8727Y8297D01*
X8652Y8354D01*
X8564Y8391D01*
X8520Y8397D01*
D02*
G37*
G36*
X8420D02*
X8376Y8391D01*
X8288Y8354D01*
X8213Y8297D01*
X8156Y8222D01*
X8119Y8134D01*
X8113Y8090D01*
X8420D01*
Y8397D01*
D02*
G37*
G36*
X37022Y8290D02*
X36640D01*
Y7908D01*
X36703Y7917D01*
X36809Y7960D01*
X36900Y8030D01*
X36970Y8121D01*
X37013Y8227D01*
X37022Y8290D01*
D02*
G37*
G36*
X36540D02*
X36158D01*
X36167Y8227D01*
X36210Y8121D01*
X36280Y8030D01*
X36371Y7960D01*
X36477Y7917D01*
X36540Y7908D01*
Y8290D01*
D02*
G37*
G36*
X8827Y7990D02*
X8520D01*
Y7683D01*
X8564Y7689D01*
X8652Y7726D01*
X8727Y7783D01*
X8784Y7858D01*
X8821Y7946D01*
X8827Y7990D01*
D02*
G37*
G36*
X8420D02*
X8113D01*
X8119Y7946D01*
X8156Y7858D01*
X8213Y7783D01*
X8288Y7726D01*
X8376Y7689D01*
X8420Y7683D01*
Y7990D01*
D02*
G37*
G36*
X11470Y8403D02*
X11376Y8391D01*
X11288Y8354D01*
X11213Y8297D01*
X11156Y8222D01*
X11119Y8134D01*
X11107Y8040D01*
X11119Y7946D01*
X11156Y7858D01*
X11213Y7783D01*
X11288Y7726D01*
X11376Y7689D01*
X11470Y7677D01*
X11564Y7689D01*
X11652Y7726D01*
X11727Y7783D01*
X11784Y7858D01*
X11821Y7946D01*
X11833Y8040D01*
X11821Y8134D01*
X11784Y8222D01*
X11727Y8297D01*
X11652Y8354D01*
X11564Y8391D01*
X11470Y8403D01*
D02*
G37*
G36*
X10470D02*
X10376Y8391D01*
X10288Y8354D01*
X10213Y8297D01*
X10156Y8222D01*
X10119Y8134D01*
X10107Y8040D01*
X10119Y7946D01*
X10156Y7858D01*
X10213Y7783D01*
X10288Y7726D01*
X10376Y7689D01*
X10470Y7677D01*
X10564Y7689D01*
X10652Y7726D01*
X10727Y7783D01*
X10784Y7858D01*
X10821Y7946D01*
X10833Y8040D01*
X10821Y8134D01*
X10784Y8222D01*
X10727Y8297D01*
X10652Y8354D01*
X10564Y8391D01*
X10470Y8403D01*
D02*
G37*
G36*
X9470D02*
X9376Y8391D01*
X9288Y8354D01*
X9213Y8297D01*
X9156Y8222D01*
X9119Y8134D01*
X9107Y8040D01*
X9119Y7946D01*
X9156Y7858D01*
X9213Y7783D01*
X9288Y7726D01*
X9376Y7689D01*
X9470Y7677D01*
X9564Y7689D01*
X9652Y7726D01*
X9727Y7783D01*
X9784Y7858D01*
X9821Y7946D01*
X9833Y8040D01*
X9821Y8134D01*
X9784Y8222D01*
X9727Y8297D01*
X9652Y8354D01*
X9564Y8391D01*
X9470Y8403D01*
D02*
G37*
G36*
X7470D02*
X7376Y8391D01*
X7288Y8354D01*
X7213Y8297D01*
X7156Y8222D01*
X7119Y8134D01*
X7107Y8040D01*
X7119Y7946D01*
X7156Y7858D01*
X7213Y7783D01*
X7288Y7726D01*
X7376Y7689D01*
X7470Y7677D01*
X7564Y7689D01*
X7652Y7726D01*
X7727Y7783D01*
X7784Y7858D01*
X7821Y7946D01*
X7833Y8040D01*
X7821Y8134D01*
X7784Y8222D01*
X7727Y8297D01*
X7652Y8354D01*
X7564Y8391D01*
X7470Y8403D01*
D02*
G37*
G36*
X6470D02*
X6376Y8391D01*
X6288Y8354D01*
X6213Y8297D01*
X6156Y8222D01*
X6119Y8134D01*
X6107Y8040D01*
X6119Y7946D01*
X6156Y7858D01*
X6213Y7783D01*
X6288Y7726D01*
X6376Y7689D01*
X6470Y7677D01*
X6564Y7689D01*
X6652Y7726D01*
X6727Y7783D01*
X6784Y7858D01*
X6821Y7946D01*
X6833Y8040D01*
X6821Y8134D01*
X6784Y8222D01*
X6727Y8297D01*
X6652Y8354D01*
X6564Y8391D01*
X6470Y8403D01*
D02*
G37*
G36*
X20610Y7459D02*
Y7310D01*
X20759D01*
X20753Y7340D01*
X20708Y7408D01*
X20640Y7453D01*
X20610Y7459D01*
D02*
G37*
G36*
X20510D02*
X20480Y7453D01*
X20412Y7408D01*
X20367Y7340D01*
X20361Y7310D01*
X20510D01*
Y7459D01*
D02*
G37*
G36*
X20759Y7210D02*
X20610D01*
Y7061D01*
X20640Y7067D01*
X20708Y7112D01*
X20753Y7180D01*
X20759Y7210D01*
D02*
G37*
G36*
X20510D02*
X20361D01*
X20367Y7180D01*
X20412Y7112D01*
X20480Y7067D01*
X20510Y7061D01*
Y7210D01*
D02*
G37*
G36*
X21030Y6749D02*
Y6600D01*
X21179D01*
X21173Y6630D01*
X21128Y6698D01*
X21060Y6743D01*
X21030Y6749D01*
D02*
G37*
G36*
X20930D02*
X20900Y6743D01*
X20832Y6698D01*
X20787Y6630D01*
X20781Y6600D01*
X20930D01*
Y6749D01*
D02*
G37*
G36*
X21179Y6500D02*
X21030D01*
Y6351D01*
X21060Y6357D01*
X21128Y6402D01*
X21173Y6470D01*
X21179Y6500D01*
D02*
G37*
G36*
X20930D02*
X20781D01*
X20787Y6470D01*
X20832Y6402D01*
X20900Y6357D01*
X20930Y6351D01*
Y6500D01*
D02*
G37*
G36*
X8522Y6636D02*
Y6330D01*
X8829D01*
X8823Y6374D01*
X8787Y6461D01*
X8729Y6536D01*
X8654Y6594D01*
X8566Y6630D01*
X8522Y6636D01*
D02*
G37*
G36*
X8422D02*
X8378Y6630D01*
X8291Y6594D01*
X8216Y6536D01*
X8158Y6461D01*
X8122Y6374D01*
X8116Y6330D01*
X8422D01*
Y6636D01*
D02*
G37*
G36*
X8829Y6230D02*
X8522D01*
Y5923D01*
X8566Y5929D01*
X8654Y5965D01*
X8729Y6023D01*
X8787Y6098D01*
X8823Y6186D01*
X8829Y6230D01*
D02*
G37*
G36*
X8422D02*
X8116D01*
X8122Y6186D01*
X8158Y6098D01*
X8216Y6023D01*
X8291Y5965D01*
X8378Y5929D01*
X8422Y5923D01*
Y6230D01*
D02*
G37*
G36*
X11472Y6643D02*
X11378Y6630D01*
X11291Y6594D01*
X11216Y6536D01*
X11158Y6461D01*
X11122Y6374D01*
X11109Y6280D01*
X11122Y6186D01*
X11158Y6098D01*
X11216Y6023D01*
X11291Y5965D01*
X11378Y5929D01*
X11472Y5916D01*
X11566Y5929D01*
X11654Y5965D01*
X11729Y6023D01*
X11787Y6098D01*
X11823Y6186D01*
X11836Y6280D01*
X11823Y6374D01*
X11787Y6461D01*
X11729Y6536D01*
X11654Y6594D01*
X11566Y6630D01*
X11472Y6643D01*
D02*
G37*
G36*
X10472D02*
X10378Y6630D01*
X10291Y6594D01*
X10216Y6536D01*
X10158Y6461D01*
X10122Y6374D01*
X10109Y6280D01*
X10122Y6186D01*
X10158Y6098D01*
X10216Y6023D01*
X10291Y5965D01*
X10378Y5929D01*
X10472Y5916D01*
X10566Y5929D01*
X10654Y5965D01*
X10729Y6023D01*
X10787Y6098D01*
X10823Y6186D01*
X10836Y6280D01*
X10823Y6374D01*
X10787Y6461D01*
X10729Y6536D01*
X10654Y6594D01*
X10566Y6630D01*
X10472Y6643D01*
D02*
G37*
G36*
X9472D02*
X9378Y6630D01*
X9291Y6594D01*
X9216Y6536D01*
X9158Y6461D01*
X9122Y6374D01*
X9109Y6280D01*
X9122Y6186D01*
X9158Y6098D01*
X9216Y6023D01*
X9291Y5965D01*
X9378Y5929D01*
X9472Y5916D01*
X9566Y5929D01*
X9654Y5965D01*
X9729Y6023D01*
X9787Y6098D01*
X9823Y6186D01*
X9836Y6280D01*
X9823Y6374D01*
X9787Y6461D01*
X9729Y6536D01*
X9654Y6594D01*
X9566Y6630D01*
X9472Y6643D01*
D02*
G37*
G36*
X7472D02*
X7378Y6630D01*
X7291Y6594D01*
X7216Y6536D01*
X7158Y6461D01*
X7122Y6374D01*
X7109Y6280D01*
X7122Y6186D01*
X7158Y6098D01*
X7216Y6023D01*
X7291Y5965D01*
X7378Y5929D01*
X7472Y5916D01*
X7566Y5929D01*
X7654Y5965D01*
X7729Y6023D01*
X7787Y6098D01*
X7823Y6186D01*
X7836Y6280D01*
X7823Y6374D01*
X7787Y6461D01*
X7729Y6536D01*
X7654Y6594D01*
X7566Y6630D01*
X7472Y6643D01*
D02*
G37*
G36*
X6472D02*
X6378Y6630D01*
X6291Y6594D01*
X6216Y6536D01*
X6158Y6461D01*
X6122Y6374D01*
X6109Y6280D01*
X6122Y6186D01*
X6158Y6098D01*
X6216Y6023D01*
X6291Y5965D01*
X6378Y5929D01*
X6472Y5916D01*
X6566Y5929D01*
X6654Y5965D01*
X6729Y6023D01*
X6787Y6098D01*
X6823Y6186D01*
X6836Y6280D01*
X6823Y6374D01*
X6787Y6461D01*
X6729Y6536D01*
X6654Y6594D01*
X6566Y6630D01*
X6472Y6643D01*
D02*
G37*
G36*
X18980Y6939D02*
X18900Y6923D01*
X18832Y6878D01*
X18787Y6810D01*
X18771Y6730D01*
X18787Y6650D01*
X18832Y6582D01*
X18900Y6537D01*
X18980Y6521D01*
X19006Y6526D01*
X19847Y5685D01*
Y5632D01*
X19797Y5594D01*
X19750Y5604D01*
X19732Y5600D01*
X19528Y5804D01*
X19485Y5832D01*
X19435Y5843D01*
X14178D01*
X14168Y5858D01*
X14100Y5903D01*
X14020Y5919D01*
X13940Y5903D01*
X13872Y5858D01*
X13827Y5790D01*
X13811Y5710D01*
X13827Y5630D01*
X13872Y5562D01*
X13940Y5517D01*
X14020Y5501D01*
X14100Y5517D01*
X14168Y5562D01*
X14178Y5577D01*
X18203D01*
X18240Y5527D01*
X18231Y5480D01*
X18247Y5400D01*
X18292Y5332D01*
X18307Y5322D01*
Y4200D01*
X18318Y4149D01*
X18346Y4106D01*
X18556Y3896D01*
X18599Y3868D01*
X18650Y3857D01*
X19222D01*
X19232Y3842D01*
X19300Y3797D01*
X19380Y3781D01*
X19460Y3797D01*
X19497Y3822D01*
X19547Y3795D01*
Y3348D01*
X19532Y3338D01*
X19487Y3270D01*
X19471Y3190D01*
X19487Y3110D01*
X19532Y3042D01*
X19600Y2997D01*
X19680Y2981D01*
X19760Y2997D01*
X19828Y3042D01*
X19873Y3110D01*
X19889Y3190D01*
X19873Y3270D01*
X19828Y3338D01*
X19813Y3348D01*
Y4905D01*
X20074Y5166D01*
X20102Y5209D01*
X20113Y5260D01*
Y5740D01*
X20102Y5791D01*
X20074Y5834D01*
X19187Y6720D01*
X19189Y6730D01*
X19173Y6810D01*
X19128Y6878D01*
X19060Y6923D01*
X18980Y6939D01*
D02*
G37*
G36*
X23630Y5409D02*
Y5260D01*
X23779D01*
X23773Y5290D01*
X23728Y5358D01*
X23660Y5403D01*
X23630Y5409D01*
D02*
G37*
G36*
X23530D02*
X23500Y5403D01*
X23432Y5358D01*
X23387Y5290D01*
X23381Y5260D01*
X23530D01*
Y5409D01*
D02*
G37*
G36*
X23779Y5160D02*
X23630D01*
Y5011D01*
X23660Y5017D01*
X23728Y5062D01*
X23773Y5130D01*
X23779Y5160D01*
D02*
G37*
G36*
X23530D02*
X23381D01*
X23387Y5130D01*
X23432Y5062D01*
X23500Y5017D01*
X23530Y5011D01*
Y5160D01*
D02*
G37*
G36*
X21245Y5067D02*
X21217Y5061D01*
X21151Y5017D01*
X21107Y4951D01*
X21104Y4938D01*
X21053D01*
X21051Y4951D01*
X21006Y5017D01*
X20940Y5061D01*
X20912Y5067D01*
Y4873D01*
X20862D01*
Y4823D01*
X20668D01*
X20674Y4795D01*
X20718Y4729D01*
X20784Y4685D01*
X20797Y4682D01*
Y4631D01*
X20784Y4628D01*
X20718Y4584D01*
X20674Y4518D01*
X20668Y4490D01*
X20862D01*
Y4440D01*
X20912D01*
Y4246D01*
X20940Y4251D01*
X21006Y4296D01*
X21051Y4362D01*
X21053Y4375D01*
X21104D01*
X21107Y4362D01*
X21151Y4296D01*
X21217Y4251D01*
X21245Y4246D01*
Y4440D01*
X21295D01*
Y4490D01*
X21489D01*
X21484Y4518D01*
X21439Y4584D01*
X21373Y4628D01*
X21360Y4631D01*
Y4682D01*
X21373Y4685D01*
X21439Y4729D01*
X21484Y4795D01*
X21489Y4823D01*
X21295D01*
Y4873D01*
X21245D01*
Y5067D01*
D02*
G37*
G36*
X21345D02*
Y4923D01*
X21489D01*
X21484Y4951D01*
X21439Y5017D01*
X21373Y5061D01*
X21345Y5067D01*
D02*
G37*
G36*
X20812D02*
X20784Y5061D01*
X20718Y5017D01*
X20674Y4951D01*
X20668Y4923D01*
X20812D01*
Y5067D01*
D02*
G37*
G36*
X23495Y4954D02*
Y4805D01*
X23644D01*
X23638Y4835D01*
X23593Y4903D01*
X23525Y4948D01*
X23495Y4954D01*
D02*
G37*
G36*
X23395D02*
X23365Y4948D01*
X23297Y4903D01*
X23252Y4835D01*
X23246Y4805D01*
X23395D01*
Y4954D01*
D02*
G37*
G36*
X23644Y4705D02*
X23495D01*
Y4556D01*
X23525Y4562D01*
X23593Y4607D01*
X23638Y4675D01*
X23644Y4705D01*
D02*
G37*
G36*
X23395D02*
X23246D01*
X23252Y4675D01*
X23297Y4607D01*
X23365Y4562D01*
X23395Y4556D01*
Y4705D01*
D02*
G37*
G36*
X21489Y4390D02*
X21345D01*
Y4246D01*
X21373Y4251D01*
X21439Y4296D01*
X21484Y4362D01*
X21489Y4390D01*
D02*
G37*
G36*
X20812D02*
X20668D01*
X20674Y4362D01*
X20718Y4296D01*
X20784Y4251D01*
X20812Y4246D01*
Y4390D01*
D02*
G37*
G36*
X26420Y3239D02*
Y3090D01*
X26569D01*
X26563Y3120D01*
X26518Y3188D01*
X26450Y3233D01*
X26420Y3239D01*
D02*
G37*
G36*
X26320D02*
X26290Y3233D01*
X26222Y3188D01*
X26177Y3120D01*
X26171Y3090D01*
X26320D01*
Y3239D01*
D02*
G37*
G36*
X26569Y2990D02*
X26420D01*
Y2841D01*
X26450Y2847D01*
X26518Y2892D01*
X26563Y2960D01*
X26569Y2990D01*
D02*
G37*
G36*
X26320D02*
X26171D01*
X26177Y2960D01*
X26222Y2892D01*
X26290Y2847D01*
X26320Y2841D01*
Y2990D01*
D02*
G37*
G36*
X21910Y3579D02*
X21830Y3563D01*
X21762Y3518D01*
X21717Y3450D01*
X21701Y3370D01*
X21717Y3290D01*
X21762Y3222D01*
X21777Y3212D01*
Y2200D01*
X21788Y2149D01*
X21816Y2106D01*
X21926Y1996D01*
X21969Y1968D01*
X22020Y1957D01*
X22922D01*
X22932Y1942D01*
X23000Y1897D01*
X23080Y1881D01*
X23160Y1897D01*
X23228Y1942D01*
X23273Y2010D01*
X23289Y2090D01*
X23273Y2170D01*
X23228Y2238D01*
X23160Y2283D01*
X23080Y2299D01*
X23000Y2283D01*
X22932Y2238D01*
X22922Y2223D01*
X22075D01*
X22043Y2255D01*
Y3212D01*
X22058Y3222D01*
X22103Y3290D01*
X22119Y3370D01*
X22103Y3450D01*
X22058Y3518D01*
X21990Y3563D01*
X21910Y3579D01*
D02*
G37*
G36*
X20670Y1939D02*
Y1790D01*
X20819D01*
X20813Y1820D01*
X20768Y1888D01*
X20700Y1933D01*
X20670Y1939D01*
D02*
G37*
G36*
X20570D02*
X20540Y1933D01*
X20472Y1888D01*
X20427Y1820D01*
X20421Y1790D01*
X20570D01*
Y1939D01*
D02*
G37*
G36*
X20819Y1690D02*
X20670D01*
Y1541D01*
X20700Y1547D01*
X20768Y1592D01*
X20813Y1660D01*
X20819Y1690D01*
D02*
G37*
G36*
X20570D02*
X20421D01*
X20427Y1660D01*
X20472Y1592D01*
X20540Y1547D01*
X20570Y1541D01*
Y1690D01*
D02*
G37*
G36*
X18660Y139D02*
X18580Y123D01*
X18512Y78D01*
X18502Y63D01*
X14808D01*
X14798Y78D01*
X14730Y123D01*
X14650Y139D01*
X14570Y123D01*
X14502Y78D01*
X14457Y10D01*
X14441Y-70D01*
X14457Y-150D01*
X14502Y-218D01*
X14570Y-263D01*
X14650Y-279D01*
X14730Y-263D01*
X14798Y-218D01*
X14808Y-203D01*
X18502D01*
X18512Y-218D01*
X18580Y-263D01*
X18660Y-279D01*
X18740Y-263D01*
X18808Y-218D01*
X18853Y-150D01*
X18869Y-70D01*
X18853Y10D01*
X18808Y78D01*
X18740Y123D01*
X18660Y139D01*
D02*
G37*
G36*
X27550Y-368D02*
Y-740D01*
X27922D01*
X27914Y-679D01*
X27871Y-576D01*
X27803Y-487D01*
X27714Y-419D01*
X27611Y-376D01*
X27550Y-368D01*
D02*
G37*
G36*
X27450D02*
X27389Y-376D01*
X27286Y-419D01*
X27197Y-487D01*
X27129Y-576D01*
X27086Y-679D01*
X27078Y-740D01*
X27450D01*
Y-368D01*
D02*
G37*
G36*
X27922Y-840D02*
X27550D01*
Y-1212D01*
X27611Y-1204D01*
X27714Y-1161D01*
X27803Y-1093D01*
X27871Y-1004D01*
X27914Y-901D01*
X27922Y-840D01*
D02*
G37*
G36*
X27450D02*
X27078D01*
X27086Y-901D01*
X27129Y-1004D01*
X27197Y-1093D01*
X27286Y-1161D01*
X27389Y-1204D01*
X27450Y-1212D01*
Y-840D01*
D02*
G37*
G36*
X28925Y-365D02*
X28075D01*
Y-1215D01*
X28925D01*
Y-365D01*
D02*
G37*
G36*
X21452Y-2006D02*
Y-2312D01*
X21758D01*
X21752Y-2268D01*
X21716Y-2181D01*
X21658Y-2105D01*
X21583Y-2048D01*
X21496Y-2011D01*
X21452Y-2006D01*
D02*
G37*
G36*
X21352D02*
X21308Y-2011D01*
X21220Y-2048D01*
X21145Y-2105D01*
X21087Y-2181D01*
X21051Y-2268D01*
X21045Y-2312D01*
X21352D01*
Y-2006D01*
D02*
G37*
G36*
X21758Y-2412D02*
X21452D01*
Y-2719D01*
X21496Y-2713D01*
X21583Y-2677D01*
X21658Y-2619D01*
X21716Y-2544D01*
X21752Y-2456D01*
X21758Y-2412D01*
D02*
G37*
G36*
X21352D02*
X21045D01*
X21051Y-2456D01*
X21087Y-2544D01*
X21145Y-2619D01*
X21220Y-2677D01*
X21308Y-2713D01*
X21352Y-2719D01*
Y-2412D01*
D02*
G37*
G36*
X20402Y-1999D02*
X20308Y-2011D01*
X20220Y-2048D01*
X20145Y-2105D01*
X20087Y-2181D01*
X20051Y-2268D01*
X20038Y-2362D01*
X20051Y-2456D01*
X20087Y-2544D01*
X20145Y-2619D01*
X20220Y-2677D01*
X20308Y-2713D01*
X20402Y-2725D01*
X20496Y-2713D01*
X20583Y-2677D01*
X20658Y-2619D01*
X20716Y-2544D01*
X20752Y-2456D01*
X20765Y-2362D01*
X20752Y-2268D01*
X20716Y-2181D01*
X20658Y-2105D01*
X20583Y-2048D01*
X20496Y-2011D01*
X20402Y-1999D01*
D02*
G37*
G36*
X19402D02*
X19308Y-2011D01*
X19220Y-2048D01*
X19145Y-2105D01*
X19087Y-2181D01*
X19051Y-2268D01*
X19038Y-2362D01*
X19051Y-2456D01*
X19087Y-2544D01*
X19145Y-2619D01*
X19220Y-2677D01*
X19308Y-2713D01*
X19402Y-2725D01*
X19496Y-2713D01*
X19583Y-2677D01*
X19658Y-2619D01*
X19716Y-2544D01*
X19752Y-2456D01*
X19765Y-2362D01*
X19752Y-2268D01*
X19716Y-2181D01*
X19658Y-2105D01*
X19583Y-2048D01*
X19496Y-2011D01*
X19402Y-1999D01*
D02*
G37*
G36*
X18402D02*
X18308Y-2011D01*
X18220Y-2048D01*
X18145Y-2105D01*
X18087Y-2181D01*
X18051Y-2268D01*
X18038Y-2362D01*
X18051Y-2456D01*
X18087Y-2544D01*
X18145Y-2619D01*
X18220Y-2677D01*
X18308Y-2713D01*
X18402Y-2725D01*
X18496Y-2713D01*
X18583Y-2677D01*
X18658Y-2619D01*
X18716Y-2544D01*
X18752Y-2456D01*
X18765Y-2362D01*
X18752Y-2268D01*
X18716Y-2181D01*
X18658Y-2105D01*
X18583Y-2048D01*
X18496Y-2011D01*
X18402Y-1999D01*
D02*
G37*
G36*
X17402D02*
X17308Y-2011D01*
X17220Y-2048D01*
X17145Y-2105D01*
X17087Y-2181D01*
X17051Y-2268D01*
X17038Y-2362D01*
X17051Y-2456D01*
X17087Y-2544D01*
X17145Y-2619D01*
X17220Y-2677D01*
X17308Y-2713D01*
X17402Y-2725D01*
X17496Y-2713D01*
X17583Y-2677D01*
X17658Y-2619D01*
X17716Y-2544D01*
X17752Y-2456D01*
X17765Y-2362D01*
X17752Y-2268D01*
X17716Y-2181D01*
X17658Y-2105D01*
X17583Y-2048D01*
X17496Y-2011D01*
X17402Y-1999D01*
D02*
G37*
G36*
X16402D02*
X16308Y-2011D01*
X16220Y-2048D01*
X16145Y-2105D01*
X16087Y-2181D01*
X16051Y-2268D01*
X16038Y-2362D01*
X16051Y-2456D01*
X16087Y-2544D01*
X16145Y-2619D01*
X16220Y-2677D01*
X16308Y-2713D01*
X16402Y-2725D01*
X16496Y-2713D01*
X16583Y-2677D01*
X16658Y-2619D01*
X16716Y-2544D01*
X16752Y-2456D01*
X16765Y-2362D01*
X16752Y-2268D01*
X16716Y-2181D01*
X16658Y-2105D01*
X16583Y-2048D01*
X16496Y-2011D01*
X16402Y-1999D01*
D02*
G37*
G36*
X15402D02*
X15308Y-2011D01*
X15220Y-2048D01*
X15145Y-2105D01*
X15087Y-2181D01*
X15051Y-2268D01*
X15038Y-2362D01*
X15051Y-2456D01*
X15087Y-2544D01*
X15145Y-2619D01*
X15220Y-2677D01*
X15308Y-2713D01*
X15402Y-2725D01*
X15496Y-2713D01*
X15583Y-2677D01*
X15658Y-2619D01*
X15716Y-2544D01*
X15752Y-2456D01*
X15765Y-2362D01*
X15752Y-2268D01*
X15716Y-2181D01*
X15658Y-2105D01*
X15583Y-2048D01*
X15496Y-2011D01*
X15402Y-1999D01*
D02*
G37*
G36*
X14402D02*
X14308Y-2011D01*
X14220Y-2048D01*
X14145Y-2105D01*
X14087Y-2181D01*
X14051Y-2268D01*
X14038Y-2362D01*
X14051Y-2456D01*
X14087Y-2544D01*
X14145Y-2619D01*
X14220Y-2677D01*
X14308Y-2713D01*
X14402Y-2725D01*
X14496Y-2713D01*
X14583Y-2677D01*
X14658Y-2619D01*
X14716Y-2544D01*
X14752Y-2456D01*
X14765Y-2362D01*
X14752Y-2268D01*
X14716Y-2181D01*
X14658Y-2105D01*
X14583Y-2048D01*
X14496Y-2011D01*
X14402Y-1999D01*
D02*
G37*
G36*
X12402D02*
X12308Y-2011D01*
X12220Y-2048D01*
X12145Y-2105D01*
X12087Y-2181D01*
X12051Y-2268D01*
X12038Y-2362D01*
X12051Y-2456D01*
X12087Y-2544D01*
X12145Y-2619D01*
X12220Y-2677D01*
X12308Y-2713D01*
X12402Y-2725D01*
X12496Y-2713D01*
X12583Y-2677D01*
X12658Y-2619D01*
X12716Y-2544D01*
X12752Y-2456D01*
X12765Y-2362D01*
X12752Y-2268D01*
X12716Y-2181D01*
X12658Y-2105D01*
X12583Y-2048D01*
X12496Y-2011D01*
X12402Y-1999D01*
D02*
G37*
G36*
X21460Y-3848D02*
Y-4190D01*
X21802D01*
X21795Y-4137D01*
X21755Y-4041D01*
X21692Y-3958D01*
X21609Y-3895D01*
X21513Y-3855D01*
X21460Y-3848D01*
D02*
G37*
G36*
X21360D02*
X21307Y-3855D01*
X21211Y-3895D01*
X21128Y-3958D01*
X21065Y-4041D01*
X21025Y-4137D01*
X21018Y-4190D01*
X21360D01*
Y-3848D01*
D02*
G37*
G36*
X21802Y-4290D02*
X21460D01*
Y-4632D01*
X21513Y-4625D01*
X21609Y-4585D01*
X21692Y-4522D01*
X21755Y-4439D01*
X21795Y-4343D01*
X21802Y-4290D01*
D02*
G37*
G36*
X21360D02*
X21018D01*
X21025Y-4343D01*
X21065Y-4439D01*
X21128Y-4522D01*
X21211Y-4585D01*
X21307Y-4625D01*
X21360Y-4632D01*
Y-4290D01*
D02*
G37*
G36*
X12805Y-3845D02*
X12015D01*
Y-4635D01*
X12805D01*
Y-3845D01*
D02*
G37*
G36*
X20410Y-3841D02*
X20307Y-3855D01*
X20211Y-3895D01*
X20128Y-3958D01*
X20065Y-4041D01*
X20025Y-4137D01*
X20011Y-4240D01*
X20025Y-4343D01*
X20065Y-4439D01*
X20128Y-4522D01*
X20211Y-4585D01*
X20307Y-4625D01*
X20410Y-4639D01*
X20513Y-4625D01*
X20609Y-4585D01*
X20692Y-4522D01*
X20755Y-4439D01*
X20795Y-4343D01*
X20809Y-4240D01*
X20795Y-4137D01*
X20755Y-4041D01*
X20692Y-3958D01*
X20609Y-3895D01*
X20513Y-3855D01*
X20410Y-3841D01*
D02*
G37*
G36*
X19410D02*
X19307Y-3855D01*
X19211Y-3895D01*
X19128Y-3958D01*
X19065Y-4041D01*
X19025Y-4137D01*
X19011Y-4240D01*
X19025Y-4343D01*
X19065Y-4439D01*
X19128Y-4522D01*
X19211Y-4585D01*
X19307Y-4625D01*
X19410Y-4639D01*
X19513Y-4625D01*
X19609Y-4585D01*
X19692Y-4522D01*
X19755Y-4439D01*
X19795Y-4343D01*
X19809Y-4240D01*
X19795Y-4137D01*
X19755Y-4041D01*
X19692Y-3958D01*
X19609Y-3895D01*
X19513Y-3855D01*
X19410Y-3841D01*
D02*
G37*
G36*
X18410D02*
X18307Y-3855D01*
X18211Y-3895D01*
X18128Y-3958D01*
X18065Y-4041D01*
X18025Y-4137D01*
X18011Y-4240D01*
X18025Y-4343D01*
X18065Y-4439D01*
X18128Y-4522D01*
X18211Y-4585D01*
X18307Y-4625D01*
X18410Y-4639D01*
X18513Y-4625D01*
X18609Y-4585D01*
X18692Y-4522D01*
X18755Y-4439D01*
X18795Y-4343D01*
X18809Y-4240D01*
X18795Y-4137D01*
X18755Y-4041D01*
X18692Y-3958D01*
X18609Y-3895D01*
X18513Y-3855D01*
X18410Y-3841D01*
D02*
G37*
G36*
X17410D02*
X17307Y-3855D01*
X17211Y-3895D01*
X17128Y-3958D01*
X17065Y-4041D01*
X17025Y-4137D01*
X17011Y-4240D01*
X17025Y-4343D01*
X17065Y-4439D01*
X17128Y-4522D01*
X17211Y-4585D01*
X17307Y-4625D01*
X17410Y-4639D01*
X17513Y-4625D01*
X17609Y-4585D01*
X17692Y-4522D01*
X17755Y-4439D01*
X17795Y-4343D01*
X17809Y-4240D01*
X17795Y-4137D01*
X17755Y-4041D01*
X17692Y-3958D01*
X17609Y-3895D01*
X17513Y-3855D01*
X17410Y-3841D01*
D02*
G37*
G36*
X16410D02*
X16307Y-3855D01*
X16211Y-3895D01*
X16128Y-3958D01*
X16065Y-4041D01*
X16025Y-4137D01*
X16011Y-4240D01*
X16025Y-4343D01*
X16065Y-4439D01*
X16128Y-4522D01*
X16211Y-4585D01*
X16307Y-4625D01*
X16410Y-4639D01*
X16513Y-4625D01*
X16609Y-4585D01*
X16692Y-4522D01*
X16755Y-4439D01*
X16795Y-4343D01*
X16809Y-4240D01*
X16795Y-4137D01*
X16755Y-4041D01*
X16692Y-3958D01*
X16609Y-3895D01*
X16513Y-3855D01*
X16410Y-3841D01*
D02*
G37*
G36*
X15410D02*
X15307Y-3855D01*
X15211Y-3895D01*
X15128Y-3958D01*
X15065Y-4041D01*
X15025Y-4137D01*
X15011Y-4240D01*
X15025Y-4343D01*
X15065Y-4439D01*
X15128Y-4522D01*
X15211Y-4585D01*
X15307Y-4625D01*
X15410Y-4639D01*
X15513Y-4625D01*
X15609Y-4585D01*
X15692Y-4522D01*
X15755Y-4439D01*
X15795Y-4343D01*
X15809Y-4240D01*
X15795Y-4137D01*
X15755Y-4041D01*
X15692Y-3958D01*
X15609Y-3895D01*
X15513Y-3855D01*
X15410Y-3841D01*
D02*
G37*
G36*
X14410D02*
X14307Y-3855D01*
X14211Y-3895D01*
X14128Y-3958D01*
X14065Y-4041D01*
X14025Y-4137D01*
X14011Y-4240D01*
X14025Y-4343D01*
X14065Y-4439D01*
X14128Y-4522D01*
X14211Y-4585D01*
X14307Y-4625D01*
X14410Y-4639D01*
X14513Y-4625D01*
X14609Y-4585D01*
X14692Y-4522D01*
X14755Y-4439D01*
X14795Y-4343D01*
X14809Y-4240D01*
X14795Y-4137D01*
X14755Y-4041D01*
X14692Y-3958D01*
X14609Y-3895D01*
X14513Y-3855D01*
X14410Y-3841D01*
D02*
G37*
G36*
X13402Y-1999D02*
X13308Y-2011D01*
X13220Y-2048D01*
X13145Y-2105D01*
X13087Y-2181D01*
X13051Y-2268D01*
X13038Y-2362D01*
X13051Y-2456D01*
X13087Y-2544D01*
X13145Y-2619D01*
X13220Y-2677D01*
X13269Y-2697D01*
Y-3871D01*
X13211Y-3895D01*
X13128Y-3958D01*
X13065Y-4041D01*
X13025Y-4137D01*
X13011Y-4240D01*
X13025Y-4343D01*
X13065Y-4439D01*
X13128Y-4522D01*
X13211Y-4585D01*
X13307Y-4625D01*
X13410Y-4639D01*
X13513Y-4625D01*
X13609Y-4585D01*
X13692Y-4522D01*
X13755Y-4439D01*
X13795Y-4343D01*
X13809Y-4240D01*
X13795Y-4137D01*
X13755Y-4041D01*
X13692Y-3958D01*
X13609Y-3895D01*
X13534Y-3864D01*
Y-2697D01*
X13583Y-2677D01*
X13658Y-2619D01*
X13716Y-2544D01*
X13752Y-2456D01*
X13765Y-2362D01*
X13752Y-2268D01*
X13716Y-2181D01*
X13658Y-2105D01*
X13583Y-2048D01*
X13496Y-2011D01*
X13402Y-1999D01*
D02*
G37*
G36*
X36640Y6772D02*
Y6390D01*
X37022D01*
X37013Y6453D01*
X36970Y6559D01*
X36900Y6650D01*
X36809Y6720D01*
X36703Y6763D01*
X36640Y6772D01*
D02*
G37*
G36*
X36540D02*
X36477Y6763D01*
X36371Y6720D01*
X36280Y6650D01*
X36210Y6559D01*
X36167Y6453D01*
X36158Y6390D01*
X36540D01*
Y6772D01*
D02*
G37*
G36*
X37022Y6290D02*
X36640D01*
Y5908D01*
X36703Y5917D01*
X36809Y5960D01*
X36900Y6030D01*
X36970Y6121D01*
X37013Y6227D01*
X37022Y6290D01*
D02*
G37*
G36*
X36540D02*
X36158D01*
X36167Y6227D01*
X36210Y6121D01*
X36280Y6030D01*
X36371Y5960D01*
X36477Y5917D01*
X36540Y5908D01*
Y6290D01*
D02*
G37*
G36*
X36590Y5778D02*
X36477Y5763D01*
X36371Y5720D01*
X36280Y5650D01*
X36210Y5559D01*
X36167Y5453D01*
X36152Y5340D01*
X36167Y5227D01*
X36210Y5121D01*
X36280Y5030D01*
X36371Y4960D01*
X36477Y4917D01*
X36590Y4902D01*
X36703Y4917D01*
X36809Y4960D01*
X36900Y5030D01*
X36970Y5121D01*
X37013Y5227D01*
X37028Y5340D01*
X37013Y5453D01*
X36970Y5559D01*
X36900Y5650D01*
X36809Y5720D01*
X36703Y5763D01*
X36590Y5778D01*
D02*
G37*
G36*
X31260Y3339D02*
Y3190D01*
X31409D01*
X31403Y3220D01*
X31358Y3288D01*
X31290Y3333D01*
X31260Y3339D01*
D02*
G37*
G36*
X31160D02*
X31130Y3333D01*
X31062Y3288D01*
X31017Y3220D01*
X31011Y3190D01*
X31160D01*
Y3339D01*
D02*
G37*
G36*
X31409Y3090D02*
X31260D01*
Y2941D01*
X31290Y2947D01*
X31358Y2992D01*
X31403Y3060D01*
X31409Y3090D01*
D02*
G37*
G36*
X31160D02*
X31011D01*
X31017Y3060D01*
X31062Y2992D01*
X31130Y2947D01*
X31160Y2941D01*
Y3090D01*
D02*
G37*
G36*
X33815Y1335D02*
X32965D01*
Y485D01*
X33815D01*
Y1335D01*
D02*
G37*
G36*
X32390Y1339D02*
X32279Y1324D01*
X32176Y1281D01*
X32087Y1213D01*
X32019Y1124D01*
X31976Y1021D01*
X31961Y910D01*
X31976Y799D01*
X32019Y696D01*
X32087Y607D01*
X32176Y539D01*
X32279Y496D01*
X32390Y481D01*
X32501Y496D01*
X32604Y539D01*
X32693Y607D01*
X32761Y696D01*
X32804Y799D01*
X32819Y910D01*
X32804Y1021D01*
X32761Y1124D01*
X32693Y1213D01*
X32604Y1281D01*
X32501Y1324D01*
X32390Y1339D01*
D02*
G37*
G36*
X35440Y-368D02*
Y-740D01*
X35812D01*
X35804Y-679D01*
X35761Y-576D01*
X35693Y-487D01*
X35604Y-419D01*
X35501Y-376D01*
X35440Y-368D01*
D02*
G37*
G36*
X35340Y-368D02*
X35279Y-376D01*
X35176Y-419D01*
X35087Y-487D01*
X35019Y-576D01*
X34976Y-679D01*
X34968Y-740D01*
X35340D01*
Y-368D01*
D02*
G37*
G36*
X33440Y-368D02*
Y-740D01*
X33812D01*
X33804Y-679D01*
X33761Y-576D01*
X33693Y-487D01*
X33604Y-419D01*
X33501Y-376D01*
X33440Y-368D01*
D02*
G37*
G36*
X33340D02*
X33279Y-376D01*
X33176Y-419D01*
X33087Y-487D01*
X33019Y-576D01*
X32976Y-679D01*
X32968Y-740D01*
X33340D01*
Y-368D01*
D02*
G37*
G36*
X31390Y-361D02*
X31279Y-376D01*
X31176Y-419D01*
X31087Y-487D01*
X31019Y-576D01*
X30976Y-679D01*
X30961Y-790D01*
X30976Y-901D01*
X31019Y-1004D01*
X31087Y-1093D01*
X31176Y-1161D01*
X31279Y-1204D01*
X31390Y-1219D01*
X31501Y-1204D01*
X31604Y-1161D01*
X31693Y-1093D01*
X31761Y-1004D01*
X31804Y-901D01*
X31819Y-790D01*
X31804Y-679D01*
X31761Y-576D01*
X31693Y-487D01*
X31604Y-419D01*
X31501Y-376D01*
X31390Y-361D01*
D02*
G37*
G36*
X36390D02*
X36279Y-376D01*
X36176Y-419D01*
X36087Y-487D01*
X36019Y-576D01*
X35976Y-679D01*
X35961Y-790D01*
X35976Y-901D01*
X36019Y-1004D01*
X36087Y-1093D01*
X36176Y-1161D01*
X36279Y-1204D01*
X36305Y-1207D01*
X36302Y-1257D01*
X35478D01*
X35475Y-1207D01*
X35501Y-1204D01*
X35604Y-1161D01*
X35693Y-1093D01*
X35761Y-1004D01*
X35804Y-901D01*
X35812Y-840D01*
X35390D01*
X34968D01*
X34976Y-901D01*
X35019Y-1004D01*
X35087Y-1093D01*
X35176Y-1161D01*
X35279Y-1204D01*
X35305Y-1207D01*
X35302Y-1257D01*
X34478D01*
X34475Y-1207D01*
X34501Y-1204D01*
X34604Y-1161D01*
X34693Y-1093D01*
X34761Y-1004D01*
X34804Y-901D01*
X34819Y-790D01*
X34804Y-679D01*
X34761Y-576D01*
X34693Y-487D01*
X34604Y-419D01*
X34501Y-376D01*
X34390Y-361D01*
X34279Y-376D01*
X34176Y-419D01*
X34087Y-487D01*
X34019Y-576D01*
X33976Y-679D01*
X33961Y-790D01*
X33976Y-901D01*
X34019Y-1004D01*
X34087Y-1093D01*
X34176Y-1161D01*
X34279Y-1204D01*
X34305Y-1207D01*
X34302Y-1257D01*
X33478D01*
X33475Y-1207D01*
X33501Y-1204D01*
X33604Y-1161D01*
X33693Y-1093D01*
X33761Y-1004D01*
X33804Y-901D01*
X33812Y-840D01*
X33390D01*
X32968D01*
X32976Y-901D01*
X33019Y-1004D01*
X33087Y-1093D01*
X33176Y-1161D01*
X33279Y-1204D01*
X33305Y-1207D01*
X33302Y-1257D01*
X33045D01*
X32770Y-983D01*
X32804Y-901D01*
X32819Y-790D01*
X32804Y-679D01*
X32761Y-576D01*
X32693Y-487D01*
X32604Y-419D01*
X32501Y-376D01*
X32390Y-361D01*
X32279Y-376D01*
X32176Y-419D01*
X32087Y-487D01*
X32019Y-576D01*
X31976Y-679D01*
X31961Y-790D01*
X31976Y-901D01*
X32019Y-1004D01*
X32087Y-1093D01*
X32176Y-1161D01*
X32279Y-1204D01*
X32390Y-1219D01*
X32501Y-1204D01*
X32583Y-1170D01*
X32896Y-1484D01*
X32939Y-1512D01*
X32990Y-1523D01*
X37150D01*
X37201Y-1512D01*
X37244Y-1484D01*
X37484Y-1244D01*
X37503Y-1215D01*
X37815D01*
Y-365D01*
X36965D01*
Y-1215D01*
X36965D01*
X36947Y-1257D01*
X36478D01*
X36475Y-1207D01*
X36501Y-1204D01*
X36604Y-1161D01*
X36693Y-1093D01*
X36761Y-1004D01*
X36804Y-901D01*
X36819Y-790D01*
X36804Y-679D01*
X36761Y-576D01*
X36693Y-487D01*
X36604Y-419D01*
X36501Y-376D01*
X36390Y-361D01*
D02*
G37*
%LPD*%
D10*
X21200Y20807D02*
X23350D01*
X19890Y12920D02*
X20735D01*
D62*
X28500Y-790D02*
D03*
X33390Y910D02*
D03*
X37390Y-790D02*
D03*
D63*
X27500D02*
D03*
X32390Y910D02*
D03*
X31390Y-790D02*
D03*
X32390D02*
D03*
X33390D02*
D03*
X34390D02*
D03*
X35390D02*
D03*
X36390D02*
D03*
D86*
X31541Y10650D02*
X32910D01*
X31236Y12376D02*
X32124D01*
X32748Y11752D01*
X36350Y11950D02*
Y14210D01*
X36152Y11752D02*
X36350Y11950D01*
X32748Y11752D02*
X36152D01*
X30527Y9636D02*
X31541Y10650D01*
X37390Y-1150D02*
Y-790D01*
X37150Y-1390D02*
X37390Y-1150D01*
X32990Y-1390D02*
X37150D01*
X32390Y-790D02*
X32990Y-1390D01*
X13402Y-4232D02*
X13410Y-4240D01*
X13402Y-4232D02*
Y-2362D01*
X22020Y2090D02*
X23080D01*
X21910Y2200D02*
X22020Y2090D01*
X21910Y2200D02*
Y3370D01*
X28230Y8310D02*
X28250Y8330D01*
X14020Y8310D02*
X28230D01*
X14650Y-70D02*
X18660D01*
X18980Y6730D02*
X18990D01*
X19980Y5740D01*
Y5260D02*
Y5740D01*
X19680Y4960D02*
X19980Y5260D01*
X19680Y3190D02*
Y4960D01*
X14020Y5710D02*
X19435D01*
X19750Y5395D01*
X16300Y10930D02*
X16590Y10640D01*
X16300Y10930D02*
Y12330D01*
X20120Y10810D02*
X20140Y10830D01*
X18690Y10810D02*
X20120D01*
X18650Y3990D02*
X19380D01*
X18440Y4200D02*
X18650Y3990D01*
X18440Y4200D02*
Y5480D01*
X16590Y10640D02*
X18220D01*
X18790Y5340D02*
X19050Y5080D01*
Y4470D02*
Y5080D01*
X20177Y22840D02*
X20210Y22807D01*
X15070Y22840D02*
X20177D01*
X18910Y18440D02*
X18940Y18470D01*
X14390Y18440D02*
X18910D01*
X21030Y27440D02*
X21880D01*
X22250Y27810D01*
X20210Y24807D02*
X20600Y25197D01*
Y27295D01*
X21760Y28455D01*
X20210Y23807D02*
X20297Y23720D01*
X22990D01*
D87*
X8110Y20650D02*
X8940D01*
D89*
X10988Y38990D02*
D03*
Y37990D02*
D03*
X11988Y38990D02*
D03*
Y37990D02*
D03*
X12988Y38990D02*
D03*
Y37990D02*
D03*
X13988Y38990D02*
D03*
Y37990D02*
D03*
X14988Y38990D02*
D03*
Y37990D02*
D03*
X12402Y-2362D02*
D03*
X13402D02*
D03*
X14402D02*
D03*
X15402D02*
D03*
X16402D02*
D03*
X17402D02*
D03*
X18402D02*
D03*
X19402D02*
D03*
X20402D02*
D03*
X21402D02*
D03*
X19958Y38990D02*
D03*
Y37990D02*
D03*
X20958Y38990D02*
D03*
Y37990D02*
D03*
X21958Y38990D02*
D03*
Y37990D02*
D03*
X22958Y38990D02*
D03*
Y37990D02*
D03*
X23958Y38990D02*
D03*
Y37990D02*
D03*
X6470Y8040D02*
D03*
X7470D02*
D03*
X8470D02*
D03*
X9470D02*
D03*
X10470D02*
D03*
X11470D02*
D03*
X6472Y6280D02*
D03*
X7472D02*
D03*
X8472D02*
D03*
X9472D02*
D03*
X10472D02*
D03*
X11472D02*
D03*
D90*
X15988Y38990D02*
D03*
Y37990D02*
D03*
X16988Y38990D02*
D03*
Y37990D02*
D03*
X17988Y38990D02*
D03*
Y37990D02*
D03*
X24958Y38990D02*
D03*
Y37990D02*
D03*
X25958Y38990D02*
D03*
Y37990D02*
D03*
X26958Y38990D02*
D03*
Y37990D02*
D03*
D91*
X35585Y13270D02*
D03*
X34585D02*
D03*
X35585Y12270D02*
D03*
X34585D02*
D03*
X35585Y11270D02*
D03*
X34585D02*
D03*
D92*
X33331Y33048D02*
D03*
Y26374D02*
D03*
D93*
Y22230D02*
D03*
X33331Y37116D02*
D03*
D94*
X38150Y11220D02*
D03*
X37150D02*
D03*
X38150Y12220D02*
D03*
X37150D02*
D03*
X38150Y13220D02*
D03*
X13410Y-4240D02*
D03*
X15410D02*
D03*
X16410D02*
D03*
X17410D02*
D03*
X18410D02*
D03*
X19410D02*
D03*
X20410D02*
D03*
X21410D02*
D03*
X14410D02*
D03*
D95*
X37150Y13220D02*
D03*
D96*
X12410Y-4240D02*
D03*
D97*
X36590Y6340D02*
D03*
Y7340D02*
D03*
Y8340D02*
D03*
Y5340D02*
D03*
D98*
X20862Y4873D02*
D03*
X21295D02*
D03*
X20862Y4440D02*
D03*
X21295D02*
D03*
D99*
X31236Y12376D02*
D03*
X32910Y10650D02*
D03*
X31210Y3140D02*
D03*
X29667Y9296D02*
D03*
X26370Y3040D02*
D03*
X36350Y14210D02*
D03*
X30527Y9636D02*
D03*
X23080Y2090D02*
D03*
X21910Y3370D02*
D03*
X20620Y1740D02*
D03*
X23350Y20807D02*
D03*
X28250Y8330D02*
D03*
X14020Y8310D02*
D03*
X14650Y-70D02*
D03*
X18660D02*
D03*
X20735Y12920D02*
D03*
X19890D02*
D03*
X19680Y3190D02*
D03*
X16300Y12330D02*
D03*
X20140Y10830D02*
D03*
X18440Y5480D02*
D03*
X14270Y21310D02*
D03*
X18980Y6730D02*
D03*
X18790Y5340D02*
D03*
X14020Y5710D02*
D03*
X15070Y22840D02*
D03*
X18940Y18470D02*
D03*
X14390Y18440D02*
D03*
X21030Y27440D02*
D03*
X22250Y27810D02*
D03*
X21760Y28455D02*
D03*
X22990Y23720D02*
D03*
X8940Y20650D02*
D03*
X8110D02*
D03*
X20210Y24807D02*
D03*
Y24307D02*
D03*
Y23807D02*
D03*
Y22807D02*
D03*
X22000Y29960D02*
D03*
X24060Y11900D02*
D03*
X27640D02*
D03*
X27848Y13672D02*
D03*
X32880Y13280D02*
D03*
X18910Y13670D02*
D03*
X16650Y12140D02*
D03*
X17633Y11553D02*
D03*
X18220Y10640D02*
D03*
X18690Y10810D02*
D03*
X19860Y11730D02*
D03*
X19856Y12144D02*
D03*
X18493Y12843D02*
D03*
X23580Y5210D02*
D03*
X20560Y7260D02*
D03*
X19050Y4470D02*
D03*
X19380Y3990D02*
D03*
X19750Y5395D02*
D03*
X20980Y6550D02*
D03*
X23445Y4755D02*
D03*
X13700Y17100D02*
D03*
Y25000D02*
D03*
X21200Y20807D02*
D03*
X20243Y20307D02*
D03*
Y19807D02*
D03*
Y19307D02*
D03*
X12750Y16024D02*
D03*
X4050Y15276D02*
D03*
X28600Y28005D02*
D03*
X23104Y28955D02*
D03*
X28116Y26955D02*
D03*
M02*
