G04*
G04 #@! TF.GenerationSoftware,Altium Limited,Altium Designer,18.1.9 (240)*
G04*
G04 Layer_Physical_Order=1*
G04 Layer_Color=255*
%FSLAX24Y24*%
%MOIN*%
G70*
G01*
G75*
%ADD10C,0.0100*%
%ADD21R,0.0240X0.0260*%
%ADD24R,0.0260X0.0240*%
%ADD62R,0.0650X0.0650*%
%ADD63C,0.0650*%
%ADD70R,0.0315X0.0315*%
%ADD71R,0.0394X0.0551*%
%ADD72R,0.0633X0.0217*%
%ADD73O,0.0295X0.0118*%
%ADD74O,0.0118X0.0246*%
%ADD75R,0.0886X0.0236*%
%ADD76R,0.0709X0.0236*%
%ADD77R,0.1244X0.0394*%
%ADD78R,0.0394X0.0492*%
%ADD79R,0.0551X0.0394*%
%ADD80R,0.0236X0.0098*%
%ADD81R,0.0098X0.0236*%
%ADD82R,0.0984X0.0984*%
%ADD83R,0.0413X0.1504*%
%ADD84R,0.3366X0.2945*%
%ADD85R,0.0598X0.0701*%
%ADD86C,0.0060*%
%ADD87C,0.0200*%
%ADD88C,0.0080*%
%ADD89C,0.0520*%
%ADD90C,0.0530*%
%ADD91C,0.0600*%
%ADD92C,0.1890*%
%ADD93C,0.0945*%
%ADD94C,0.0591*%
%ADD95R,0.0591X0.0591*%
%ADD96R,0.0591X0.0591*%
%ADD97C,0.0669*%
%ADD98C,0.0200*%
%ADD99C,0.0210*%
D10*
X34330Y6930D02*
X34520Y7120D01*
X32860Y6930D02*
X34330D01*
X32520Y7270D02*
X32860Y6930D01*
X32520Y7270D02*
Y8165D01*
X34520Y7120D02*
Y8165D01*
Y7120D02*
X34820Y6820D01*
X35110D01*
X36590Y5340D01*
X34850Y-330D02*
Y910D01*
Y2780D01*
X34390Y-790D02*
X34850Y-330D01*
X33390Y910D02*
X34450D01*
Y330D02*
Y910D01*
X30615Y3140D02*
X31210D01*
X32390Y-790D02*
Y910D01*
X29667Y9296D02*
Y9666D01*
X26370Y3040D02*
X27015D01*
X20620Y1740D02*
X20680Y1800D01*
Y2880D01*
X21120D01*
X20230D02*
X20680D01*
X23350Y20807D02*
X26367D01*
X28060Y22500D01*
X20840Y7780D02*
Y12815D01*
X20735Y12920D02*
X20840Y12815D01*
X19850Y12960D02*
X19890Y12920D01*
X18910Y12960D02*
X19850D01*
X18900Y12950D02*
X18910Y12960D01*
X18680Y12950D02*
X18900D01*
X18570Y13060D02*
X18680Y12950D01*
X17817Y13060D02*
X18570D01*
X17360Y12603D02*
X17817Y13060D01*
X17360Y12140D02*
Y12603D01*
X14270Y21310D02*
X14948D01*
X14988Y21350D01*
X28060Y22500D02*
Y22590D01*
X22760Y5140D02*
X22830Y5210D01*
X22760Y4755D02*
Y5140D01*
X22735Y29955D02*
X23809D01*
X17364Y12144D02*
X18090D01*
X22730Y29960D02*
X22735Y29955D01*
X22550Y29060D02*
X22655Y28955D01*
X23104D01*
X20560Y5800D02*
Y6230D01*
X22000Y29960D02*
X22330D01*
X24060Y11900D02*
X24579D01*
X27161D02*
X27640D01*
X27848Y13672D02*
Y14110D01*
X32880Y13280D02*
X33160D01*
X21817Y4755D02*
X22760D01*
X17360Y12140D02*
X17364Y12144D01*
X18910Y13360D02*
Y13670D01*
X18887Y12650D02*
X18910Y12673D01*
Y12960D01*
X16650Y12140D02*
X16960D01*
X19643Y11947D02*
X19860Y11730D01*
X19290Y11947D02*
X19643D01*
X19290Y12144D02*
X19856D01*
X18887Y12311D02*
Y12650D01*
X18493Y12311D02*
Y12843D01*
X22252Y5210D02*
X22830D01*
X21994Y4952D02*
X22252Y5210D01*
X21817Y4952D02*
X21994D01*
X23230Y5210D02*
X23580D01*
X20783Y5395D02*
Y5577D01*
X20560Y5800D02*
X20783Y5577D01*
X20560Y6630D02*
Y7260D01*
X20980Y6250D02*
Y6550D01*
X21079Y4656D02*
X21177Y4558D01*
X23160Y4755D02*
X23445D01*
X13350Y17100D02*
X13700D01*
X13350Y25000D02*
X13700D01*
X20800Y20807D02*
X21200D01*
X19596Y20307D02*
X20243D01*
X19596Y19807D02*
X20243D01*
X19596Y19307D02*
X20243D01*
X14988Y21350D02*
X15031Y21307D01*
X15836D01*
X15045Y21807D02*
X15836D01*
X12233Y16024D02*
X12750D01*
X4050Y15276D02*
X4567D01*
X28600Y28005D02*
Y28350D01*
X23104Y28955D02*
X23809D01*
X27411Y26955D02*
X28116D01*
D21*
X12950Y25000D02*
D03*
X13350D02*
D03*
X34850Y910D02*
D03*
X34450D02*
D03*
X30067Y9666D02*
D03*
X29667D02*
D03*
X22630Y2090D02*
D03*
X22230D02*
D03*
X22760Y4755D02*
D03*
X23160D02*
D03*
X22830Y5210D02*
D03*
X23230D02*
D03*
X22730Y29960D02*
D03*
X22330D02*
D03*
X20800Y20807D02*
D03*
X20400D02*
D03*
X34850Y330D02*
D03*
X34450D02*
D03*
X33560Y13280D02*
D03*
X33160D02*
D03*
X28360Y12910D02*
D03*
X27960D02*
D03*
X25950Y13970D02*
D03*
X25550D02*
D03*
X28940Y14970D02*
D03*
X28540D02*
D03*
X12950Y17100D02*
D03*
X13350D02*
D03*
X17360Y12140D02*
D03*
X16960D02*
D03*
X22230Y3370D02*
D03*
X22630D02*
D03*
D24*
X25980Y3730D02*
D03*
Y4130D02*
D03*
X20980Y5850D02*
D03*
Y6250D02*
D03*
X20560Y6230D02*
D03*
Y6630D02*
D03*
X14988Y21750D02*
D03*
Y21350D02*
D03*
X20230Y3280D02*
D03*
Y2880D02*
D03*
X28600Y29655D02*
D03*
Y29255D02*
D03*
Y28750D02*
D03*
Y28350D02*
D03*
X31730Y11510D02*
D03*
Y11910D02*
D03*
X31230Y11503D02*
D03*
Y11903D02*
D03*
X21120Y2880D02*
D03*
Y3280D02*
D03*
X18910Y12960D02*
D03*
Y13360D02*
D03*
X22550Y29460D02*
D03*
Y29060D02*
D03*
X20680Y2880D02*
D03*
Y3280D02*
D03*
D62*
X28500Y-790D02*
D03*
X33390Y910D02*
D03*
X37390Y-790D02*
D03*
D63*
X27500D02*
D03*
X32390Y910D02*
D03*
X31390Y-790D02*
D03*
X32390D02*
D03*
X33390D02*
D03*
X34390D02*
D03*
X35390D02*
D03*
X36390D02*
D03*
D70*
X28815Y14180D02*
D03*
X29405D02*
D03*
X11550Y25000D02*
D03*
X12141D02*
D03*
X11550Y17100D02*
D03*
X12141D02*
D03*
D71*
X27100Y14110D02*
D03*
X27848D02*
D03*
X27474Y14976D02*
D03*
D72*
X24579Y12900D02*
D03*
Y11900D02*
D03*
X27161Y12900D02*
D03*
Y11900D02*
D03*
D73*
X18090Y12144D02*
D03*
Y11947D02*
D03*
Y11750D02*
D03*
Y11553D02*
D03*
Y11356D02*
D03*
X19290D02*
D03*
Y11553D02*
D03*
Y11750D02*
D03*
Y11947D02*
D03*
Y12144D02*
D03*
D74*
X18493Y11189D02*
D03*
X18690D02*
D03*
X18887D02*
D03*
Y12311D02*
D03*
X18690D02*
D03*
X18493D02*
D03*
D75*
X23809Y30455D02*
D03*
Y29955D02*
D03*
Y29455D02*
D03*
Y28955D02*
D03*
Y28455D02*
D03*
Y27955D02*
D03*
Y27455D02*
D03*
Y26955D02*
D03*
X27411Y30455D02*
D03*
Y29955D02*
D03*
Y29455D02*
D03*
Y28955D02*
D03*
Y28455D02*
D03*
Y27955D02*
D03*
Y27455D02*
D03*
Y26955D02*
D03*
D76*
X19596Y19307D02*
D03*
Y19807D02*
D03*
Y20307D02*
D03*
Y20807D02*
D03*
Y21307D02*
D03*
Y21807D02*
D03*
Y22307D02*
D03*
Y22807D02*
D03*
Y23307D02*
D03*
Y23807D02*
D03*
Y24307D02*
D03*
Y24807D02*
D03*
Y25307D02*
D03*
Y25807D02*
D03*
X15836Y19307D02*
D03*
Y19807D02*
D03*
Y20307D02*
D03*
Y20807D02*
D03*
Y21307D02*
D03*
Y21807D02*
D03*
Y22307D02*
D03*
Y22807D02*
D03*
Y23307D02*
D03*
Y23807D02*
D03*
Y24307D02*
D03*
Y24807D02*
D03*
Y25307D02*
D03*
Y25807D02*
D03*
D77*
X9875Y23550D02*
D03*
X7025D02*
D03*
X9875Y28550D02*
D03*
Y26550D02*
D03*
Y25550D02*
D03*
Y24550D02*
D03*
X7025D02*
D03*
Y25550D02*
D03*
Y26550D02*
D03*
Y28550D02*
D03*
Y20650D02*
D03*
Y18650D02*
D03*
Y17650D02*
D03*
Y16650D02*
D03*
X9875D02*
D03*
Y17650D02*
D03*
Y18650D02*
D03*
Y20650D02*
D03*
X7025Y15650D02*
D03*
X9875D02*
D03*
D78*
X22795Y1500D02*
D03*
X22125D02*
D03*
X22125Y2770D02*
D03*
X22795D02*
D03*
D79*
X12233Y15276D02*
D03*
Y16024D02*
D03*
X11367Y15650D02*
D03*
X31224Y10230D02*
D03*
Y9482D02*
D03*
X32091Y9856D02*
D03*
X4567Y16024D02*
D03*
Y15276D02*
D03*
X5433Y15650D02*
D03*
Y23550D02*
D03*
X4567Y23176D02*
D03*
Y23924D02*
D03*
D80*
X20340Y5149D02*
D03*
Y4952D02*
D03*
Y4755D02*
D03*
Y4558D02*
D03*
Y4361D02*
D03*
Y4164D02*
D03*
X21817D02*
D03*
Y4361D02*
D03*
Y4558D02*
D03*
Y4755D02*
D03*
Y4952D02*
D03*
Y5149D02*
D03*
D81*
X20587Y3918D02*
D03*
X20783D02*
D03*
X20980D02*
D03*
X21177D02*
D03*
X21374D02*
D03*
X21571D02*
D03*
Y5395D02*
D03*
X21374D02*
D03*
X21177D02*
D03*
X20980D02*
D03*
X20783D02*
D03*
X20587D02*
D03*
D82*
X21079Y4656D02*
D03*
D83*
X34520Y8165D02*
D03*
X32520D02*
D03*
D84*
X33520Y4110D02*
D03*
D85*
X26965Y2140D02*
D03*
X30615D02*
D03*
Y4140D02*
D03*
X26965D02*
D03*
X30615Y3140D02*
D03*
X26965D02*
D03*
D86*
X32091Y9481D02*
Y9856D01*
X30940Y8330D02*
X32091Y9481D01*
X28250Y8330D02*
X30940D01*
X33520Y4110D02*
X34850Y2780D01*
X30615Y1240D02*
Y2140D01*
Y1240D02*
X31390Y465D01*
X26965Y4140D02*
Y7045D01*
X31230Y11903D02*
Y12370D01*
X34140Y11270D02*
X34585D01*
X33520Y10650D02*
X34140Y11270D01*
X34585D02*
X35125Y10730D01*
X36660D01*
X37150Y11220D01*
X32910Y10650D02*
X33520D01*
X31224Y10230D02*
Y11476D01*
X34585Y12270D02*
X35065Y11790D01*
X36720D01*
X37150Y12220D01*
X37650Y12720D02*
X38150Y12220D01*
X36735Y12720D02*
X37650D01*
X36285Y12270D02*
X36735Y12720D01*
X35585Y12270D02*
X36285D01*
X31390Y-790D02*
Y465D01*
X22110Y11900D02*
X26965Y7045D01*
X27960Y7610D02*
X28500Y7070D01*
Y-790D02*
Y7070D01*
X25980Y4130D02*
X26955D01*
X35740Y-1440D02*
X36390Y-790D01*
X32040Y-1440D02*
X35740D01*
X31390Y-790D02*
X32040Y-1440D01*
X30097Y9636D02*
X30527D01*
X27960Y7610D02*
Y12910D01*
X20402Y-4232D02*
X20410Y-4240D01*
X20402Y-4232D02*
Y-2362D01*
X19402Y-4232D02*
X19410Y-4240D01*
X19402Y-4232D02*
Y-2362D01*
X18402Y-4232D02*
X18410Y-4240D01*
X18402Y-4232D02*
Y-2362D01*
X17402Y-4232D02*
X17410Y-4240D01*
X17402Y-4232D02*
Y-2362D01*
X16402Y-4232D02*
X16410Y-4240D01*
X16402Y-4232D02*
Y-2362D01*
X15402Y-4232D02*
X15410Y-4240D01*
X15402Y-4232D02*
Y-2362D01*
X14410Y-4240D02*
Y-3150D01*
X14220Y-2960D02*
X14410Y-3150D01*
X36350Y14210D02*
Y17600D01*
X34585Y13270D02*
X35075Y12780D01*
X36310D01*
X36750Y13220D01*
X37150D01*
X19015Y4755D02*
X20340D01*
X18960Y4700D02*
X19015Y4755D01*
X19358Y5222D02*
Y7478D01*
Y5222D02*
X19628Y4952D01*
X20340D01*
X22650Y2905D02*
Y3930D01*
X22219Y4361D02*
X22650Y3930D01*
Y2905D02*
X22785Y2770D01*
X15337Y13293D02*
Y19727D01*
X15417Y19807D01*
X15836D01*
X30527Y9636D02*
X30681Y9482D01*
X31224D01*
X33120Y20830D02*
X36350Y17600D01*
X30680Y20830D02*
X33120D01*
X26530Y24980D02*
X30680Y20830D01*
X26530Y24980D02*
Y29700D01*
X26785Y29955D01*
X27411D01*
X31224Y9482D02*
X31237Y9469D01*
X23280Y2010D02*
Y2270D01*
X22795Y2755D02*
X23280Y2270D01*
X22795Y2755D02*
Y2770D01*
X22795Y1525D02*
X23280Y2010D01*
X22795Y1500D02*
Y1525D01*
X22630Y2090D02*
X23080D01*
X21910Y3370D02*
X22230D01*
X20783Y3739D02*
Y3918D01*
X20684Y3640D02*
X20783Y3739D01*
X20230Y3280D02*
Y3500D01*
X20370Y3640D01*
X20684D01*
X20680Y3280D02*
Y3480D01*
X20740Y3540D01*
X20820D01*
X20980Y3700D01*
Y3918D01*
X21177D02*
X21180Y3915D01*
Y3540D02*
Y3915D01*
X21120Y3480D02*
X21180Y3540D01*
X21120Y3280D02*
Y3480D01*
X31237Y11510D02*
X31730D01*
X31230Y11503D02*
X31237Y11510D01*
X25950Y13970D02*
Y16750D01*
X22990Y19710D02*
X25950Y16750D01*
X22990Y19710D02*
Y23720D01*
X22110Y11900D02*
Y23750D01*
X14020Y8310D02*
Y9890D01*
X7740Y16170D02*
X14020Y9890D01*
X6080Y16170D02*
X7740D01*
X5000Y17250D02*
X6080Y16170D01*
X5000Y17250D02*
Y22060D01*
X4567Y22493D02*
X5000Y22060D01*
X4567Y22493D02*
Y23176D01*
X3865Y22175D02*
X4567Y21473D01*
X18660Y-621D02*
Y-70D01*
Y-621D02*
X20402Y-2362D01*
X14220Y-2960D02*
X14402Y-2778D01*
Y-2362D01*
X13270Y-2960D02*
X14220D01*
X11800Y9040D02*
X14020Y6820D01*
Y5710D02*
Y6820D01*
X12900Y-1900D02*
X14402Y-398D01*
X12900Y-2590D02*
Y-1900D01*
Y-2590D02*
X13270Y-2960D01*
X19680Y2090D02*
Y3190D01*
X17402Y-188D02*
X19680Y2090D01*
X19910Y4040D02*
X20034Y4164D01*
X19910Y1701D02*
Y4040D01*
X18402Y192D02*
X19910Y1701D01*
X17402Y-2362D02*
Y-188D01*
X18402Y-2362D02*
Y192D01*
X20553Y25307D02*
X22110Y23750D01*
X19596Y25307D02*
X20553D01*
X21700Y1500D02*
X22125D01*
X21374Y1826D02*
X21700Y1500D01*
X21374Y1826D02*
Y3918D01*
X22115Y2770D02*
X22230Y2655D01*
Y2090D02*
Y2655D01*
X4214Y23924D02*
X4567D01*
X3865Y23575D02*
X4214Y23924D01*
X3865Y22175D02*
Y23575D01*
X4567Y16024D02*
Y21473D01*
X21817Y4164D02*
X22070D01*
X22230Y4004D01*
Y3370D02*
Y4004D01*
X22775Y2760D02*
X22785Y2770D01*
X21571Y3036D02*
Y3918D01*
Y3036D02*
X21837Y2770D01*
X22115D01*
X13890Y24020D02*
X15070Y22840D01*
X8410Y24020D02*
X13890D01*
X7940Y23550D02*
X8410Y24020D01*
X7025Y23550D02*
X7940D01*
X10470Y8040D02*
X10472Y8038D01*
Y6280D02*
Y8038D01*
X19170Y24050D02*
X20310D01*
X19010Y24210D02*
X19170Y24050D01*
X20310D02*
X20600Y23760D01*
X19010Y24210D02*
Y26750D01*
X15337Y13293D02*
X16300Y12330D01*
X15836Y19307D02*
X16843D01*
X20140Y16010D01*
Y10830D02*
Y16010D01*
X18420Y5500D02*
X18440Y5480D01*
X18120Y5538D02*
Y9260D01*
Y5538D02*
X18958Y4700D01*
X18960D01*
X18420Y5500D02*
Y10440D01*
X18220Y10640D02*
X18420Y10440D01*
X14650Y-70D02*
Y20420D01*
X14402Y-398D02*
Y18428D01*
X14948Y20078D02*
X15177Y20307D01*
X14948Y13272D02*
Y20078D01*
Y13272D02*
X16667Y11553D01*
X14650Y20420D02*
X15037Y20807D01*
X14070Y16612D02*
Y20830D01*
X14310Y21070D01*
X16310D01*
X15037Y20807D02*
X15836D01*
X18887Y10973D02*
X18980Y10880D01*
Y10880D01*
Y6730D02*
Y10880D01*
X18930Y10930D02*
X18980Y10880D01*
X18690Y5440D02*
Y10810D01*
Y5440D02*
X18790Y5340D01*
X13402Y-1928D02*
X18630Y3300D01*
X13402Y-2362D02*
Y-1928D01*
X6450Y9040D02*
X11800D01*
X3620Y11870D02*
X6450Y9040D01*
X3620Y11870D02*
Y15770D01*
X3874Y16024D01*
X19010Y26750D02*
X19700Y27440D01*
X20600Y22480D02*
Y23760D01*
X20427Y22307D02*
X20600Y22480D01*
X19596Y22307D02*
X20427D01*
X12734Y15276D02*
X14070Y16612D01*
X16310Y21070D02*
X18547Y23307D01*
X19596D01*
X19057Y21807D02*
X19596D01*
X18940Y21690D02*
X19057Y21807D01*
X18940Y18470D02*
Y21690D01*
X14390Y18440D02*
X14402Y18428D01*
X19700Y27440D02*
X21030D01*
X22250Y27810D02*
X22395Y27955D01*
X23809D01*
X21760Y28455D02*
X23809D01*
X18960Y4691D02*
Y4700D01*
X18630Y4361D02*
X18960Y4691D01*
X18630Y3300D02*
Y4361D01*
X19050Y2740D02*
Y4470D01*
X15402Y-908D02*
X19050Y2740D01*
X15402Y-2362D02*
Y-908D01*
X19380Y2420D02*
Y3990D01*
X16402Y-558D02*
X19380Y2420D01*
X16402Y-2362D02*
Y-558D01*
X11470Y6282D02*
X11472Y6280D01*
X11470Y6282D02*
Y8040D01*
X9470Y6282D02*
X9472Y6280D01*
X9470Y6282D02*
Y8040D01*
X7470D02*
X7472Y8038D01*
Y6280D02*
Y8038D01*
X21560Y18050D02*
Y23330D01*
X20583Y24307D02*
X21560Y23330D01*
X20210Y24307D02*
X20583D01*
X20490Y16980D02*
X21560Y18050D01*
X20490Y8610D02*
Y16980D01*
X19358Y7478D02*
X20490Y8610D01*
X17633Y9747D02*
Y11553D01*
Y9747D02*
X18120Y9260D01*
X16667Y11553D02*
X17633D01*
X9030Y23550D02*
X9875D01*
X8610Y23130D02*
X9030Y23550D01*
X8610Y16050D02*
Y23130D01*
Y16050D02*
X9010Y15650D01*
X9875D01*
X12233Y15276D02*
X12734D01*
X3874Y16024D02*
X4567D01*
X19070Y4490D02*
X19932D01*
X19751Y4361D02*
X20340D01*
X18493Y10913D02*
Y11189D01*
X19380Y3990D02*
X19751Y4361D01*
X19596Y24807D02*
X20210D01*
X19596Y24307D02*
X20210D01*
X19596Y23807D02*
X20210D01*
X19596Y22807D02*
X20210D01*
X15177Y20307D02*
X15836D01*
X27950Y12900D02*
X27960Y12910D01*
X27161Y12900D02*
X27950D01*
X25550Y13198D02*
Y13970D01*
X25252Y12900D02*
X25550Y13198D01*
X24579Y12900D02*
X25252D01*
X26960Y13970D02*
X27100Y14110D01*
X25950Y13970D02*
X26960D01*
X29405Y14180D02*
Y14835D01*
X29270Y14970D02*
X29405Y14835D01*
X28940Y14970D02*
X29270D01*
X28534Y14976D02*
X28540Y14970D01*
X27474Y14976D02*
X28534D01*
X33560Y13280D02*
X33570Y13270D01*
X34585D01*
X21817Y4361D02*
X22219D01*
X17633Y11553D02*
X18090D01*
X18220Y10640D02*
X18493Y10913D01*
X18690Y10810D02*
Y11189D01*
X18887Y10973D02*
Y11189D01*
X19050Y4470D02*
X19070Y4490D01*
X19932D02*
X20000Y4558D01*
X20340D01*
X20034Y4164D02*
X20340D01*
X19750Y5395D02*
X19996Y5149D01*
X20340D01*
X20980Y5395D02*
Y5850D01*
X19596Y20807D02*
X20400D01*
X5433Y15650D02*
X7025D01*
X9875D02*
X11367D01*
X12141Y17100D02*
X12950D01*
X12141Y25000D02*
X12950D01*
X9875Y24550D02*
X11100D01*
X11550Y25000D01*
X11100Y16650D02*
X11550Y17100D01*
X9875Y16650D02*
X11100D01*
X28395Y29050D02*
X28600Y29255D01*
X28395Y28955D02*
Y29050D01*
Y28955D02*
X28600Y28750D01*
X27411Y28955D02*
X28395D01*
D87*
X38860Y7350D02*
Y12510D01*
Y-530D02*
Y7350D01*
X36590Y7340D02*
X36600Y7350D01*
X38860D01*
X31730Y11910D02*
Y12494D01*
X31314Y12910D02*
X31730Y12494D01*
X32744Y14340D02*
X34515D01*
X31314Y12910D02*
X32744Y14340D01*
X28820Y12910D02*
X31314D01*
X24570Y5810D02*
X25260Y5120D01*
Y490D02*
Y5120D01*
Y490D02*
X27690Y-1940D01*
X25270Y3730D02*
X25980D01*
Y2370D02*
X26210Y2140D01*
X25980Y2370D02*
Y3730D01*
X26210Y2140D02*
X26965D01*
X27690Y-1940D02*
X37450D01*
X38860Y-530D01*
X12402Y-2362D02*
Y-1092D01*
Y-4240D02*
Y-2362D01*
X37570Y13800D02*
X38150Y13220D01*
X36760Y13800D02*
X37570D01*
X36230Y13270D02*
X36760Y13800D01*
X38150Y13220D02*
X38860Y12510D01*
X9875Y28550D02*
X10790D01*
X7025D02*
X9875D01*
X5930D02*
X7025D01*
X9875Y20650D02*
X10680D01*
X8940D02*
X9875D01*
X7025D02*
X8110D01*
X5940D02*
X7025D01*
X5433Y23550D02*
Y28053D01*
Y21157D02*
Y23550D01*
Y21157D02*
X5940Y20650D01*
X5433Y28053D02*
X5930Y28550D01*
X20840Y7780D02*
X21760D01*
X20490D02*
X20840D01*
X28060Y22590D02*
X30280Y20370D01*
X25560Y25090D02*
X28060Y22590D01*
X28360Y12910D02*
X28820D01*
X28815Y12915D02*
X28820Y12910D01*
X28815Y12915D02*
Y14180D01*
X34515Y14340D02*
X35585Y13270D01*
X12200Y29160D02*
X20480D01*
X11190Y28150D02*
X12200Y29160D01*
X20480D02*
X24550Y25090D01*
X22830Y5810D02*
Y6710D01*
X21760Y7780D02*
X22830Y6710D01*
Y5810D02*
X24570D01*
X35585Y13270D02*
X36230D01*
X19930Y7220D02*
X20490Y7780D01*
X19930Y6430D02*
Y7220D01*
Y6430D02*
X20130Y6230D01*
X20560D01*
X22830Y5210D02*
Y5810D01*
X10970Y20360D02*
X12360Y21750D01*
X14988D01*
X24550Y25090D02*
X25560D01*
X10680Y20650D02*
X10970Y20360D01*
Y17830D02*
Y20360D01*
X10790Y17650D02*
X10970Y17830D01*
X9875Y17650D02*
X10790D01*
Y28550D02*
X11190Y28150D01*
Y25890D02*
Y28150D01*
X10850Y25550D02*
X11190Y25890D01*
X9875Y25550D02*
X10850D01*
X28600Y29655D02*
Y30450D01*
X28110Y30940D02*
X28600Y30450D01*
X26700Y30940D02*
X28110D01*
X26210Y30450D02*
X26700Y30940D01*
X26210Y29940D02*
Y30450D01*
X25560Y29290D02*
X26210Y29940D01*
X23809Y29955D02*
X24895D01*
X25560Y29290D01*
Y25090D02*
Y29290D01*
X30280Y20370D02*
X32680D01*
X35585Y17465D01*
Y13270D02*
Y17465D01*
X3260Y28735D02*
X4535Y30010D01*
X3260Y11250D02*
Y28735D01*
Y11250D02*
X6470Y8040D01*
X4535Y30010D02*
X20660D01*
X23804Y29460D02*
X23809Y29455D01*
X22550Y29460D02*
X23804D01*
X22540Y29470D02*
X22550Y29460D01*
X21200Y29470D02*
X22540D01*
X20660Y30010D02*
X21200Y29470D01*
X6472Y6280D02*
Y8038D01*
Y4838D02*
Y6280D01*
Y4838D02*
X12402Y-1092D01*
X8470Y6282D02*
X8472Y6280D01*
X8470Y6282D02*
Y8040D01*
X6470D02*
X6472Y8038D01*
X31836Y37116D02*
X33331D01*
X25175Y30455D02*
X31836Y37116D01*
X23809Y30455D02*
X25175D01*
D88*
X21177Y4558D02*
X21817D01*
X20862Y4873D02*
X21079Y4656D01*
X20587Y5149D02*
X20862Y4873D01*
X20587Y5149D02*
Y5395D01*
D89*
X10988Y38990D02*
D03*
Y37990D02*
D03*
X11988Y38990D02*
D03*
Y37990D02*
D03*
X12988Y38990D02*
D03*
Y37990D02*
D03*
X13988Y38990D02*
D03*
Y37990D02*
D03*
X14988Y38990D02*
D03*
Y37990D02*
D03*
X12402Y-2362D02*
D03*
X13402D02*
D03*
X14402D02*
D03*
X15402D02*
D03*
X16402D02*
D03*
X17402D02*
D03*
X18402D02*
D03*
X19402D02*
D03*
X20402D02*
D03*
X21402D02*
D03*
X19958Y38990D02*
D03*
Y37990D02*
D03*
X20958Y38990D02*
D03*
Y37990D02*
D03*
X21958Y38990D02*
D03*
Y37990D02*
D03*
X22958Y38990D02*
D03*
Y37990D02*
D03*
X23958Y38990D02*
D03*
Y37990D02*
D03*
X6470Y8040D02*
D03*
X7470D02*
D03*
X8470D02*
D03*
X9470D02*
D03*
X10470D02*
D03*
X11470D02*
D03*
X6472Y6280D02*
D03*
X7472D02*
D03*
X8472D02*
D03*
X9472D02*
D03*
X10472D02*
D03*
X11472D02*
D03*
D90*
X15988Y38990D02*
D03*
Y37990D02*
D03*
X16988Y38990D02*
D03*
Y37990D02*
D03*
X17988Y38990D02*
D03*
Y37990D02*
D03*
X24958Y38990D02*
D03*
Y37990D02*
D03*
X25958Y38990D02*
D03*
Y37990D02*
D03*
X26958Y38990D02*
D03*
Y37990D02*
D03*
D91*
X35585Y13270D02*
D03*
X34585D02*
D03*
X35585Y12270D02*
D03*
X34585D02*
D03*
X35585Y11270D02*
D03*
X34585D02*
D03*
D92*
X33331Y33048D02*
D03*
Y26374D02*
D03*
D93*
Y22230D02*
D03*
X33331Y37116D02*
D03*
D94*
X38150Y11220D02*
D03*
X37150D02*
D03*
X38150Y12220D02*
D03*
X37150D02*
D03*
X38150Y13220D02*
D03*
X13410Y-4240D02*
D03*
X15410D02*
D03*
X16410D02*
D03*
X17410D02*
D03*
X18410D02*
D03*
X19410D02*
D03*
X20410D02*
D03*
X21410D02*
D03*
X14410D02*
D03*
D95*
X37150Y13220D02*
D03*
D96*
X12410Y-4240D02*
D03*
D97*
X36590Y6340D02*
D03*
Y7340D02*
D03*
Y8340D02*
D03*
Y5340D02*
D03*
D98*
X20862Y4873D02*
D03*
X21295D02*
D03*
X20862Y4440D02*
D03*
X21295D02*
D03*
D99*
X31236Y12376D02*
D03*
X32910Y10650D02*
D03*
X31210Y3140D02*
D03*
X29667Y9296D02*
D03*
X26370Y3040D02*
D03*
X36350Y14210D02*
D03*
X30527Y9636D02*
D03*
X23080Y2090D02*
D03*
X21910Y3370D02*
D03*
X20620Y1740D02*
D03*
X23350Y20807D02*
D03*
X28250Y8330D02*
D03*
X14020Y8310D02*
D03*
X14650Y-70D02*
D03*
X18660D02*
D03*
X20735Y12920D02*
D03*
X19890D02*
D03*
X19680Y3190D02*
D03*
X16300Y12330D02*
D03*
X20140Y10830D02*
D03*
X18440Y5480D02*
D03*
X14270Y21310D02*
D03*
X18980Y6730D02*
D03*
X18790Y5340D02*
D03*
X14020Y5710D02*
D03*
X15070Y22840D02*
D03*
X18940Y18470D02*
D03*
X14390Y18440D02*
D03*
X21030Y27440D02*
D03*
X22250Y27810D02*
D03*
X21760Y28455D02*
D03*
X22990Y23720D02*
D03*
X8940Y20650D02*
D03*
X8110D02*
D03*
X20210Y24807D02*
D03*
Y24307D02*
D03*
Y23807D02*
D03*
Y22807D02*
D03*
X22000Y29960D02*
D03*
X24060Y11900D02*
D03*
X27640D02*
D03*
X27848Y13672D02*
D03*
X32880Y13280D02*
D03*
X18910Y13670D02*
D03*
X16650Y12140D02*
D03*
X17633Y11553D02*
D03*
X18220Y10640D02*
D03*
X18690Y10810D02*
D03*
X19860Y11730D02*
D03*
X19856Y12144D02*
D03*
X18493Y12843D02*
D03*
X23580Y5210D02*
D03*
X20560Y7260D02*
D03*
X19050Y4470D02*
D03*
X19380Y3990D02*
D03*
X19750Y5395D02*
D03*
X20980Y6550D02*
D03*
X23445Y4755D02*
D03*
X13700Y17100D02*
D03*
Y25000D02*
D03*
X21200Y20807D02*
D03*
X20243Y20307D02*
D03*
Y19807D02*
D03*
Y19307D02*
D03*
X12750Y16024D02*
D03*
X4050Y15276D02*
D03*
X28600Y28005D02*
D03*
X23104Y28955D02*
D03*
X28116Y26955D02*
D03*
M02*
