G04*
G04 #@! TF.GenerationSoftware,Altium Limited,Altium Designer,18.1.9 (240)*
G04*
G04 Layer_Color=32896*
%FSLAX24Y24*%
%MOIN*%
G70*
G01*
G75*
%ADD10C,0.0100*%
%ADD13C,0.0079*%
%ADD17C,0.0050*%
%ADD100C,0.0059*%
D10*
X18320Y37338D02*
G03*
X18320Y37338I-48J0D01*
G01*
X11797Y-2647D02*
G03*
X11797Y-2647I-48J0D01*
G01*
X36285Y13555D02*
G03*
X36285Y13555I-48J0D01*
G01*
X27290Y37338D02*
G03*
X27290Y37338I-48J0D01*
G01*
X5866Y7755D02*
G03*
X5866Y7755I-48J0D01*
G01*
D13*
X18458Y37490D02*
Y39490D01*
X10504D02*
X18458D01*
X10504Y37490D02*
Y39490D01*
Y37490D02*
X18458D01*
X11917Y-2854D02*
X21886D01*
Y-1870D01*
X11917D02*
X21886D01*
X11917Y-2854D02*
Y-1870D01*
X36060Y10670D02*
Y13870D01*
X34110Y10670D02*
X36060D01*
X34110D02*
Y13870D01*
X36060D01*
X27428Y37490D02*
Y39490D01*
X19474D02*
X27428D01*
X19474Y37490D02*
Y39490D01*
Y37490D02*
X27428D01*
X5986Y7548D02*
X11954D01*
X5986Y8532D02*
X11954D01*
X5986Y7548D02*
Y8532D01*
X11954Y7548D02*
Y8532D01*
D17*
X6164Y7474D02*
X6247D01*
X6206D01*
Y7266D01*
X6247Y7224D01*
X6289D01*
X6331Y7266D01*
X6081Y7224D02*
X5997D01*
X6039D01*
Y7474D01*
X6081Y7433D01*
X26881Y37342D02*
X26922Y37384D01*
X27006D01*
X27047Y37342D01*
Y37300D01*
X27006Y37259D01*
X26922D01*
X26881Y37217D01*
Y37176D01*
X26922Y37134D01*
X27006D01*
X27047Y37176D01*
X26797Y37384D02*
Y37217D01*
X26714Y37134D01*
X26631Y37217D01*
Y37384D01*
X26547Y37134D02*
X26464D01*
X26506D01*
Y37384D01*
X26547Y37342D01*
X35975Y14277D02*
X36058D01*
X36017D01*
Y14069D01*
X36058Y14028D01*
X36100D01*
X36142Y14069D01*
X35892Y14028D02*
Y14277D01*
X35767D01*
X35725Y14236D01*
Y14153D01*
X35767Y14111D01*
X35892D01*
X35642Y14236D02*
X35600Y14277D01*
X35517D01*
X35475Y14236D01*
Y14194D01*
X35517Y14153D01*
X35559D01*
X35517D01*
X35475Y14111D01*
Y14069D01*
X35517Y14028D01*
X35600D01*
X35642Y14069D01*
X17975Y37342D02*
X18017Y37384D01*
X18100D01*
X18142Y37342D01*
Y37300D01*
X18100Y37259D01*
X18017D01*
X17975Y37217D01*
Y37176D01*
X18017Y37134D01*
X18100D01*
X18142Y37176D01*
X17892Y37384D02*
Y37217D01*
X17809Y37134D01*
X17725Y37217D01*
Y37384D01*
X17642Y37342D02*
X17600Y37384D01*
X17517D01*
X17475Y37342D01*
Y37300D01*
X17517Y37259D01*
X17559D01*
X17517D01*
X17475Y37217D01*
Y37176D01*
X17517Y37134D01*
X17600D01*
X17642Y37176D01*
D100*
X12805Y-2980D02*
X12936D01*
X12870D01*
Y-3308D01*
X12936Y-3374D01*
X13001D01*
X13067Y-3308D01*
X12673Y-3374D02*
Y-2980D01*
X12477D01*
X12411Y-3046D01*
Y-3177D01*
X12477Y-3243D01*
X12673D01*
X12017Y-2980D02*
X12280D01*
Y-3177D01*
X12149Y-3112D01*
X12083D01*
X12017Y-3177D01*
Y-3308D01*
X12083Y-3374D01*
X12214D01*
X12280Y-3308D01*
M02*
