G04*
G04 #@! TF.GenerationSoftware,Altium Limited,Altium Designer,18.1.9 (240)*
G04*
G04 Layer_Color=65535*
%FSLAX24Y24*%
%MOIN*%
G70*
G01*
G75*
%ADD10C,0.0100*%
%ADD11C,0.0098*%
%ADD12C,0.0236*%
%ADD13C,0.0079*%
%ADD14C,0.0157*%
%ADD15C,0.0150*%
%ADD16C,0.0213*%
%ADD17C,0.0050*%
%ADD18C,0.0070*%
D10*
X29897Y14574D02*
G03*
X29897Y14574I-0J0D01*
G01*
X12632Y25394D02*
G03*
X12632Y25394I-0J0D01*
G01*
X5868Y6564D02*
G03*
X5868Y6564I-48J0D01*
G01*
X36012Y8351D02*
G03*
X36012Y8351I-41J0D01*
G01*
X12632Y17494D02*
G03*
X12632Y17494I-0J0D01*
G01*
X9867Y25853D02*
Y26260D01*
X7033Y23869D02*
Y24267D01*
X9867Y23833D02*
Y24231D01*
X9867Y24897D02*
Y25252D01*
Y23105D02*
Y23243D01*
X7033Y23105D02*
Y23243D01*
X7033Y24857D02*
Y25211D01*
Y25863D02*
Y26235D01*
X7025Y26865D02*
X7033Y28243D01*
X9867Y26898D02*
X9869Y28263D01*
X7033Y28838D02*
Y29011D01*
X9867Y28873D02*
Y29011D01*
X7033Y23105D02*
X9867D01*
X7033Y29011D02*
X9867D01*
X29220Y-310D02*
X29287D01*
X26713D02*
X26780D01*
X26713Y-1290D02*
Y-310D01*
X26500Y-5940D02*
Y-1290D01*
X29500Y-5940D02*
Y-1290D01*
X26500D02*
X26713D01*
X26500Y-5940D02*
X29500D01*
X26500Y-5090D02*
X29500D01*
X29287Y-1290D02*
X29500D01*
X29287D02*
Y-310D01*
X31500Y2284D02*
Y5926D01*
X35540Y2284D02*
Y5926D01*
X31500Y2284D02*
X35540D01*
X34340Y5930D02*
X34700D01*
X34340D02*
X34340Y7200D01*
X34700Y7200D01*
Y5930D02*
Y7200D01*
X32340Y5930D02*
X32700D01*
X32340D02*
Y7220D01*
X32700Y7220D01*
Y5930D02*
Y7220D01*
X31500Y5926D02*
X35540D01*
X30360Y-5940D02*
Y-1290D01*
X38390Y-5940D02*
Y-1290D01*
X30360Y-5940D02*
X38390D01*
X30360Y-5090D02*
X38390D01*
X30070Y1738D02*
Y4542D01*
X27510Y1738D02*
Y4542D01*
Y1738D02*
X30070D01*
X27510Y4542D02*
X30070D01*
X36145Y4568D02*
Y9108D01*
Y4568D02*
X38547D01*
Y9108D01*
X36145D02*
X38547D01*
X7033Y21111D02*
X9867D01*
X7033Y15205D02*
X9867D01*
Y20973D02*
Y21111D01*
X7033Y20938D02*
Y21111D01*
X9867Y18998D02*
X9869Y20363D01*
X7025Y18965D02*
X7033Y20343D01*
Y17963D02*
Y18335D01*
Y16957D02*
Y17311D01*
X7033Y15205D02*
Y15343D01*
X9867Y15205D02*
Y15343D01*
Y16997D02*
Y17352D01*
X9867Y15933D02*
Y16331D01*
X7033Y15969D02*
Y16367D01*
X9867Y17953D02*
Y18360D01*
D11*
X26756Y14051D02*
G03*
X26756Y14051I-49J0D01*
G01*
X24728Y13225D02*
G03*
X24728Y13225I-49J0D01*
G01*
X17775Y12360D02*
G03*
X17775Y12360I-49J0D01*
G01*
X23858Y30789D02*
G03*
X23858Y30789I-49J0D01*
G01*
X15885Y26141D02*
G03*
X15885Y26141I-49J0D01*
G01*
X12341Y14882D02*
G03*
X12341Y14882I-49J0D01*
G01*
X20026Y5444D02*
G03*
X20026Y5444I-49J0D01*
G01*
X28553Y129D02*
G03*
X28553Y129I-49J0D01*
G01*
X31215Y10624D02*
G03*
X31215Y10624I-49J0D01*
G01*
X33849Y131D02*
G03*
X33849Y131I-49J0D01*
G01*
X37443Y129D02*
G03*
X37443Y129I-49J0D01*
G01*
X4557Y16418D02*
G03*
X4557Y16418I-49J0D01*
G01*
Y24318D02*
G03*
X4557Y24318I-49J0D01*
G01*
D12*
X25565Y12853D02*
G03*
X25565Y12853I-118J0D01*
G01*
X16859Y25706D02*
G03*
X16859Y25706I-118J0D01*
G01*
D13*
X25360Y30781D02*
G03*
X25860Y30781I250J0D01*
G01*
X29248Y14495D02*
X29641D01*
Y13865D02*
X29838Y14023D01*
X29641Y14495D02*
X29838Y14337D01*
X29248Y13865D02*
X29641D01*
X29838Y14023D02*
Y14337D01*
X28500Y13865D02*
Y14495D01*
X28972D01*
X28500Y13865D02*
X28972D01*
X11983Y25315D02*
X12377D01*
Y24685D02*
X12574Y24843D01*
X12377Y25315D02*
X12574Y25157D01*
X11983Y24685D02*
X12377D01*
X12574Y24843D02*
Y25157D01*
X11235Y24685D02*
Y25315D01*
X11707D01*
X11235Y24685D02*
X11707D01*
X28088Y14543D02*
Y14838D01*
X27809D02*
X28088D01*
X26860D02*
X27139D01*
X26860Y14543D02*
Y14838D01*
X25053Y11554D02*
Y13246D01*
X26687Y11554D02*
Y13246D01*
X25053D02*
X26687D01*
X25053Y11554D02*
X26687D01*
X17981Y12360D02*
Y12419D01*
X18277D01*
X19103D02*
X19399D01*
Y12360D02*
Y12419D01*
Y11081D02*
Y11140D01*
X19103Y11081D02*
X19399D01*
X17981D02*
Y11140D01*
Y11081D02*
X18277D01*
X29394Y37841D02*
X37268D01*
Y21581D02*
Y37841D01*
X29394Y21581D02*
X37268D01*
X29394D02*
Y37841D01*
X24409Y30782D02*
X25360D01*
X25860D02*
X26811D01*
X24409Y26628D02*
X26811D01*
X24409D02*
Y30782D01*
X26811Y26628D02*
Y30782D01*
X16348Y19013D02*
X19084D01*
X16348Y26100D02*
X19084D01*
Y19013D02*
Y26100D01*
X16348Y19013D02*
Y26100D01*
X22401Y1293D02*
X22519D01*
X22401Y1707D02*
X22519D01*
X11505Y16264D02*
X11800D01*
X11505Y15985D02*
Y16264D01*
Y15036D02*
Y15315D01*
Y15036D02*
X11800D01*
X5988Y6772D02*
X11957D01*
X5988Y5787D02*
X11957D01*
X5988D02*
Y6772D01*
X11957Y5787D02*
Y6772D01*
X20232Y5355D02*
Y5503D01*
X20380D01*
X21777D02*
X21925D01*
Y5355D02*
Y5503D01*
Y3810D02*
Y3958D01*
X21777Y3810D02*
X21925D01*
X20232D02*
Y3958D01*
Y3810D02*
X20380D01*
X22401Y2977D02*
X22519D01*
X22401Y2563D02*
X22519D01*
X31657Y9242D02*
X31953D01*
Y9521D01*
Y10191D02*
Y10470D01*
X31657D02*
X31953D01*
X31906Y398D02*
X33874D01*
X31906Y1422D02*
X33874D01*
X31906Y398D02*
Y1422D01*
X33874Y398D02*
Y1422D01*
X36650Y10720D02*
Y12637D01*
Y10720D02*
Y13720D01*
X38650Y10720D02*
Y13720D01*
X36650D02*
X38650D01*
X36650Y10720D02*
X38650D01*
X21910Y-4740D02*
Y-3740D01*
X11910Y-4740D02*
X21910D01*
X11910D02*
Y-3740D01*
X12660D01*
X21910D01*
X11983Y17415D02*
X12377D01*
Y16785D02*
X12574Y16943D01*
X12377Y17415D02*
X12574Y17257D01*
X11983Y16785D02*
X12377D01*
X12574Y16943D02*
Y17257D01*
X11235Y16785D02*
Y17415D01*
X11707D01*
X11235Y16785D02*
X11707D01*
X5000Y15036D02*
X5295D01*
Y15315D01*
Y15985D02*
Y16264D01*
X5000D02*
X5295D01*
X5000Y24164D02*
X5295D01*
Y23885D02*
Y24164D01*
Y22936D02*
Y23215D01*
X5000Y22936D02*
X5295D01*
X1929Y36058D02*
X2349D01*
X2139D01*
Y35428D01*
X2663Y35848D02*
X2873D01*
X2978Y35743D01*
Y35428D01*
X2663D01*
X2558Y35533D01*
X2663Y35638D01*
X2978D01*
X3188Y35428D02*
Y35848D01*
X3293D01*
X3398Y35743D01*
Y35428D01*
Y35743D01*
X3503Y35848D01*
X3608Y35743D01*
Y35428D01*
X3818Y35218D02*
Y35848D01*
X4133D01*
X4238Y35743D01*
Y35533D01*
X4133Y35428D01*
X3818D01*
X4762D02*
X4553D01*
X4448Y35533D01*
Y35743D01*
X4553Y35848D01*
X4762D01*
X4867Y35743D01*
Y35638D01*
X4448D01*
X5077Y35848D02*
Y35428D01*
Y35638D01*
X5182Y35743D01*
X5287Y35848D01*
X5392D01*
X6757Y35953D02*
X6652Y36058D01*
X6442D01*
X6337Y35953D01*
Y35848D01*
X6442Y35743D01*
X6652D01*
X6757Y35638D01*
Y35533D01*
X6652Y35428D01*
X6442D01*
X6337Y35533D01*
X7281Y35428D02*
X7071D01*
X6966Y35533D01*
Y35743D01*
X7071Y35848D01*
X7281D01*
X7386Y35743D01*
Y35638D01*
X6966D01*
X7596Y35428D02*
Y35848D01*
X7911D01*
X8016Y35743D01*
Y35428D01*
X8226D02*
X8541D01*
X8646Y35533D01*
X8541Y35638D01*
X8331D01*
X8226Y35743D01*
X8331Y35848D01*
X8646D01*
X8961Y35428D02*
X9170D01*
X9275Y35533D01*
Y35743D01*
X9170Y35848D01*
X8961D01*
X8856Y35743D01*
Y35533D01*
X8961Y35428D01*
X9485Y35848D02*
Y35428D01*
Y35638D01*
X9590Y35743D01*
X9695Y35848D01*
X9800D01*
X10115Y35428D02*
X10430D01*
X10535Y35533D01*
X10430Y35638D01*
X10220D01*
X10115Y35743D01*
X10220Y35848D01*
X10535D01*
X10850Y35323D02*
X10955Y35428D01*
Y35533D01*
X10850D01*
Y35428D01*
X10955D01*
X10850Y35323D01*
X10745Y35218D01*
X12004Y35428D02*
Y36058D01*
X12319D01*
X12424Y35953D01*
Y35743D01*
X12319Y35638D01*
X12004D01*
X12214D02*
X12424Y35428D01*
X12949D02*
X12739D01*
X12634Y35533D01*
Y35743D01*
X12739Y35848D01*
X12949D01*
X13054Y35743D01*
Y35638D01*
X12634D01*
X13264Y35848D02*
X13474Y35428D01*
X13683Y35848D01*
X13893Y35428D02*
Y35533D01*
X13998D01*
Y35428D01*
X13893D01*
X14838D02*
X14418D01*
X14838Y35848D01*
Y35953D01*
X14733Y36058D01*
X14523D01*
X14418Y35953D01*
D14*
X6746Y29070D02*
G03*
X6746Y29070I-94J0D01*
G01*
Y21170D02*
G03*
X6746Y21170I-94J0D01*
G01*
D15*
X31058Y1954D02*
G03*
X31060Y1954I2J-31D01*
G01*
D16*
X36389Y13800D02*
G03*
X36389Y13800I-39J0D01*
G01*
D17*
X23063Y1281D02*
X23181D01*
X21798Y1250D02*
Y1368D01*
X21739Y1308D02*
X21857D01*
X21739Y2578D02*
X21857D01*
X21798Y2520D02*
Y2638D01*
X23063Y2551D02*
X23181D01*
X35930Y9660D02*
Y9452D01*
X35972Y9410D01*
X36055D01*
X36097Y9452D01*
Y9660D01*
X36347D02*
X36263Y9618D01*
X36180Y9535D01*
Y9452D01*
X36222Y9410D01*
X36305D01*
X36347Y9452D01*
Y9493D01*
X36305Y9535D01*
X36180D01*
X29680Y1580D02*
Y1372D01*
X29722Y1330D01*
X29805D01*
X29847Y1372D01*
Y1580D01*
X29930Y1330D02*
X30013D01*
X29972D01*
Y1580D01*
X29930Y1538D01*
X38037Y154D02*
X37953D01*
X37995D01*
Y-55D01*
X37953Y-96D01*
X37912D01*
X37870Y-55D01*
X38287Y154D02*
X38120D01*
Y29D01*
X38203Y70D01*
X38245D01*
X38287Y29D01*
Y-55D01*
X38245Y-96D01*
X38162D01*
X38120Y-55D01*
X35065Y6450D02*
Y6200D01*
X35190D01*
X35232Y6242D01*
Y6408D01*
X35190Y6450D01*
X35065D01*
X35440Y6200D02*
Y6450D01*
X35315Y6325D01*
X35482D01*
X35247Y418D02*
X35205Y460D01*
X35122D01*
X35080Y418D01*
Y252D01*
X35122Y210D01*
X35205D01*
X35247Y252D01*
X35330Y210D02*
X35413D01*
X35372D01*
Y460D01*
X35330Y418D01*
X12060Y-3570D02*
Y-3320D01*
X12185D01*
X12227Y-3362D01*
Y-3445D01*
X12185Y-3487D01*
X12060D01*
X12143D02*
X12227Y-3570D01*
X12477Y-3320D02*
X12310D01*
Y-3570D01*
X12477D01*
X12310Y-3445D02*
X12393D01*
X12560Y-3570D02*
Y-3320D01*
X12685D01*
X12726Y-3362D01*
Y-3445D01*
X12685Y-3487D01*
X12560D01*
X12810Y-3612D02*
X12976D01*
X13226Y-3320D02*
X13143D01*
X13185D01*
Y-3528D01*
X13143Y-3570D01*
X13101D01*
X13060Y-3528D01*
X13310Y-3570D02*
Y-3320D01*
X13435D01*
X13476Y-3362D01*
Y-3445D01*
X13435Y-3487D01*
X13310D01*
X13726Y-3320D02*
X13560D01*
Y-3445D01*
X13643Y-3403D01*
X13684D01*
X13726Y-3445D01*
Y-3528D01*
X13684Y-3570D01*
X13601D01*
X13560Y-3528D01*
X36730Y13910D02*
Y14160D01*
X36855D01*
X36897Y14118D01*
Y14035D01*
X36855Y13993D01*
X36730D01*
X36813D02*
X36897Y13910D01*
X37147Y14160D02*
X36980D01*
Y13910D01*
X37147D01*
X36980Y14035D02*
X37063D01*
X37230Y13910D02*
Y14160D01*
X37355D01*
X37396Y14118D01*
Y14035D01*
X37355Y13993D01*
X37230D01*
X37480Y13868D02*
X37646D01*
X37896Y14160D02*
X37813D01*
X37855D01*
Y13952D01*
X37813Y13910D01*
X37771D01*
X37730Y13952D01*
X37980Y13910D02*
Y14160D01*
X38105D01*
X38146Y14118D01*
Y14035D01*
X38105Y13993D01*
X37980D01*
X38230Y14118D02*
X38271Y14160D01*
X38354D01*
X38396Y14118D01*
Y14077D01*
X38354Y14035D01*
X38313D01*
X38354D01*
X38396Y13993D01*
Y13952D01*
X38354Y13910D01*
X38271D01*
X38230Y13952D01*
X21250Y2040D02*
X21000D01*
Y2165D01*
X21042Y2207D01*
X21125D01*
X21167Y2165D01*
Y2040D01*
Y2123D02*
X21250Y2207D01*
Y2290D02*
Y2373D01*
Y2332D01*
X21000D01*
X21042Y2290D01*
X21208Y2498D02*
X21250Y2540D01*
Y2623D01*
X21208Y2665D01*
X21042D01*
X21000Y2623D01*
Y2540D01*
X21042Y2498D01*
X21083D01*
X21125Y2540D01*
Y2665D01*
X20810Y2030D02*
X20560D01*
Y2155D01*
X20602Y2197D01*
X20685D01*
X20727Y2155D01*
Y2030D01*
Y2113D02*
X20810Y2197D01*
Y2280D02*
Y2363D01*
Y2322D01*
X20560D01*
X20602Y2280D01*
Y2488D02*
X20560Y2530D01*
Y2613D01*
X20602Y2655D01*
X20643D01*
X20685Y2613D01*
X20727Y2655D01*
X20768D01*
X20810Y2613D01*
Y2530D01*
X20768Y2488D01*
X20727D01*
X20685Y2530D01*
X20643Y2488D01*
X20602D01*
X20685Y2530D02*
Y2613D01*
X31330Y12190D02*
X31080D01*
Y12315D01*
X31122Y12357D01*
X31205D01*
X31247Y12315D01*
Y12190D01*
Y12273D02*
X31330Y12357D01*
Y12440D02*
Y12523D01*
Y12482D01*
X31080D01*
X31122Y12440D01*
X31080Y12648D02*
Y12815D01*
X31122D01*
X31288Y12648D01*
X31330D01*
X31850Y12190D02*
X31600D01*
Y12315D01*
X31642Y12357D01*
X31725D01*
X31767Y12315D01*
Y12190D01*
Y12273D02*
X31850Y12357D01*
Y12440D02*
Y12523D01*
Y12482D01*
X31600D01*
X31642Y12440D01*
X31600Y12815D02*
X31642Y12731D01*
X31725Y12648D01*
X31808D01*
X31850Y12690D01*
Y12773D01*
X31808Y12815D01*
X31767D01*
X31725Y12773D01*
Y12648D01*
X33537Y1800D02*
X33453D01*
X33495D01*
Y1592D01*
X33453Y1550D01*
X33412D01*
X33370Y1592D01*
X33620Y1758D02*
X33662Y1800D01*
X33745D01*
X33787Y1758D01*
Y1717D01*
X33745Y1675D01*
X33703D01*
X33745D01*
X33787Y1633D01*
Y1592D01*
X33745Y1550D01*
X33662D01*
X33620Y1592D01*
X22900Y3250D02*
Y3500D01*
X23025D01*
X23067Y3458D01*
Y3375D01*
X23025Y3333D01*
X22900D01*
X22983D02*
X23067Y3250D01*
X23150D02*
X23233D01*
X23192D01*
Y3500D01*
X23150Y3458D01*
X23525Y3500D02*
X23358D01*
Y3375D01*
X23441Y3417D01*
X23483D01*
X23525Y3375D01*
Y3292D01*
X23483Y3250D01*
X23400D01*
X23358Y3292D01*
X31707Y10690D02*
Y10857D01*
X31665Y10899D01*
X31582D01*
X31540Y10857D01*
Y10690D01*
X31582Y10649D01*
X31665D01*
X31623Y10732D02*
X31707Y10649D01*
X31665D02*
X31707Y10690D01*
X31957Y10899D02*
X31790D01*
Y10774D01*
X31873Y10815D01*
X31915D01*
X31957Y10774D01*
Y10690D01*
X31915Y10649D01*
X31832D01*
X31790Y10690D01*
X23130Y2670D02*
Y2920D01*
X23255D01*
X23297Y2878D01*
Y2795D01*
X23255Y2753D01*
X23130D01*
X23380Y2920D02*
Y2670D01*
X23505D01*
X23547Y2712D01*
Y2878D01*
X23505Y2920D01*
X23380D01*
X23796Y2670D02*
X23630D01*
X23796Y2837D01*
Y2878D01*
X23755Y2920D01*
X23671D01*
X23630Y2878D01*
X28957Y250D02*
X28873D01*
X28915D01*
Y42D01*
X28873Y0D01*
X28832D01*
X28790Y42D01*
X29165Y0D02*
Y250D01*
X29040Y125D01*
X29207D01*
X20280Y21050D02*
Y21300D01*
X20405D01*
X20447Y21258D01*
Y21175D01*
X20405Y21133D01*
X20280D01*
X20363D02*
X20447Y21050D01*
X20530D02*
X20613D01*
X20572D01*
Y21300D01*
X20530Y21258D01*
X20738D02*
X20780Y21300D01*
X20863D01*
X20905Y21258D01*
Y21217D01*
X20863Y21175D01*
X20822D01*
X20863D01*
X20905Y21133D01*
Y21092D01*
X20863Y21050D01*
X20780D01*
X20738Y21092D01*
X19630Y5860D02*
Y5652D01*
X19672Y5610D01*
X19755D01*
X19797Y5652D01*
Y5860D01*
X19880Y5652D02*
X19922Y5610D01*
X20005D01*
X20047Y5652D01*
Y5818D01*
X20005Y5860D01*
X19922D01*
X19880Y5818D01*
Y5777D01*
X19922Y5735D01*
X20047D01*
X5996Y6902D02*
Y7151D01*
X6121D01*
X6163Y7110D01*
Y7027D01*
X6121Y6985D01*
X5996D01*
X6079D02*
X6163Y6902D01*
X6413Y7151D02*
X6246D01*
Y6902D01*
X6413D01*
X6246Y7027D02*
X6329D01*
X6496Y6902D02*
Y7151D01*
X6621D01*
X6663Y7110D01*
Y7027D01*
X6621Y6985D01*
X6496D01*
X6746Y6860D02*
X6912D01*
X7162Y7151D02*
X7079D01*
X7121D01*
Y6943D01*
X7079Y6902D01*
X7037D01*
X6996Y6943D01*
X7246Y6902D02*
X7329D01*
X7287D01*
Y7151D01*
X7246Y7110D01*
X29151Y28230D02*
X28901D01*
Y28355D01*
X28943Y28397D01*
X29026D01*
X29068Y28355D01*
Y28230D01*
Y28314D02*
X29151Y28397D01*
Y28480D02*
Y28564D01*
Y28522D01*
X28901D01*
X28943Y28480D01*
X29151Y28855D02*
Y28688D01*
X28985Y28855D01*
X28943D01*
X28901Y28813D01*
Y28730D01*
X28943Y28688D01*
X29135Y29198D02*
X28886D01*
Y29323D01*
X28927Y29365D01*
X29010D01*
X29052Y29323D01*
Y29198D01*
Y29281D02*
X29135Y29365D01*
Y29448D02*
Y29531D01*
Y29490D01*
X28886D01*
X28927Y29448D01*
Y29656D02*
X28886Y29698D01*
Y29781D01*
X28927Y29823D01*
X29094D01*
X29135Y29781D01*
Y29698D01*
X29094Y29656D01*
X28927D01*
X20320Y2190D02*
X20070D01*
Y2315D01*
X20112Y2357D01*
X20195D01*
X20237Y2315D01*
Y2190D01*
Y2273D02*
X20320Y2357D01*
X20278Y2440D02*
X20320Y2482D01*
Y2565D01*
X20278Y2607D01*
X20112D01*
X20070Y2565D01*
Y2482D01*
X20112Y2440D01*
X20153D01*
X20195Y2482D01*
Y2607D01*
X11817Y14642D02*
Y14808D01*
X11775Y14850D01*
X11692D01*
X11650Y14808D01*
Y14642D01*
X11692Y14600D01*
X11775D01*
X11733Y14683D02*
X11817Y14600D01*
X11775D02*
X11817Y14642D01*
X12025Y14600D02*
Y14850D01*
X11900Y14725D01*
X12067D01*
X4487Y24712D02*
Y24878D01*
X4445Y24920D01*
X4362D01*
X4320Y24878D01*
Y24712D01*
X4362Y24670D01*
X4445D01*
X4403Y24753D02*
X4487Y24670D01*
X4445D02*
X4487Y24712D01*
X4570Y24878D02*
X4612Y24920D01*
X4695D01*
X4737Y24878D01*
Y24837D01*
X4695Y24795D01*
X4653D01*
X4695D01*
X4737Y24753D01*
Y24712D01*
X4695Y24670D01*
X4612D01*
X4570Y24712D01*
X4867Y16459D02*
Y16626D01*
X4825Y16668D01*
X4742D01*
X4700Y16626D01*
Y16459D01*
X4742Y16418D01*
X4825D01*
X4783Y16501D02*
X4867Y16418D01*
X4825D02*
X4867Y16459D01*
X5117Y16418D02*
X4950D01*
X5117Y16584D01*
Y16626D01*
X5075Y16668D01*
X4992D01*
X4950Y16626D01*
X23180Y1380D02*
Y1630D01*
X23305D01*
X23347Y1588D01*
Y1505D01*
X23305Y1463D01*
X23180D01*
X23430Y1630D02*
Y1380D01*
X23555D01*
X23597Y1422D01*
Y1588D01*
X23555Y1630D01*
X23430D01*
X23680Y1380D02*
X23763D01*
X23721D01*
Y1630D01*
X23680Y1588D01*
X22417Y30428D02*
X22375Y30470D01*
X22292D01*
X22250Y30428D01*
Y30262D01*
X22292Y30220D01*
X22375D01*
X22417Y30262D01*
X22500Y30220D02*
X22583D01*
X22542D01*
Y30470D01*
X22500Y30428D01*
X22708Y30220D02*
X22791D01*
X22750D01*
Y30470D01*
X22708Y30428D01*
X22092Y29107D02*
X22050Y29065D01*
Y28982D01*
X22092Y28940D01*
X22258D01*
X22300Y28982D01*
Y29065D01*
X22258Y29107D01*
X22300Y29190D02*
Y29273D01*
Y29232D01*
X22050D01*
X22092Y29190D01*
Y29398D02*
X22050Y29440D01*
Y29523D01*
X22092Y29565D01*
X22258D01*
X22300Y29523D01*
Y29440D01*
X22258Y29398D01*
X22092D01*
X14542Y21567D02*
X14500Y21525D01*
Y21442D01*
X14542Y21400D01*
X14708D01*
X14750Y21442D01*
Y21525D01*
X14708Y21567D01*
Y21650D02*
X14750Y21692D01*
Y21775D01*
X14708Y21817D01*
X14542D01*
X14500Y21775D01*
Y21692D01*
X14542Y21650D01*
X14583D01*
X14625Y21692D01*
Y21817D01*
X20155Y6447D02*
X20114Y6405D01*
Y6322D01*
X20155Y6280D01*
X20322D01*
X20364Y6322D01*
Y6405D01*
X20322Y6447D01*
X20155Y6530D02*
X20114Y6572D01*
Y6655D01*
X20155Y6697D01*
X20197D01*
X20239Y6655D01*
X20280Y6697D01*
X20322D01*
X20364Y6655D01*
Y6572D01*
X20322Y6530D01*
X20280D01*
X20239Y6572D01*
X20197Y6530D01*
X20155D01*
X20239Y6572D02*
Y6655D01*
X23017Y5638D02*
X22975Y5680D01*
X22892D01*
X22850Y5638D01*
Y5472D01*
X22892Y5430D01*
X22975D01*
X23017Y5472D01*
X23100Y5680D02*
X23267D01*
Y5638D01*
X23100Y5472D01*
Y5430D01*
X21252Y5987D02*
X21210Y5945D01*
Y5862D01*
X21252Y5820D01*
X21418D01*
X21460Y5862D01*
Y5945D01*
X21418Y5987D01*
X21210Y6237D02*
X21252Y6153D01*
X21335Y6070D01*
X21418D01*
X21460Y6112D01*
Y6195D01*
X21418Y6237D01*
X21377D01*
X21335Y6195D01*
Y6070D01*
X22947Y4518D02*
X22905Y4560D01*
X22822D01*
X22780Y4518D01*
Y4352D01*
X22822Y4310D01*
X22905D01*
X22947Y4352D01*
X23197Y4560D02*
X23030D01*
Y4435D01*
X23113Y4477D01*
X23155D01*
X23197Y4435D01*
Y4352D01*
X23155Y4310D01*
X23072D01*
X23030Y4352D01*
X6435Y29490D02*
Y29740D01*
X6560D01*
X6601Y29698D01*
Y29615D01*
X6560Y29573D01*
X6435D01*
X6518D02*
X6601Y29490D01*
X6685Y29740D02*
Y29490D01*
X6851D01*
X6935Y29740D02*
Y29698D01*
X7018Y29615D01*
X7101Y29698D01*
Y29740D01*
X7018Y29615D02*
Y29490D01*
X7351D02*
X7185D01*
X7351Y29657D01*
Y29698D01*
X7310Y29740D01*
X7226D01*
X7185Y29698D01*
X6430Y21590D02*
Y21840D01*
X6555D01*
X6597Y21798D01*
Y21715D01*
X6555Y21673D01*
X6430D01*
X6513D02*
X6597Y21590D01*
X6680Y21840D02*
Y21590D01*
X6847D01*
X6930Y21840D02*
Y21798D01*
X7013Y21715D01*
X7096Y21798D01*
Y21840D01*
X7013Y21715D02*
Y21590D01*
X7180D02*
X7263D01*
X7221D01*
Y21840D01*
X7180Y21798D01*
X15426Y26738D02*
Y26530D01*
X15468Y26488D01*
X15551D01*
X15593Y26530D01*
Y26738D01*
X15843D02*
X15676D01*
Y26613D01*
X15759Y26654D01*
X15801D01*
X15843Y26613D01*
Y26530D01*
X15801Y26488D01*
X15718D01*
X15676Y26530D01*
X23661Y31207D02*
Y30998D01*
X23703Y30957D01*
X23786D01*
X23828Y30998D01*
Y31207D01*
X24036Y30957D02*
Y31207D01*
X23911Y31082D01*
X24078D01*
X29580Y38222D02*
X29497D01*
X29538D01*
Y38014D01*
X29497Y37972D01*
X29455D01*
X29413Y38014D01*
X29830Y37972D02*
X29663D01*
X29830Y38139D01*
Y38181D01*
X29788Y38222D01*
X29705D01*
X29663Y38181D01*
X17450Y12830D02*
Y12622D01*
X17492Y12580D01*
X17575D01*
X17617Y12622D01*
Y12830D01*
X17700Y12788D02*
X17742Y12830D01*
X17825D01*
X17867Y12788D01*
Y12747D01*
X17825Y12705D01*
X17783D01*
X17825D01*
X17867Y12663D01*
Y12622D01*
X17825Y12580D01*
X17742D01*
X17700Y12622D01*
X21610Y1985D02*
Y2235D01*
X21735D01*
X21777Y2194D01*
Y2110D01*
X21735Y2069D01*
X21610D01*
X21693D02*
X21777Y1985D01*
X21860Y2194D02*
X21902Y2235D01*
X21985D01*
X22027Y2194D01*
Y2152D01*
X21985Y2110D01*
X22027Y2069D01*
Y2027D01*
X21985Y1985D01*
X21902D01*
X21860Y2027D01*
Y2069D01*
X21902Y2110D01*
X21860Y2152D01*
Y2194D01*
X21902Y2110D02*
X21985D01*
X29037Y9526D02*
Y9776D01*
X29162D01*
X29204Y9734D01*
Y9651D01*
X29162Y9609D01*
X29037D01*
X29121D02*
X29204Y9526D01*
X29287Y9776D02*
X29454D01*
Y9734D01*
X29287Y9568D01*
Y9526D01*
X25830Y3490D02*
X26080D01*
Y3365D01*
X26038Y3323D01*
X25955D01*
X25913Y3365D01*
Y3490D01*
Y3407D02*
X25830Y3323D01*
X26038Y3240D02*
X26080Y3198D01*
Y3115D01*
X26038Y3074D01*
X25997D01*
X25955Y3115D01*
Y3157D01*
Y3115D01*
X25913Y3074D01*
X25872D01*
X25830Y3115D01*
Y3198D01*
X25872Y3240D01*
X35080Y800D02*
Y1050D01*
X35205D01*
X35247Y1008D01*
Y925D01*
X35205Y883D01*
X35080D01*
X35163D02*
X35247Y800D01*
X35497D02*
X35330D01*
X35497Y967D01*
Y1008D01*
X35455Y1050D01*
X35372D01*
X35330Y1008D01*
X17127Y11868D02*
X17085Y11910D01*
X17002D01*
X16960Y11868D01*
Y11702D01*
X17002Y11660D01*
X17085D01*
X17127Y11702D01*
X17210Y11868D02*
X17252Y11910D01*
X17335D01*
X17377Y11868D01*
Y11827D01*
X17335Y11785D01*
X17293D01*
X17335D01*
X17377Y11743D01*
Y11702D01*
X17335Y11660D01*
X17252D01*
X17210Y11702D01*
X19162Y13137D02*
X19120Y13095D01*
Y13012D01*
X19162Y12970D01*
X19328D01*
X19370Y13012D01*
Y13095D01*
X19328Y13137D01*
X19370Y13387D02*
Y13220D01*
X19203Y13387D01*
X19162D01*
X19120Y13345D01*
Y13262D01*
X19162Y13220D01*
X24520Y13780D02*
Y13572D01*
X24562Y13530D01*
X24645D01*
X24687Y13572D01*
Y13780D01*
X24937Y13530D02*
X24770D01*
X24937Y13697D01*
Y13738D01*
X24895Y13780D01*
X24812D01*
X24770Y13738D01*
X12950Y25200D02*
Y25450D01*
X13075D01*
X13117Y25408D01*
Y25325D01*
X13075Y25283D01*
X12950D01*
X13033D02*
X13117Y25200D01*
X13367Y25450D02*
X13283Y25408D01*
X13200Y25325D01*
Y25242D01*
X13242Y25200D01*
X13325D01*
X13367Y25242D01*
Y25283D01*
X13325Y25325D01*
X13200D01*
X12934Y17352D02*
Y17602D01*
X13059D01*
X13100Y17560D01*
Y17477D01*
X13059Y17435D01*
X12934D01*
X13017D02*
X13100Y17352D01*
X13350Y17602D02*
X13184D01*
Y17477D01*
X13267Y17519D01*
X13309D01*
X13350Y17477D01*
Y17394D01*
X13309Y17352D01*
X13225D01*
X13184Y17394D01*
X28520Y15230D02*
Y15480D01*
X28645D01*
X28687Y15438D01*
Y15355D01*
X28645Y15313D01*
X28520D01*
X28603D02*
X28687Y15230D01*
X28895D02*
Y15480D01*
X28770Y15355D01*
X28937D01*
X25480Y14240D02*
Y14490D01*
X25605D01*
X25647Y14448D01*
Y14365D01*
X25605Y14323D01*
X25480D01*
X25563D02*
X25647Y14240D01*
X25730D02*
X25813D01*
X25772D01*
Y14490D01*
X25730Y14448D01*
X25938Y14240D02*
X26021D01*
X25980D01*
Y14490D01*
X25938Y14448D01*
X27900Y12430D02*
Y12680D01*
X28025D01*
X28067Y12638D01*
Y12555D01*
X28025Y12513D01*
X27900D01*
X27983D02*
X28067Y12430D01*
X28150D02*
X28233D01*
X28192D01*
Y12680D01*
X28150Y12638D01*
X28483Y12430D02*
Y12680D01*
X28358Y12555D01*
X28525D01*
X26557Y14322D02*
Y14488D01*
X26515Y14530D01*
X26432D01*
X26390Y14488D01*
Y14322D01*
X26432Y14280D01*
X26515D01*
X26473Y14363D02*
X26557Y14280D01*
X26515D02*
X26557Y14322D01*
X26640Y14280D02*
X26723D01*
X26682D01*
Y14530D01*
X26640Y14488D01*
X11900Y25650D02*
Y25400D01*
X12025D01*
X12067Y25442D01*
Y25608D01*
X12025Y25650D01*
X11900D01*
X12150Y25608D02*
X12192Y25650D01*
X12275D01*
X12317Y25608D01*
Y25567D01*
X12275Y25525D01*
X12233D01*
X12275D01*
X12317Y25483D01*
Y25442D01*
X12275Y25400D01*
X12192D01*
X12150Y25442D01*
X11950Y17800D02*
Y17550D01*
X12075D01*
X12117Y17592D01*
Y17758D01*
X12075Y17800D01*
X11950D01*
X12367Y17550D02*
X12200D01*
X12367Y17717D01*
Y17758D01*
X12325Y17800D01*
X12242D01*
X12200Y17758D01*
X29020Y13710D02*
Y13460D01*
X29145D01*
X29187Y13502D01*
Y13668D01*
X29145Y13710D01*
X29020D01*
X29270Y13460D02*
X29353D01*
X29312D01*
Y13710D01*
X29270Y13668D01*
X33250Y13555D02*
Y13805D01*
X33375D01*
X33417Y13763D01*
Y13680D01*
X33375Y13638D01*
X33250D01*
X33333D02*
X33417Y13555D01*
X33500D02*
X33583D01*
X33542D01*
Y13805D01*
X33500Y13763D01*
D18*
X33366Y21111D02*
Y21378D01*
X33272Y38004D02*
Y38271D01*
X33138Y38137D02*
X33405D01*
X12460Y-6110D02*
Y-5710D01*
X12660D01*
X12727Y-5777D01*
Y-5910D01*
X12660Y-5977D01*
X12460D01*
X13126Y-5777D02*
X13060Y-5710D01*
X12927D01*
X12860Y-5777D01*
Y-6043D01*
X12927Y-6110D01*
X13060D01*
X13126Y-6043D01*
X13260Y-5710D02*
Y-6110D01*
X13460D01*
X13526Y-6043D01*
Y-5977D01*
X13460Y-5910D01*
X13260D01*
X13460D01*
X13526Y-5843D01*
Y-5777D01*
X13460Y-5710D01*
X13260D01*
X13660Y-5910D02*
X13926D01*
X14059Y-5777D02*
X14126Y-5710D01*
X14259D01*
X14326Y-5777D01*
Y-6043D01*
X14259Y-6110D01*
X14126D01*
X14059Y-6043D01*
Y-5777D01*
X14459D02*
X14526Y-5710D01*
X14659D01*
X14726Y-5777D01*
Y-6043D01*
X14659Y-6110D01*
X14526D01*
X14459Y-6043D01*
Y-5777D01*
X14859D02*
X14926Y-5710D01*
X15059D01*
X15126Y-5777D01*
Y-6043D01*
X15059Y-6110D01*
X14926D01*
X14859Y-6043D01*
Y-5777D01*
X15526Y-6110D02*
X15259D01*
X15526Y-5843D01*
Y-5777D01*
X15459Y-5710D01*
X15326D01*
X15259Y-5777D01*
X15659Y-5710D02*
X15926D01*
Y-5777D01*
X15659Y-6043D01*
Y-6110D01*
X16059Y-5777D02*
X16125Y-5710D01*
X16259D01*
X16325Y-5777D01*
Y-6043D01*
X16259Y-6110D01*
X16125D01*
X16059Y-6043D01*
Y-5777D01*
X16459Y-5910D02*
X16725D01*
X16859Y-5777D02*
X16925Y-5710D01*
X17059D01*
X17125Y-5777D01*
Y-6043D01*
X17059Y-6110D01*
X16925D01*
X16859Y-6043D01*
Y-5777D01*
X17525Y-6110D02*
X17258D01*
X17525Y-5843D01*
Y-5777D01*
X17458Y-5710D01*
X17325D01*
X17258Y-5777D01*
X6400Y5260D02*
Y5660D01*
X6600D01*
X6667Y5593D01*
Y5460D01*
X6600Y5393D01*
X6400D01*
X6800Y5527D02*
Y5260D01*
Y5393D01*
X6867Y5460D01*
X6933Y5527D01*
X7000D01*
X7266Y5260D02*
X7400D01*
X7466Y5327D01*
Y5460D01*
X7400Y5527D01*
X7266D01*
X7200Y5460D01*
Y5327D01*
X7266Y5260D01*
X7733Y5127D02*
X7800D01*
X7866Y5193D01*
Y5527D01*
X7666D01*
X7600Y5460D01*
Y5327D01*
X7666Y5260D01*
X7866D01*
X7999Y5527D02*
Y5260D01*
Y5393D01*
X8066Y5460D01*
X8133Y5527D01*
X8199D01*
X8466D02*
X8599D01*
X8666Y5460D01*
Y5260D01*
X8466D01*
X8399Y5327D01*
X8466Y5393D01*
X8666D01*
X8799Y5260D02*
Y5527D01*
X8866D01*
X8933Y5460D01*
Y5260D01*
Y5460D01*
X8999Y5527D01*
X9066Y5460D01*
Y5260D01*
X9599Y5660D02*
Y5260D01*
Y5460D01*
X9866D01*
Y5660D01*
Y5260D01*
X10199D02*
X10065D01*
X9999Y5327D01*
Y5460D01*
X10065Y5527D01*
X10199D01*
X10265Y5460D01*
Y5393D01*
X9999D01*
X10465Y5527D02*
X10599D01*
X10665Y5460D01*
Y5260D01*
X10465D01*
X10399Y5327D01*
X10465Y5393D01*
X10665D01*
X11065Y5660D02*
Y5260D01*
X10865D01*
X10799Y5327D01*
Y5460D01*
X10865Y5527D01*
X11065D01*
X11398Y5260D02*
X11265D01*
X11198Y5327D01*
Y5460D01*
X11265Y5527D01*
X11398D01*
X11465Y5460D01*
Y5393D01*
X11198D01*
X11598Y5527D02*
Y5260D01*
Y5393D01*
X11665Y5460D01*
X11732Y5527D01*
X11798D01*
X5940Y15060D02*
Y14660D01*
X6207D01*
X6407Y14927D02*
X6540D01*
X6606Y14860D01*
Y14660D01*
X6407D01*
X6340Y14727D01*
X6407Y14793D01*
X6606D01*
X6806Y14993D02*
Y14927D01*
X6740D01*
X6873D01*
X6806D01*
Y14727D01*
X6873Y14660D01*
X7340Y14927D02*
X7140D01*
X7073Y14860D01*
Y14727D01*
X7140Y14660D01*
X7340D01*
X7473Y15060D02*
Y14660D01*
Y14860D01*
X7539Y14927D01*
X7673D01*
X7739Y14860D01*
Y14660D01*
X7873D02*
X8006D01*
X7939D01*
Y14927D01*
X7873D01*
X8206Y14660D02*
Y14927D01*
X8406D01*
X8473Y14860D01*
Y14660D01*
X8739Y14527D02*
X8806D01*
X8872Y14593D01*
Y14927D01*
X8672D01*
X8606Y14860D01*
Y14727D01*
X8672Y14660D01*
X8872D01*
X9406D02*
Y15060D01*
X9605D01*
X9672Y14993D01*
Y14860D01*
X9605Y14793D01*
X9406D01*
X9539D02*
X9672Y14660D01*
X10005D02*
X9872D01*
X9805Y14727D01*
Y14860D01*
X9872Y14927D01*
X10005D01*
X10072Y14860D01*
Y14793D01*
X9805D01*
X10205Y14660D02*
X10339D01*
X10272D01*
Y15060D01*
X10205D01*
X10605Y14927D02*
X10738D01*
X10805Y14860D01*
Y14660D01*
X10605D01*
X10539Y14727D01*
X10605Y14793D01*
X10805D01*
X10938Y14927D02*
Y14727D01*
X11005Y14660D01*
X11205D01*
Y14593D01*
X11138Y14527D01*
X11072D01*
X11205Y14660D02*
Y14927D01*
X6080Y22940D02*
Y22540D01*
X6347D01*
X6547Y22807D02*
X6680D01*
X6746Y22740D01*
Y22540D01*
X6547D01*
X6480Y22607D01*
X6547Y22673D01*
X6746D01*
X6946Y22873D02*
Y22807D01*
X6880D01*
X7013D01*
X6946D01*
Y22607D01*
X7013Y22540D01*
X7480Y22807D02*
X7280D01*
X7213Y22740D01*
Y22607D01*
X7280Y22540D01*
X7480D01*
X7613Y22940D02*
Y22540D01*
Y22740D01*
X7679Y22807D01*
X7813D01*
X7879Y22740D01*
Y22540D01*
X8013D02*
X8146D01*
X8079D01*
Y22807D01*
X8013D01*
X8346Y22540D02*
Y22807D01*
X8546D01*
X8613Y22740D01*
Y22540D01*
X8879Y22407D02*
X8946D01*
X9012Y22473D01*
Y22807D01*
X8812D01*
X8746Y22740D01*
Y22607D01*
X8812Y22540D01*
X9012D01*
X9546D02*
Y22940D01*
X9745D01*
X9812Y22873D01*
Y22740D01*
X9745Y22673D01*
X9546D01*
X9679D02*
X9812Y22540D01*
X10145D02*
X10012D01*
X9945Y22607D01*
Y22740D01*
X10012Y22807D01*
X10145D01*
X10212Y22740D01*
Y22673D01*
X9945D01*
X10345Y22540D02*
X10479D01*
X10412D01*
Y22940D01*
X10345D01*
X10745Y22807D02*
X10878D01*
X10945Y22740D01*
Y22540D01*
X10745D01*
X10679Y22607D01*
X10745Y22673D01*
X10945D01*
X11078Y22807D02*
Y22607D01*
X11145Y22540D01*
X11345D01*
Y22473D01*
X11278Y22407D01*
X11212D01*
X11345Y22540D02*
Y22807D01*
X24100Y11280D02*
X24367D01*
X24233D01*
Y10880D01*
X24567Y11147D02*
X24700D01*
X24766Y11080D01*
Y10880D01*
X24567D01*
X24500Y10947D01*
X24567Y11013D01*
X24766D01*
X24900Y10880D02*
Y11147D01*
X24966D01*
X25033Y11080D01*
Y10880D01*
Y11080D01*
X25100Y11147D01*
X25166Y11080D01*
Y10880D01*
X25300Y10747D02*
Y11147D01*
X25500D01*
X25566Y11080D01*
Y10947D01*
X25500Y10880D01*
X25300D01*
X25899D02*
X25766D01*
X25699Y10947D01*
Y11080D01*
X25766Y11147D01*
X25899D01*
X25966Y11080D01*
Y11013D01*
X25699D01*
X26099Y11147D02*
Y10880D01*
Y11013D01*
X26166Y11080D01*
X26233Y11147D01*
X26299D01*
X27099Y11280D02*
X26966D01*
X26899Y11213D01*
Y10947D01*
X26966Y10880D01*
X27099D01*
X27166Y10947D01*
Y11213D01*
X27099Y11280D01*
X27299Y10747D02*
Y11147D01*
X27499D01*
X27566Y11080D01*
Y10947D01*
X27499Y10880D01*
X27299D01*
X27765Y11213D02*
Y11147D01*
X27699D01*
X27832D01*
X27765D01*
Y10947D01*
X27832Y10880D01*
X28099D02*
X28232D01*
X28299Y10947D01*
Y11080D01*
X28232Y11147D01*
X28099D01*
X28032Y11080D01*
Y10947D01*
X28099Y10880D01*
X16460Y10020D02*
Y10287D01*
X16593Y10420D01*
X16727Y10287D01*
Y10020D01*
Y10220D01*
X16460D01*
X17126Y10287D02*
X16927D01*
X16860Y10220D01*
Y10087D01*
X16927Y10020D01*
X17126D01*
X17526Y10287D02*
X17326D01*
X17260Y10220D01*
Y10087D01*
X17326Y10020D01*
X17526D01*
X17860D02*
X17726D01*
X17660Y10087D01*
Y10220D01*
X17726Y10287D01*
X17860D01*
X17926Y10220D01*
Y10153D01*
X17660D01*
X18059Y10020D02*
X18193D01*
X18126D01*
Y10420D01*
X18059D01*
X18593Y10020D02*
X18459D01*
X18393Y10087D01*
Y10220D01*
X18459Y10287D01*
X18593D01*
X18659Y10220D01*
Y10153D01*
X18393D01*
X18793Y10287D02*
Y10020D01*
Y10153D01*
X18859Y10220D01*
X18926Y10287D01*
X18993D01*
X19259Y10020D02*
X19392D01*
X19459Y10087D01*
Y10220D01*
X19392Y10287D01*
X19259D01*
X19192Y10220D01*
Y10087D01*
X19259Y10020D01*
X19592D02*
Y10287D01*
X19659D01*
X19726Y10220D01*
Y10020D01*
Y10220D01*
X19792Y10287D01*
X19859Y10220D01*
Y10020D01*
X20192D02*
X20059D01*
X19992Y10087D01*
Y10220D01*
X20059Y10287D01*
X20192D01*
X20259Y10220D01*
Y10153D01*
X19992D01*
X20459Y10353D02*
Y10287D01*
X20392D01*
X20525D01*
X20459D01*
Y10087D01*
X20525Y10020D01*
X20925D02*
X20792D01*
X20725Y10087D01*
Y10220D01*
X20792Y10287D01*
X20925D01*
X20992Y10220D01*
Y10153D01*
X20725D01*
X21125Y10287D02*
Y10020D01*
Y10153D01*
X21192Y10220D01*
X21258Y10287D01*
X21325D01*
X38107Y27887D02*
X38040Y27820D01*
Y27687D01*
X38107Y27620D01*
X38373D01*
X38440Y27687D01*
Y27820D01*
X38373Y27887D01*
X38440Y28020D02*
X38040D01*
Y28220D01*
X38107Y28286D01*
X38240D01*
X38307Y28220D01*
Y28020D01*
Y28153D02*
X38440Y28286D01*
Y28420D02*
Y28553D01*
Y28486D01*
X38040D01*
X38107Y28420D01*
X38440Y29020D02*
Y28753D01*
X38173Y29020D01*
X38107D01*
X38040Y28953D01*
Y28820D01*
X38107Y28753D01*
Y29153D02*
X38040Y29219D01*
Y29353D01*
X38107Y29419D01*
X38173D01*
X38240Y29353D01*
Y29286D01*
Y29353D01*
X38307Y29419D01*
X38373D01*
X38440Y29353D01*
Y29219D01*
X38373Y29153D01*
X38040Y29953D02*
X38440D01*
Y30153D01*
X38373Y30219D01*
X38307D01*
X38240Y30153D01*
Y29953D01*
Y30153D01*
X38173Y30219D01*
X38107D01*
X38040Y30153D01*
Y29953D01*
X38173Y30419D02*
Y30552D01*
X38240Y30619D01*
X38440D01*
Y30419D01*
X38373Y30352D01*
X38307Y30419D01*
Y30619D01*
X38107Y30819D02*
X38173D01*
Y30752D01*
Y30886D01*
Y30819D01*
X38373D01*
X38440Y30886D01*
X38107Y31152D02*
X38173D01*
Y31086D01*
Y31219D01*
Y31152D01*
X38373D01*
X38440Y31219D01*
Y31619D02*
Y31485D01*
X38373Y31419D01*
X38240D01*
X38173Y31485D01*
Y31619D01*
X38240Y31685D01*
X38307D01*
Y31419D01*
X38173Y31819D02*
X38440D01*
X38307D01*
X38240Y31885D01*
X38173Y31952D01*
Y32019D01*
Y32219D02*
X38373D01*
X38440Y32285D01*
Y32485D01*
X38507D01*
X38573Y32418D01*
Y32352D01*
X38440Y32485D02*
X38173D01*
X23730Y26380D02*
Y25980D01*
X23930D01*
X23997Y26047D01*
Y26113D01*
X23930Y26180D01*
X23730D01*
X23930D01*
X23997Y26247D01*
Y26313D01*
X23930Y26380D01*
X23730D01*
X24197Y26247D02*
X24330D01*
X24396Y26180D01*
Y25980D01*
X24197D01*
X24130Y26047D01*
X24197Y26113D01*
X24396D01*
X24596Y26313D02*
Y26247D01*
X24530D01*
X24663D01*
X24596D01*
Y26047D01*
X24663Y25980D01*
X24930Y26313D02*
Y26247D01*
X24863D01*
X24996D01*
X24930D01*
Y26047D01*
X24996Y25980D01*
X25596D02*
Y26380D01*
X25729Y26247D01*
X25863Y26380D01*
Y25980D01*
X26063D02*
X26196D01*
X26263Y26047D01*
Y26180D01*
X26196Y26247D01*
X26063D01*
X25996Y26180D01*
Y26047D01*
X26063Y25980D01*
X26396D02*
Y26247D01*
X26596D01*
X26662Y26180D01*
Y25980D01*
X26796D02*
X26929D01*
X26862D01*
Y26247D01*
X26796D01*
X27196Y26313D02*
Y26247D01*
X27129D01*
X27262D01*
X27196D01*
Y26047D01*
X27262Y25980D01*
X27529D02*
X27662D01*
X27729Y26047D01*
Y26180D01*
X27662Y26247D01*
X27529D01*
X27462Y26180D01*
Y26047D01*
X27529Y25980D01*
X27862Y26247D02*
Y25980D01*
Y26113D01*
X27929Y26180D01*
X27995Y26247D01*
X28062D01*
X16037Y18663D02*
X15970Y18730D01*
X15837D01*
X15770Y18663D01*
Y18597D01*
X15837Y18530D01*
X15970D01*
X16037Y18463D01*
Y18397D01*
X15970Y18330D01*
X15837D01*
X15770Y18397D01*
X16170Y18330D02*
Y18730D01*
X16370D01*
X16436Y18663D01*
Y18530D01*
X16370Y18463D01*
X16170D01*
X16570Y18730D02*
X16703D01*
X16636D01*
Y18330D01*
X16570D01*
X16703D01*
X17569Y18730D02*
X17303D01*
Y18330D01*
X17569D01*
X17303Y18530D02*
X17436D01*
X17703Y18597D02*
X17969Y18330D01*
X17836Y18463D01*
X17969Y18597D01*
X17703Y18330D01*
X18103Y18197D02*
Y18597D01*
X18303D01*
X18369Y18530D01*
Y18397D01*
X18303Y18330D01*
X18103D01*
X18569Y18597D02*
X18702D01*
X18769Y18530D01*
Y18330D01*
X18569D01*
X18502Y18397D01*
X18569Y18463D01*
X18769D01*
X18902Y18330D02*
Y18597D01*
X19102D01*
X19169Y18530D01*
Y18330D01*
X19569Y18730D02*
Y18330D01*
X19369D01*
X19302Y18397D01*
Y18530D01*
X19369Y18597D01*
X19569D01*
X19902Y18330D02*
X19769D01*
X19702Y18397D01*
Y18530D01*
X19769Y18597D01*
X19902D01*
X19969Y18530D01*
Y18463D01*
X19702D01*
X20102Y18597D02*
Y18330D01*
Y18463D01*
X20169Y18530D01*
X20235Y18597D01*
X20302D01*
X11190Y26360D02*
Y25960D01*
X11457D01*
X11657D02*
X11790D01*
X11856Y26027D01*
Y26160D01*
X11790Y26227D01*
X11657D01*
X11590Y26160D01*
Y26027D01*
X11657Y25960D01*
X11990Y26227D02*
Y26027D01*
X12056Y25960D01*
X12123Y26027D01*
X12190Y25960D01*
X12256Y26027D01*
Y26227D01*
X12789Y26360D02*
Y25960D01*
X13056D01*
X13189D02*
X13323D01*
X13256D01*
Y26227D01*
X13189D01*
X13523Y25960D02*
Y26227D01*
X13723D01*
X13789Y26160D01*
Y25960D01*
X14122D02*
X13989D01*
X13922Y26027D01*
Y26160D01*
X13989Y26227D01*
X14122D01*
X14189Y26160D01*
Y26093D01*
X13922D01*
X11220Y18440D02*
Y18040D01*
X11353Y18173D01*
X11487Y18040D01*
Y18440D01*
X11687Y18307D02*
X11820D01*
X11886Y18240D01*
Y18040D01*
X11687D01*
X11620Y18107D01*
X11687Y18173D01*
X11886D01*
X12086Y18373D02*
Y18307D01*
X12020D01*
X12153D01*
X12086D01*
Y18107D01*
X12153Y18040D01*
X12620Y18307D02*
X12420D01*
X12353Y18240D01*
Y18107D01*
X12420Y18040D01*
X12620D01*
X12753Y18440D02*
Y18040D01*
Y18240D01*
X12819Y18307D01*
X12953D01*
X13019Y18240D01*
Y18040D01*
X13419Y18440D02*
Y18040D01*
X13219D01*
X13153Y18107D01*
Y18240D01*
X13219Y18307D01*
X13419D01*
X13619Y18040D02*
X13753D01*
X13819Y18107D01*
Y18240D01*
X13753Y18307D01*
X13619D01*
X13553Y18240D01*
Y18107D01*
X13619Y18040D01*
X14086Y17907D02*
X14152D01*
X14219Y17973D01*
Y18307D01*
X14019D01*
X13952Y18240D01*
Y18107D01*
X14019Y18040D01*
X14219D01*
X30160Y14410D02*
X30427D01*
X30293D01*
Y14010D01*
X30627Y14277D02*
X30760D01*
X30826Y14210D01*
Y14010D01*
X30627D01*
X30560Y14077D01*
X30627Y14143D01*
X30826D01*
X30960Y14010D02*
Y14277D01*
X31026D01*
X31093Y14210D01*
Y14010D01*
Y14210D01*
X31160Y14277D01*
X31226Y14210D01*
Y14010D01*
X31360Y13877D02*
Y14277D01*
X31560D01*
X31626Y14210D01*
Y14077D01*
X31560Y14010D01*
X31360D01*
X31959D02*
X31826D01*
X31759Y14077D01*
Y14210D01*
X31826Y14277D01*
X31959D01*
X32026Y14210D01*
Y14143D01*
X31759D01*
X32159Y14277D02*
Y14010D01*
Y14143D01*
X32226Y14210D01*
X32293Y14277D01*
X32359D01*
X21327Y433D02*
X21260Y500D01*
X21127D01*
X21060Y433D01*
Y367D01*
X21127Y300D01*
X21260D01*
X21327Y233D01*
Y167D01*
X21260Y100D01*
X21127D01*
X21060Y167D01*
X21660Y100D02*
X21527D01*
X21460Y167D01*
Y300D01*
X21527Y367D01*
X21660D01*
X21726Y300D01*
Y233D01*
X21460D01*
X21860Y100D02*
Y367D01*
X22060D01*
X22126Y300D01*
Y100D01*
X22260D02*
X22460D01*
X22526Y167D01*
X22460Y233D01*
X22326D01*
X22260Y300D01*
X22326Y367D01*
X22526D01*
X22726Y100D02*
X22859D01*
X22926Y167D01*
Y300D01*
X22859Y367D01*
X22726D01*
X22659Y300D01*
Y167D01*
X22726Y100D01*
X23059Y367D02*
Y100D01*
Y233D01*
X23126Y300D01*
X23193Y367D01*
X23259D01*
X19720Y660D02*
Y927D01*
X19853Y1060D01*
X19987Y927D01*
Y660D01*
Y860D01*
X19720D01*
X20120Y660D02*
Y927D01*
X20187D01*
X20253Y860D01*
Y660D01*
Y860D01*
X20320Y927D01*
X20386Y860D01*
Y660D01*
X20520Y1060D02*
Y660D01*
X20720D01*
X20786Y727D01*
Y793D01*
Y860D01*
X20720Y927D01*
X20520D01*
X20920Y660D02*
X21053D01*
X20986D01*
Y927D01*
X20920D01*
X21453Y660D02*
X21319D01*
X21253Y727D01*
Y860D01*
X21319Y927D01*
X21453D01*
X21519Y860D01*
Y793D01*
X21253D01*
X21653Y660D02*
Y927D01*
X21853D01*
X21919Y860D01*
Y660D01*
X22119Y993D02*
Y927D01*
X22053D01*
X22186D01*
X22119D01*
Y727D01*
X22186Y660D01*
X22786Y1060D02*
Y660D01*
X23052D01*
X23186D02*
X23319D01*
X23252D01*
Y927D01*
X23186D01*
X23652Y527D02*
X23719D01*
X23785Y593D01*
Y927D01*
X23585D01*
X23519Y860D01*
Y727D01*
X23585Y660D01*
X23785D01*
X23919Y1060D02*
Y660D01*
Y860D01*
X23985Y927D01*
X24119D01*
X24185Y860D01*
Y660D01*
X24385Y993D02*
Y927D01*
X24319D01*
X24452D01*
X24385D01*
Y727D01*
X24452Y660D01*
X38760Y-5920D02*
Y-5653D01*
Y-5787D01*
X39160D01*
X38893Y-5453D02*
Y-5320D01*
X38960Y-5254D01*
X39160D01*
Y-5453D01*
X39093Y-5520D01*
X39027Y-5453D01*
Y-5254D01*
X39160Y-5120D02*
X38893D01*
Y-5054D01*
X38960Y-4987D01*
X39160D01*
X38960D01*
X38893Y-4920D01*
X38960Y-4854D01*
X39160D01*
X39293Y-4720D02*
X38893D01*
Y-4520D01*
X38960Y-4454D01*
X39093D01*
X39160Y-4520D01*
Y-4720D01*
Y-4121D02*
Y-4254D01*
X39093Y-4321D01*
X38960D01*
X38893Y-4254D01*
Y-4121D01*
X38960Y-4054D01*
X39027D01*
Y-4321D01*
X38893Y-3921D02*
X39160D01*
X39027D01*
X38960Y-3854D01*
X38893Y-3787D01*
Y-3721D01*
X38827Y-2854D02*
X38760Y-2921D01*
Y-3054D01*
X38827Y-3121D01*
X38893D01*
X38960Y-3054D01*
Y-2921D01*
X39027Y-2854D01*
X39093D01*
X39160Y-2921D01*
Y-3054D01*
X39093Y-3121D01*
X38893Y-2721D02*
X39093D01*
X39160Y-2654D01*
X39093Y-2588D01*
X39160Y-2521D01*
X39093Y-2454D01*
X38893D01*
X39160Y-2321D02*
Y-2188D01*
Y-2255D01*
X38893D01*
Y-2321D01*
X38827Y-1921D02*
X38893D01*
Y-1988D01*
Y-1855D01*
Y-1921D01*
X39093D01*
X39160Y-1855D01*
X38893Y-1388D02*
Y-1588D01*
X38960Y-1655D01*
X39093D01*
X39160Y-1588D01*
Y-1388D01*
X38760Y-1255D02*
X39160D01*
X38960D01*
X38893Y-1188D01*
Y-1055D01*
X38960Y-988D01*
X39160D01*
X38760Y-455D02*
Y-322D01*
Y-388D01*
X39160D01*
Y-455D01*
Y-322D01*
Y-122D02*
X38893D01*
Y78D01*
X38960Y145D01*
X39160D01*
X25300Y-5970D02*
Y-5703D01*
Y-5837D01*
X25700D01*
X25433Y-5503D02*
Y-5370D01*
X25500Y-5304D01*
X25700D01*
Y-5503D01*
X25633Y-5570D01*
X25567Y-5503D01*
Y-5304D01*
X25700Y-5170D02*
X25433D01*
Y-5104D01*
X25500Y-5037D01*
X25700D01*
X25500D01*
X25433Y-4970D01*
X25500Y-4904D01*
X25700D01*
X25833Y-4770D02*
X25433D01*
Y-4570D01*
X25500Y-4504D01*
X25633D01*
X25700Y-4570D01*
Y-4770D01*
Y-4171D02*
Y-4304D01*
X25633Y-4371D01*
X25500D01*
X25433Y-4304D01*
Y-4171D01*
X25500Y-4104D01*
X25567D01*
Y-4371D01*
X25433Y-3971D02*
X25700D01*
X25567D01*
X25500Y-3904D01*
X25433Y-3837D01*
Y-3771D01*
X25300Y-2971D02*
Y-3104D01*
X25367Y-3171D01*
X25633D01*
X25700Y-3104D01*
Y-2971D01*
X25633Y-2904D01*
X25367D01*
X25300Y-2971D01*
X25833Y-2771D02*
X25433D01*
Y-2571D01*
X25500Y-2504D01*
X25633D01*
X25700Y-2571D01*
Y-2771D01*
X25367Y-2305D02*
X25433D01*
Y-2371D01*
Y-2238D01*
Y-2305D01*
X25633D01*
X25700Y-2238D01*
Y-1971D02*
Y-1838D01*
X25633Y-1771D01*
X25500D01*
X25433Y-1838D01*
Y-1971D01*
X25500Y-2038D01*
X25633D01*
X25700Y-1971D01*
X25300Y-1038D02*
Y-1172D01*
X25367Y-1238D01*
X25633D01*
X25700Y-1172D01*
Y-1038D01*
X25633Y-972D01*
X25367D01*
X25300Y-1038D01*
X25433Y-838D02*
X25633D01*
X25700Y-772D01*
Y-572D01*
X25433D01*
X25367Y-372D02*
X25433D01*
Y-438D01*
Y-305D01*
Y-372D01*
X25633D01*
X25700Y-305D01*
M02*
